<svg viewBox="0 0 1173 400" xmlns="http://www.w3.org/2000/svg"><g><g><g><g><g><line x1="51.41600036621094" y1="377.95999908447266" x2="46.41600036621094" y2="377.95999908447266" style="visibility: inherit;" fill="rgb(0, 0, 0)" stroke="rgb(204, 204, 204)" stroke-width="1px"></line><line x1="51.41600036621094" y1="350.9628562927246" x2="46.41600036621094" y2="350.9628562927246" style="visibility: inherit;" fill="rgb(0, 0, 0)" stroke="rgb(204, 204, 204)" stroke-width="1px"></line><line x1="51.41600036621094" y1="323.96571350097656" x2="46.41600036621094" y2="323.96571350097656" style="visibility: inherit;" fill="rgb(0, 0, 0)" stroke="rgb(204, 204, 204)" stroke-width="1px"></line><line x1="51.41600036621094" y1="296.9685707092285" x2="46.41600036621094" y2="296.9685707092285" style="visibility: inherit;" fill="rgb(0, 0, 0)" stroke="rgb(204, 204, 204)" stroke-width="1px"></line><line x1="51.41600036621094" y1="269.97142791748047" x2="46.41600036621094" y2="269.97142791748047" style="visibility: inherit;" fill="rgb(0, 0, 0)" stroke="rgb(204, 204, 204)" stroke-width="1px"></line><line x1="51.41600036621094" y1="242.97428512573242" x2="46.41600036621094" y2="242.97428512573242" style="visibility: inherit;" fill="rgb(0, 0, 0)" stroke="rgb(204, 204, 204)" stroke-width="1px"></line><line x1="51.41600036621094" y1="215.97714233398438" x2="46.41600036621094" y2="215.97714233398438" style="visibility: inherit;" fill="rgb(0, 0, 0)" stroke="rgb(204, 204, 204)" stroke-width="1px"></line><line x1="51.41600036621094" y1="188.97999954223633" x2="46.41600036621094" y2="188.97999954223633" style="visibility: inherit;" fill="rgb(0, 0, 0)" stroke="rgb(204, 204, 204)" stroke-width="1px"></line><line x1="51.41600036621094" y1="161.98285675048828" x2="46.41600036621094" y2="161.98285675048828" style="visibility: inherit;" fill="rgb(0, 0, 0)" stroke="rgb(204, 204, 204)" stroke-width="1px"></line><line x1="51.41600036621094" y1="134.9857139587402" x2="46.41600036621094" y2="134.9857139587402" style="visibility: inherit;" fill="rgb(0, 0, 0)" stroke="rgb(204, 204, 204)" stroke-width="1px"></line><line x1="51.41600036621094" y1="107.98857116699219" x2="46.41600036621094" y2="107.98857116699219" style="visibility: inherit;" fill="rgb(0, 0, 0)" stroke="rgb(204, 204, 204)" stroke-width="1px"></line><line x1="51.41600036621094" y1="80.99142837524414" x2="46.41600036621094" y2="80.99142837524414" style="visibility: inherit;" fill="rgb(0, 0, 0)" stroke="rgb(204, 204, 204)" stroke-width="1px"></line><line x1="51.41600036621094" y1="53.994285583496094" x2="46.41600036621094" y2="53.994285583496094" style="visibility: inherit;" fill="rgb(0, 0, 0)" stroke="rgb(204, 204, 204)" stroke-width="1px"></line><line x1="51.41600036621094" y1="26.997142791748047" x2="46.41600036621094" y2="26.997142791748047" style="visibility: inherit;" fill="rgb(0, 0, 0)" stroke="rgb(204, 204, 204)" stroke-width="1px"></line><line x1="51.41600036621094" y1="0" x2="46.41600036621094" y2="0" style="visibility: inherit;" fill="rgb(0, 0, 0)" stroke="rgb(204, 204, 204)" stroke-width="1px"></line></g><g transform="translate(41.41600036621094, 0)"><text style="text-anchor: end; visibility: hidden; font-family: &quot;Helvetica Neue&quot;, sans-serif; font-size: 12px; font-weight: 200;" x="0" y="377.95999908447266" dx="0em" dy="0.3em" fill="rgb(50, 49, 63)" stroke="none" stroke-width="1px">-350</text><text style="text-anchor: end; visibility: inherit; font-family: &quot;Helvetica Neue&quot;, sans-serif; font-size: 12px; font-weight: 200;" x="0" y="350.9628562927246" dx="0em" dy="0.3em" fill="rgb(50, 49, 63)" stroke="none" stroke-width="1px">-300</text><text style="text-anchor: end; visibility: inherit; font-family: &quot;Helvetica Neue&quot;, sans-serif; font-size: 12px; font-weight: 200;" x="0" y="323.96571350097656" dx="0em" dy="0.3em" fill="rgb(50, 49, 63)" stroke="none" stroke-width="1px">-250</text><text style="text-anchor: end; visibility: inherit; font-family: &quot;Helvetica Neue&quot;, sans-serif; font-size: 12px; font-weight: 200;" x="0" y="296.9685707092285" dx="0em" dy="0.3em" fill="rgb(50, 49, 63)" stroke="none" stroke-width="1px">-200</text><text style="text-anchor: end; visibility: inherit; font-family: &quot;Helvetica Neue&quot;, sans-serif; font-size: 12px; font-weight: 200;" x="0" y="269.97142791748047" dx="0em" dy="0.3em" fill="rgb(50, 49, 63)" stroke="none" stroke-width="1px">-150</text><text style="text-anchor: end; visibility: inherit; font-family: &quot;Helvetica Neue&quot;, sans-serif; font-size: 12px; font-weight: 200;" x="0" y="242.97428512573242" dx="0em" dy="0.3em" fill="rgb(50, 49, 63)" stroke="none" stroke-width="1px">-100</text><text style="text-anchor: end; visibility: inherit; font-family: &quot;Helvetica Neue&quot;, sans-serif; font-size: 12px; font-weight: 200;" x="0" y="215.97714233398438" dx="0em" dy="0.3em" fill="rgb(50, 49, 63)" stroke="none" stroke-width="1px">-50</text><text style="text-anchor: end; visibility: inherit; font-family: &quot;Helvetica Neue&quot;, sans-serif; font-size: 12px; font-weight: 200;" x="0" y="188.97999954223633" dx="0em" dy="0.3em" fill="rgb(50, 49, 63)" stroke="none" stroke-width="1px">0</text><text style="text-anchor: end; visibility: inherit; font-family: &quot;Helvetica Neue&quot;, sans-serif; font-size: 12px; font-weight: 200;" x="0" y="161.98285675048828" dx="0em" dy="0.3em" fill="rgb(50, 49, 63)" stroke="none" stroke-width="1px">50</text><text style="text-anchor: end; visibility: inherit; font-family: &quot;Helvetica Neue&quot;, sans-serif; font-size: 12px; font-weight: 200;" x="0" y="134.9857139587402" dx="0em" dy="0.3em" fill="rgb(50, 49, 63)" stroke="none" stroke-width="1px">100</text><text style="text-anchor: end; visibility: inherit; font-family: &quot;Helvetica Neue&quot;, sans-serif; font-size: 12px; font-weight: 200;" x="0" y="107.98857116699219" dx="0em" dy="0.3em" fill="rgb(50, 49, 63)" stroke="none" stroke-width="1px">150</text><text style="text-anchor: end; visibility: inherit; font-family: &quot;Helvetica Neue&quot;, sans-serif; font-size: 12px; font-weight: 200;" x="0" y="80.99142837524414" dx="0em" dy="0.3em" fill="rgb(50, 49, 63)" stroke="none" stroke-width="1px">200</text><text style="text-anchor: end; visibility: inherit; font-family: &quot;Helvetica Neue&quot;, sans-serif; font-size: 12px; font-weight: 200;" x="0" y="53.994285583496094" dx="0em" dy="0.3em" fill="rgb(50, 49, 63)" stroke="none" stroke-width="1px">250</text><text style="text-anchor: end; visibility: inherit; font-family: &quot;Helvetica Neue&quot;, sans-serif; font-size: 12px; font-weight: 200;" x="0" y="26.997142791748047" dx="0em" dy="0.3em" fill="rgb(50, 49, 63)" stroke="none" stroke-width="1px">300</text><text style="text-anchor: end; visibility: hidden; font-family: &quot;Helvetica Neue&quot;, sans-serif; font-size: 12px; font-weight: 200;" x="0" y="0" dx="0em" dy="0.3em" fill="rgb(50, 49, 63)" stroke="none" stroke-width="1px">350</text></g><line x1="51.41600036621094" y1="0" x2="51.41600036621094" y2="377.95999908447266" fill="rgb(0, 0, 0)" stroke="rgb(204, 204, 204)" stroke-width="1px"></line></g></g><g transform="translate(51, 0)" clip-path="url(#clip_0)"><clipPath id="clip_0"><rect width="1121" height="377"></rect></clipPath><g><g><g><line x1="0" y1="0" x2="0" y2="377.95999908447266" fill="rgb(0, 0, 0)" stroke="rgb(60, 60, 60)" stroke-width="1px" opacity="0.25"></line><line x1="93.46533330281575" y1="0" x2="93.46533330281575" y2="377.95999908447266" fill="rgb(0, 0, 0)" stroke="rgb(60, 60, 60)" stroke-width="1px" opacity="0.25"></line><line x1="186.9306666056315" y1="0" x2="186.9306666056315" y2="377.95999908447266" fill="rgb(0, 0, 0)" stroke="rgb(60, 60, 60)" stroke-width="1px" opacity="0.25"></line><line x1="280.39599990844727" y1="0" x2="280.39599990844727" y2="377.95999908447266" fill="rgb(0, 0, 0)" stroke="rgb(60, 60, 60)" stroke-width="1px" opacity="0.25"></line><line x1="373.861333211263" y1="0" x2="373.861333211263" y2="377.95999908447266" fill="rgb(0, 0, 0)" stroke="rgb(60, 60, 60)" stroke-width="1px" opacity="0.25"></line><line x1="467.3266665140788" y1="0" x2="467.3266665140788" y2="377.95999908447266" fill="rgb(0, 0, 0)" stroke="rgb(60, 60, 60)" stroke-width="1px" opacity="0.25"></line><line x1="560.7919998168945" y1="0" x2="560.7919998168945" y2="377.95999908447266" fill="rgb(0, 0, 0)" stroke="rgb(60, 60, 60)" stroke-width="1px" opacity="0.25"></line><line x1="654.2573331197103" y1="0" x2="654.2573331197103" y2="377.95999908447266" fill="rgb(0, 0, 0)" stroke="rgb(60, 60, 60)" stroke-width="1px" opacity="0.25"></line><line x1="747.722666422526" y1="0" x2="747.722666422526" y2="377.95999908447266" fill="rgb(0, 0, 0)" stroke="rgb(60, 60, 60)" stroke-width="1px" opacity="0.25"></line><line x1="841.1879997253418" y1="0" x2="841.1879997253418" y2="377.95999908447266" fill="rgb(0, 0, 0)" stroke="rgb(60, 60, 60)" stroke-width="1px" opacity="0.25"></line><line x1="934.6533330281576" y1="0" x2="934.6533330281576" y2="377.95999908447266" fill="rgb(0, 0, 0)" stroke="rgb(60, 60, 60)" stroke-width="1px" opacity="0.25"></line><line x1="1028.1186663309732" y1="0" x2="1028.1186663309732" y2="377.95999908447266" fill="rgb(0, 0, 0)" stroke="rgb(60, 60, 60)" stroke-width="1px" opacity="0.25"></line><line x1="1121.583999633789" y1="0" x2="1121.583999633789" y2="377.95999908447266" fill="rgb(0, 0, 0)" stroke="rgb(60, 60, 60)" stroke-width="1px" opacity="0.25"></line></g><g><line x1="0" y1="377.95999908447266" x2="1121.583999633789" y2="377.95999908447266" fill="rgb(0, 0, 0)" stroke="rgb(60, 60, 60)" stroke-width="1px" opacity="0.25"></line><line x1="0" y1="350.9628562927246" x2="1121.583999633789" y2="350.9628562927246" fill="rgb(0, 0, 0)" stroke="rgb(60, 60, 60)" stroke-width="1px" opacity="0.25"></line><line x1="0" y1="323.96571350097656" x2="1121.583999633789" y2="323.96571350097656" fill="rgb(0, 0, 0)" stroke="rgb(60, 60, 60)" stroke-width="1px" opacity="0.25"></line><line x1="0" y1="296.9685707092285" x2="1121.583999633789" y2="296.9685707092285" fill="rgb(0, 0, 0)" stroke="rgb(60, 60, 60)" stroke-width="1px" opacity="0.25"></line><line x1="0" y1="269.97142791748047" x2="1121.583999633789" y2="269.97142791748047" fill="rgb(0, 0, 0)" stroke="rgb(60, 60, 60)" stroke-width="1px" opacity="0.25"></line><line x1="0" y1="242.97428512573242" x2="1121.583999633789" y2="242.97428512573242" fill="rgb(0, 0, 0)" stroke="rgb(60, 60, 60)" stroke-width="1px" opacity="0.25"></line><line x1="0" y1="215.97714233398438" x2="1121.583999633789" y2="215.97714233398438" fill="rgb(0, 0, 0)" stroke="rgb(60, 60, 60)" stroke-width="1px" opacity="0.25"></line><line x1="0" y1="188.97999954223633" x2="1121.583999633789" y2="188.97999954223633" fill="rgb(0, 0, 0)" stroke="rgb(60, 60, 60)" stroke-width="1px" opacity="0.25"></line><line x1="0" y1="161.98285675048828" x2="1121.583999633789" y2="161.98285675048828" fill="rgb(0, 0, 0)" stroke="rgb(60, 60, 60)" stroke-width="1px" opacity="0.25"></line><line x1="0" y1="134.9857139587402" x2="1121.583999633789" y2="134.9857139587402" fill="rgb(0, 0, 0)" stroke="rgb(60, 60, 60)" stroke-width="1px" opacity="0.25"></line><line x1="0" y1="107.98857116699219" x2="1121.583999633789" y2="107.98857116699219" fill="rgb(0, 0, 0)" stroke="rgb(60, 60, 60)" stroke-width="1px" opacity="0.25"></line><line x1="0" y1="80.99142837524414" x2="1121.583999633789" y2="80.99142837524414" fill="rgb(0, 0, 0)" stroke="rgb(60, 60, 60)" stroke-width="1px" opacity="0.25"></line><line x1="0" y1="53.994285583496094" x2="1121.583999633789" y2="53.994285583496094" fill="rgb(0, 0, 0)" stroke="rgb(60, 60, 60)" stroke-width="1px" opacity="0.25"></line><line x1="0" y1="26.997142791748047" x2="1121.583999633789" y2="26.997142791748047" fill="rgb(0, 0, 0)" stroke="rgb(60, 60, 60)" stroke-width="1px" opacity="0.25"></line><line x1="0" y1="0" x2="1121.583999633789" y2="0" fill="rgb(0, 0, 0)" stroke="rgb(60, 60, 60)" stroke-width="1px" opacity="0.25"></line></g></g></g><g><g><line x1="0" y1="188.97999954223633" x2="1121.583999633789" y2="188.97999954223633" fill="rgb(0, 0, 0)" stroke="rgb(153, 153, 153)" stroke-width="1.5px"></line></g></g><g><g><line x1="93.46533330281575" y1="0" x2="93.46533330281575" y2="377.95999908447266" fill="rgb(0, 0, 0)" stroke="rgb(153, 153, 153)" stroke-width="1.5px"></line></g></g><g><g><g><g><g><path style="fill: none;" stroke="rgb(204, 51, 17)" stroke-width="2px" d="M97.20394663492839,267.2539506256534L99.0732533009847,261.9904376646117L100.942559967041,268.7065728603946L102.81186663309732,269.40517728938835L104.68117329915366,259.04002879734344L106.55047996520996,256.0951513374514L108.41978663126628,247.69553994264604L110.28909329732258,254.89119598299993L112.15839996337891,257.71921559664327L114.02770662943523,254.38584873312067L115.89701329549153,249.13316067968057L117.76631996154785,246.31498572103567L119.63562662760417,245.2306573471053L121.50493329366049,243.97966928319101L123.3742399597168,243.03982878167096L125.2435466257731,239.0130546800793L127.11285329182942,234.44487265085127L128.98215995788576,228.16399592111458L130.85146662394206,229.3006354562692L132.72077328999836,222.20671655318023L134.5900799560547,220.52380505218505L136.459386622111,216.38756303225787L138.32869328816733,211.1441801216935L140.19799995422363,208.59949080622638L142.06730662027996,207.3113175622306L143.93661328633627,203.76246201302303L145.80591995239257,205.06357007137132L147.67522661844887,210.5960632934286L149.5445332845052,208.59598301275153L151.41383995056154,206.11007047895572L153.28314661661784,204.75519473114417L155.15245328267414,203.30926712183143L157.02175994873048,203.0344237976167L158.89106661478678,204.38360799819264L160.7603732808431,206.285285202275L162.62967994689942,208.85846829045505L164.49898661295572,208.45684569722775L166.36829327901205,210.0928682757905L168.23759994506835,211.20960192951264L170.10690661112469,213.97835781355815L171.976213277181,220.19458213909903L173.8455199432373,226.49005661249925L175.71482660929362,232.617815667073L177.58413327534993,237.24867946387144L179.45343994140626,238.87175604413636L181.32274660746256,241.09196722028176L183.19205327351887,241.58289703804635L185.0613599395752,240.81777866808474L186.9306666056315,240.25168471412871L188.79997327168783,239.8356243161011L190.66927993774416,239.06781712429685L192.53858660380044,237.54508259578415L194.40789326985677,233.3797313072475L196.27719993591307,231.04501108079234L198.1465066019694,228.67585516483405L200.01581326802574,227.57423066840946L201.885119934082,226.60183011953723L203.75442660013834,225.88698308898893L205.62373326619465,225.20212326059047L207.49303993225098,225.69807703797306L209.3623465983073,227.7657918558034L211.2316532643636,228.0342232092873L213.10095993041992,226.0363982360821L214.97026659647625,224.79377976581603L216.83957326253255,225.51129006530957L218.70887992858889,226.84681234675273L220.57818659464516,227.74381232166405L222.4474932607015,226.7646803458719L224.31679992675782,225.19981210962015L226.18610659281413,222.35711326601108L228.05541325887046,221.93353024230143L229.92471992492673,222.72945346990346L231.79402659098307,222.91236144498944L233.6633332570394,222.5886487244604L235.5326399230957,220.7261245913239L237.40194658915203,216.51870185856083L239.27125325520834,212.8093497643016L241.14055992126464,210.11706687705478L243.00986658732097,208.22837149839148L244.87917325337727,206.85605944834091L246.7484799194336,206.84379449190732L248.6177865854899,205.80044490384796L250.4870932515462,204.36715476905684L252.35639991760254,202.33311665154022L254.22570658365885,200.72882629761367L256.0950132497152,196.8815430234224L257.9643199157715,193.67399994162326L259.8336265818278,191.8612363634883L261.7029332478841,191.06652637481727L263.5722399139404,192.05196161005134L265.4415465799967,191.79186916096256L267.31085324605306,193.25099395865178L269.1801599121094,193.1596040756946L271.0494665781657,191.72768681321662L272.918773244222,193.49887123137057L274.7880799102783,194.8236863038664L276.65738657633466,194.96929267464935L278.52669324239093,195.44232012198057L280.39599990844727,194.80488722053613L282.26530657450354,193.30203769241277L284.13461324055993,190.7475259845687L286.0039199066162,187.82642259425054L287.87322657267254,186.9378747066673L289.74253323872887,185.78437931713464L291.61183990478514,184.18073679255198L293.4811465708415,183.66212619561892L295.35045323689775,184.2259707702464L297.21975990295414,185.64031540105915L299.0890665690104,186.22578748080187L300.9583732350667,188.03991194814793L302.8276799011231,188.39978392004L304.69698656717935,188.2353203710734L306.5662932332357,188.7245128002781L308.435599899292,189.90328137438448L310.3049065653483,190.42205112197163L312.1742132314046,190.53206303437628L314.04351989746095,188.93277090001885L315.9128265635173,187.7156606669275L317.78213322957356,187.31564636865122L319.65143989562984,186.65667990468194L321.5207465616862,185.86531792386896L323.3900532277425,184.80172864103568L325.25935989379883,182.955557304322L327.12866655985516,181.38065524749535L328.99797322591144,182.23163059780592L330.86727989196777,190.80047765574483L332.7365865580241,197.05628455038706L334.60589322408043,200.21859566099113L336.4751998901367,203.52500006655464L338.34450655619304,204.1533888027057L340.21381322224937,204.63066884465022L342.08311988830565,204.78925770385192L343.952426554362,200.21806437521218L345.8217332204183,194.5837597523931L347.6910398864746,191.13940264571147L349.5603465525309,188.10501621188558L351.42965321858725,186.47544042941388L353.2989598846436,186.97829410150905L355.16826655069985,187.27634254129336L357.0375732167562,187.0275024204586L358.9068798828125,187.4538240488646L360.7761865488688,187.7227385132712L362.6454932149251,186.55601354474123L364.51479988098146,187.76671030490158L366.38410654703773,188.86729335653624L368.25341321309406,188.92942480684707L370.1227198791504,189.50091668683638L371.9920265452067,189.9418801624951L373.861333211263,189.33910311251577L375.73063987731933,187.65441023023962L377.59994654337567,186.6258257563024L379.46925320943194,185.99651997114202L381.33855987548833,185.87042003848944L383.2078665415446,185.9872072490146L385.0771732076009,184.8425803748743L386.9464798736572,182.43992009680724L388.81578653971354,179.7889513502946L390.6850932057699,177.9636153713757L392.55439987182615,176.6813222075388L394.4237065378825,175.56901804424237L396.2930132039388,174.11941673280276L398.1623198699951,167.7500667006884L400.0316265360515,163.876292230066L401.90093320210775,162.01963166534196L403.770239868164,160.51774108191896L405.6395465342204,164.9386413182109L407.5088532002767,165.90734448826493L409.378159866333,155.5758209386034L411.2474665323893,150.84564483565688L413.1167731984456,146.61032859510556L414.98607986450196,147.62090999092223L416.85538653055823,148.89998514826775L418.7246931966146,152.84343313830925L420.5939998626709,153.78554605452905L422.4633065287272,156.1265997339726L424.33261319478356,161.93757983217665L426.20191986083984,167.55833168150042L428.07122652689617,173.2501887635381L429.9405331929525,177.10524133580495L431.8098398590088,179.51470489366542L433.6791465250651,174.90083110597286L435.5484531911214,172.09494443865051L437.41775985717777,169.26726116039205L439.28706652323405,166.10265096154515L441.1563731892903,168.36008887481023L443.0256798553467,170.80479004004349L444.894986521403,172.6681501608643L446.7642931874593,174.65948559770703L448.63359985351565,176.13773380747747L450.5029065195719,173.83201742416375L452.37221318562825,168.83051116991751L454.2415198516846,164.63907911196154L456.1108265177409,161.65951828146135L457.9801331837972,163.15906789549877L459.84943984985347,167.58179842956454L461.71874651590986,170.64899618492333L463.58805318196613,174.018225145932L465.45735984802246,176.2545391145897L467.3266665140788,177.7749331655963L469.19597318013507,178.69743883147706L471.0652798461914,179.42543404816806L472.93458651224773,179.32844272431026L474.80389317830407,180.40029407139806L476.67319984436034,181.0942984103496L478.5425065104167,182.20556939718773L480.411813176473,177.2747055525763L482.2811198425293,173.07089166101468L484.1504265085856,168.6098649736641L486.01973317464194,164.46543548437762L487.8890398406982,166.41494283052572L489.75834650675455,162.66194175772327L491.6276531728109,160.23673389341172L493.4969598388672,157.08646974089754L495.3662665049235,154.0165154860679L497.2355731709798,163.0494199331768L499.10487983703615,170.8961526484311L500.9741865030924,176.03995335251835L502.84349316914876,178.05914064450232L504.7127998352051,172.2127815728195L506.58210650126136,168.3567752180807L508.4514131673177,168.2539854021457L510.320719833374,168.40136898320637L512.1900264994304,173.02159492184907L514.0593331654866,177.21013570674677L515.928639831543,179.81044363977168L517.7979464975992,177.57774415748L519.6672531636556,168.53041713361625L521.5365598297119,157.85878187487685L523.4058664957682,153.50654447684823L525.2751731618246,150.91406417051348L527.1444798278808,152.5096823724519L529.0137864939372,158.1100142989211L530.8830931599935,161.57085501941992L532.7523998260498,164.57821222490142L534.6217064921061,165.9613227188071L536.4910131581624,167.6644513791448L538.3603198242188,169.62580437098498L540.2296264902751,171.6481382865304L542.0989331563314,173.14535746496068L543.9682398223877,174.7952598973363L545.837546488444,173.47790944434064L547.7068531545003,171.53751173448273L549.5761598205567,169.52657068021654L551.4454664866129,166.79980255689205L553.3147731526693,168.79724174228673L555.1840798187255,170.88939466897415L557.0533864847819,173.52765850256753L558.9226931508382,175.0318450060778L560.7919998168945,176.96996223517976L562.6613064829509,178.74181328376758L564.5306131490071,172.249276847777L566.3999198150635,164.91967913660636L568.2692264811199,155.96569221056797L570.1385331471761,149.7588156445105L572.0078398132324,149.8585023895463L573.8771464792887,153.2617483770607L575.7464531453451,160.3936643548496L577.6157598114014,166.4377732989012L579.4850664774577,170.88256834769234L581.354373143514,166.7285802249183L583.2236798095703,160.8697647047584L585.0929864756266,156.23681249680507L586.962293141683,155.2215484014615L588.8315998077393,155.55121264504132L590.7009064737955,147.33503300087574L592.5702131398518,141.12567853577733L594.4395198059083,138.54985534173957L596.3088264719645,139.3055769555808L598.1781331380208,137.84793980867067L600.0474398040772,141.45407416895475L601.9167464701334,144.99392652984457L603.7860531361898,146.0189338469225L605.6553598022462,149.1281393060443L607.5246664683024,150.71371759584744L609.3939731343587,155.264793436538L611.263279800415,157.2880009095986L613.1325864664714,158.2640689926393L615.0018931325277,162.51403270235133L616.871199798584,166.07532519914201L618.7405064646402,167.16759826499023L620.6098131306966,170.2281863511577L622.479119796753,166.306322500398L624.3484264628092,166.98944428974474L626.2177331288656,155.79862707274717L628.0870397949219,146.67384985745963L629.9563464609781,133.68735326920856L631.8256531270346,127.38082981239074L633.6949597930908,122.95226846149316L635.5642664591471,115.85127055140828L637.4335731252035,110.00342522524284L639.3028797912597,106.63776583775012L641.1721864573161,109.03654327938108L643.0414931233724,111.21383217474914L644.9107997894287,115.24928336787349L646.780106455485,113.48006790290145L648.6494131215413,111.02223560153584L650.5187197875977,106.9328241157018L652.388026453654,101.85189385769854L654.2573331197103,95.88904773671032L656.1266397857665,91.47825309464525L657.9959464518229,88.83163679898786L659.8652531178793,89.31266944904411L661.7345597839355,92.43196429241488L663.6038664499919,92.04214079989526L665.4731731160482,90.60953976929619L667.3424797821044,87.86931021245891L669.2117864481609,83.63201981546524L671.0810931142172,79.3534534004632L672.9503997802734,84.74671124433098L674.8197064463297,90.77943276006624L676.6890131123861,93.0503865086053L678.5583197784424,94.61563307631206L680.4276264444987,94.35462212728521L682.296933110555,96.35006148858298L684.1662397766113,93.62739894109882L686.0355464426676,94.84408483006177L687.904853108724,100.28920803275838L689.7741597747803,102.91713303177306L691.6434664408366,103.9086882310475L693.5127731068928,100.44272869965789L695.3820797729492,99.09742547854876L697.2513864390056,103.23143393203088L699.1206931050618,107.28006405909491L700.9899997711182,106.58770144638885L702.8593064371745,99.72591311727098L704.7286131032307,95.93599740253546L706.5979197692872,91.6401990537222L708.4672264353435,87.7889435820353L710.3365331013997,84.860823914722L712.205839767456,84.0163714684727L714.0751464335124,83.03637575318896L715.9444530995687,85.69359284770655L717.813759765625,90.5041149077083L719.6830664316814,101.19871670685654L721.5523730977376,105.59017476180003L723.4216797637939,106.67776599884866L725.2909864298502,103.89216128093955L727.1602930959066,98.01450495515292L729.0295997619629,93.17131692849483L730.8989064280191,89.13761915553658L732.7682130940755,83.9963796225436L734.6375197601319,78.88475846756364L736.5068264261881,76.57306041724081L738.3761330922445,75.29288299383381L740.2454397583008,74.70792931169728L742.114746424357,73.0531899073261L743.9840530904135,73.7036231444452L745.8533597564698,75.577573372482L747.722666422526,78.91144371413986L749.5919730885823,77.47594616088423L751.4612797546387,76.79923506480873L753.330586420695,74.45461510182304L755.1998930867513,75.34628289115142L757.0691997528077,74.54041080470535L758.9385064188639,78.02091543749037L760.8078130849202,78.59044346659442L762.6771197509767,75.38536408325524L764.5464264170329,74.2961943208552L766.4157330830892,74.69121773986961L768.2850397491455,78.55054459515236L770.1543464152018,77.15112796623589L772.0236530812582,73.16854628692619L773.8929597473144,72.11971946790413L775.7622664133708,71.55058367842037L777.6315730794271,70.71372266965875L779.5008797454833,74.98195462739392L781.3701864115397,72.7355879302703L783.2394930775961,72.57130652762669L785.1087997436523,74.54324355249713L786.9781064097086,82.32248952676537L788.847413075765,80.36591839237508L790.7167197418213,81.6011259832581L792.5860264078776,81.85160376205107L794.455333073934,76.94413167131381L796.3246397399902,77.30183331759173L798.1939464060465,76.7484139109963L800.063253072103,84.41128059345158L801.9325597381592,91.55239188020522L803.8018664042155,91.55799665020515L805.6711730702718,87.70717081949226L807.540479736328,83.15393998493539L809.4097864023845,79.13858936136882L811.2790930684408,74.85691699594122L813.148399734497,72.4665460344973L815.0177064005534,81.75363234052747L816.8870130666097,76.82449158031801L818.756319732666,73.6392085400887L820.6256263987224,73.58670769968336L822.4949330647786,71.00358544018991L824.3642397308349,69.0360125969467L826.2335463968913,68.7144270723046L828.1028530629476,69.56387000309024L829.9721597290039,73.21696586321218L831.8414663950603,71.1493818120565L833.7107730611165,73.43101881560597L835.5800797271728,73.2664826406201L837.4493863932292,74.21186430448017L839.3186930592855,75.28806140336485L841.1879997253418,71.40005019383392L843.0573063913981,69.23750041338252L844.9266130574543,68.04454281956458L846.7959197235108,66.34877424985478L848.6652263895671,69.22677599737642L850.5345330556233,67.70497228349905L852.4038397216797,66.67405968167259L854.273146387736,71.11859203610175L856.1424530537923,76.7692256989871L858.0117597198487,83.0876367717978L859.881066385905,87.37895859565538L861.7503730519612,94.4311140424831L863.6196797180176,95.4516917649662L865.4889863840739,92.42182547594979L867.3582930501302,92.36166637888306L869.2275997161865,96.60764262538368L871.0969063822428,88.3279273710973L872.9662130482991,81.81968638301157L874.8355197143555,79.30325944463613L876.7048263804118,76.85225429151484L878.5741330464681,75.19919363202985L880.4434397125244,80.94978096333705L882.3127463785806,77.8369537966463L884.1820530446371,75.0186746451439L886.0513597106934,71.3671461686576L887.9206663767496,74.4055111318819L889.789973042806,71.12701897710389L891.6592797088623,68.67875661085702L893.5285863749186,74.03050671623288L895.397893040975,72.04019432893398L897.2671997070313,83.4057077350435L899.1365063730875,80.42420306661313L901.0058130391438,76.60944849837142L902.8751197052003,72.10416567879128L904.7444263712565,68.22262567477577L906.6137330373128,65.43512617736184L908.4830397033692,64.70098813604034L910.3523463694254,65.0416632989265L912.2216530354818,63.505512716604414L914.090959701538,64.47023808356664L915.9602663675944,63.79693972332166L917.8295730336507,62.73537206750012L919.6988796997069,70.9839511056017L921.5681863657634,84.8286013108007L923.4374930318197,81.55214754327136L925.3067996978759,77.52696421826533L927.1761063639323,74.27076877222936L929.0454130299886,80.3621024886661L930.9147196960449,78.5020725795057L932.7840263621013,74.2684252605784L934.6533330281576,71.36688923728019L936.5226396942138,68.66926587711339L938.3919463602701,69.73303199284067L940.2612530263266,66.89357004972004L942.1305596923828,64.58397723564195L943.9998663584391,64.67480154524577L945.8691730244955,66.61049669663083L947.7384796905517,64.15675822348481L949.6077863566081,62.55896893895397L951.4770930226645,60.453936900580175L953.3463996887207,58.78857018136961L955.215706354777,58.616940042141664L957.0850130208333,57.57854195304304L958.9543196868897,57.91114367146531L960.823626352946,59.39892618232801L962.6929330190022,58.83136494180434L964.5622396850586,67.01119725762788L966.4315463511149,67.80233601607512L968.3008530171712,75.77634341919855L970.1701596832276,75.63225799673171L972.0394663492839,70.81139483951284L973.9087730153401,66.58626066010521L975.7780796813964,64.086742138629L977.6473863474529,61.70871391290052L979.5166930135091,69.2676453269799L981.3859996795654,72.23870652020946L983.2553063456218,70.30732420197575L985.124613011678,67.32086283339788L986.9939196777344,64.5804876219579L988.8632263437908,64.58084415244963L990.732533009847,62.535313836496755L992.6018396759033,64.18366642919807L994.4711463419596,70.05665392886567L996.340453008016,67.97184200874369L998.2097596740723,67.43065313371369L1000.0790663401286,63.812245330459575L1001.9483730061849,66.5934422355391L1003.8176796722412,64.99329010838301L1005.6869863382975,66.7778043611379L1007.5562930043538,63.12147006076913L1009.4255996704102,63.19030295269363L1011.2949063364664,63.192454337210506L1013.1642130025227,74.48759399735314L1015.0335196685792,70.30798898661044L1016.9028263346354,72.78320039688725L1018.7721330006917,74.31528805127869L1020.641439666748,72.10727572269485L1022.5107463328043,71.96773952695764L1024.3800529988607,72.53677517763839L1026.249359664917,69.49879338187782" fill="none"></path></g><g><path style="fill: none;" stroke="rgb(255, 112, 67)" stroke-width="2px" d="M97.20394663492839,267.2539506256534L99.0732533009847,269.833363883694L100.942559967041,263.7492276226695L102.81186663309732,257.78703128527366L104.68117329915366,261.10048721575924L106.55047996520996,249.05547438572222L108.41978663126628,246.57496624059056L110.28909329732258,252.73587221805798L112.15839996337891,251.277862973923L114.02770662943523,249.79167074432925L115.89701329549153,249.2998157744537L117.76631996154785,248.2028836175805L119.63562662760417,251.26708302255895L121.50493329366049,245.86199806758208L123.3742399597168,245.18240076083273L125.2435466257731,241.09100204215667L127.11285329182942,238.86200931418253L128.98215995788576,238.58182516552102L130.85146662394206,230.30620666516955L132.72077328999836,228.75799621017836L134.5900799560547,223.94520170430656L136.459386622111,221.57132282803323L138.32869328816733,224.45642215049637L140.19799995422363,222.71059676357314L142.06730662027996,220.17839328562306L143.93661328633627,218.93910244468043L145.80591995239257,213.5527836392125L147.67522661844887,211.02449492870133L149.5445332845052,205.58227741446623L151.41383995056154,203.2568368915872L153.28314661661784,201.58645700490962L155.15245328267414,202.35139526355044L157.02175994873048,202.53290575529667L158.89106661478678,203.93139974303486L160.7603732808431,203.36782200156804L162.62967994689942,204.51277881120785L164.49898661295572,206.30162895683466L166.36829327901205,209.36251646075905L168.23759994506835,214.0122904931411L170.10690661112469,216.723496616775L171.976213277181,219.1269035391931L173.8455199432373,219.50531583652304L175.71482660929362,221.17329203030155L177.58413327534993,221.34988475399263L179.45343994140626,223.37707887722019L181.32274660746256,225.68178644144456L183.19205327351887,227.96104544577304L185.0613599395752,230.81733406480373L186.9306666056315,233.0473957953523L188.79997327168783,235.05464569665017L190.66927993774416,237.1218616571408L192.53858660380044,236.9326542987558L194.40789326985677,236.62832348419815L196.27719993591307,235.01680769189488L198.1465066019694,231.61121777894806L200.01581326802574,228.49040735390918L201.885119934082,226.34376818449257L203.75442660013834,223.75621524587555L205.62373326619465,222.89072308894055L207.49303993225098,222.62523890331718L209.3623465983073,221.2617917931371L211.2316532643636,220.1193438525922L213.10095993041992,218.11455245077113L214.97026659647625,215.9597674836533L216.83957326253255,214.07233732925033L218.70887992858889,214.19570025873733L220.57818659464516,215.51733683339754L222.4474932607015,216.28537676384445L224.31679992675782,217.59037158509938L226.18610659281413,217.65987848791173L228.05541325887046,218.14820229383707L229.92471992492673,219.0343203954045L231.79402659098307,219.57976286427748L233.6633332570394,219.3133908861328L235.5326399230957,218.80523252687462L237.40194658915203,218.84806297672037L239.27125325520834,218.8745259847235L241.14055992126464,218.25953027987117L243.00986658732097,217.37290963556518L244.87917325337727,214.93180786726535L246.7484799194336,211.60197008460815L248.6177865854899,209.1598643957405L250.4870932515462,206.9166286667867L252.35639991760254,205.9786299438853L254.22570658365885,203.95797047366014L256.0950132497152,201.06602112686423L257.9643199157715,200.34513690851654L259.8336265818278,198.62427629217532L261.7029332478841,197.6922570888262L263.5722399139404,198.974849749648L265.4415465799967,200.5777688998435L267.31085324605306,200.0731564495372L269.1801599121094,196.3435613438926L271.0494665781657,190.44643357251795L272.918773244222,184.894230490027L274.7880799102783,181.30500755874368L276.65738657633466,182.99792829737967L278.52669324239093,185.9053358979771L280.39599990844727,189.205245282605L282.26530657450354,191.85266476791438L284.13461324055993,194.3173319619587L286.0039199066162,197.47063087743743L287.87322657267254,200.12558835815915L289.74253323872887,202.6269756698354L291.61183990478514,203.52717642326397L293.4811465708415,199.99511202385102L295.35045323689775,195.62020176394773L297.21975990295414,190.1597803568328L299.0890665690104,184.04630055855657L300.9583732350667,179.6670386277829L302.8276799011231,174.88402617112766L304.69698656717935,171.4686145849101L306.5662932332357,170.0992734904144L308.435599899292,170.47825978824443L310.3049065653483,164.4768085764761L312.1742132314046,156.98914958744695L314.04351989746095,150.09068008044653L315.9128265635173,150.6430340270124L317.78213322957356,150.37283569882865L319.65143989562984,152.83760258375446L321.5207465616862,155.12047292168697L323.3900532277425,156.72016590212533L325.25935989379883,155.27143994790592L327.12866655985516,155.16690432896712L328.99797322591144,154.16232997427736L330.86727989196777,153.06807231387202L332.7365865580241,154.5207205029835L334.60589322408043,151.4275789121458L336.4751998901367,145.87379593050053L338.34450655619304,135.92151349308108L340.21381322224937,132.84116164914107L342.08311988830565,135.0657351983856L343.952426554362,141.1214744169834L345.8217332204183,141.7290819168597L347.6910398864746,142.37241444422563L349.5603465525309,141.82562388055345L351.42965321858725,130.7807711632383L353.2989598846436,128.47459274939845L355.16826655069985,125.87010894269716L357.0375732167562,120.66525326519417L358.9068798828125,117.37698200797274L360.7761865488688,124.11460635729526L362.6454932149251,127.52185149118924L364.51479988098146,121.5843798498666L366.38410654703773,112.5750317392592L368.25341321309406,113.69020647159022L370.1227198791504,116.75485778803193L371.9920265452067,111.57094949618471L373.861333211263,104.8045835939696L375.73063987731933,109.69791969669149L377.59994654337567,102.93171101476202L379.46925320943194,99.83732436844042L381.33855987548833,109.43656710442042L383.2078665415446,112.9174060829036L385.0771732076009,115.93954570641637L386.9464798736572,121.38491271759989L388.81578653971354,118.5792964052988L390.6850932057699,117.03045494015629L392.55439987182615,117.6962889042012L394.4237065378825,110.68648879909074L396.2930132039388,105.53291926106976L398.1623198699951,99.91020190311195L400.0316265360515,106.8191355695767L401.90093320210775,112.52244018438017L403.770239868164,118.60227016384044L405.6395465342204,119.4449649229457L407.5088532002767,114.7271139728162L409.378159866333,109.88874241464356L411.2474665323893,104.16804335870478L413.1167731984456,102.63937870486359L414.98607986450196,99.71955568582308L416.85538653055823,98.95905474757285L418.7246931966146,105.80249554144126L420.5939998626709,105.46629521872654L422.4633065287272,99.55625621103843L424.33261319478356,94.01475168350237L426.20191986083984,105.43592876922673L428.07122652689617,106.21403376467492L429.9405331929525,106.81214303098307L431.8098398590088,110.06887602326884L433.6791465250651,104.74248587447562L435.5484531911214,107.02506132461781L437.41775985717777,110.74093159361757L439.28706652323405,112.64820006107317L441.1563731892903,104.66142889977124L443.0256798553467,106.27450785833821L444.894986521403,99.70287672130235L446.7642931874593,93.79654513831179L448.63359985351565,89.46610506054924L450.5029065195719,88.47561268142954L452.37221318562825,88.93773581653761L454.2415198516846,85.27095015000714L456.1108265177409,83.93626759046924L457.9801331837972,83.61814623311722L459.84943984985347,87.3110767276271L461.71874651590986,85.86096640495714L463.58805318196613,87.32578279187305L465.45735984802246,92.71868296863192L467.3266665140788,96.80441508020124L469.19597318013507,98.69473530304907L471.0652798461914,100.02818093601297L472.93458651224773,95.34840808635312L474.80389317830407,94.82458896742389L476.67319984436034,98.43603908708951L478.5425065104167,95.97314362419655L480.411813176473,98.71033760383887L482.2811198425293,108.52829692860502L484.1504265085856,105.60663813831894L486.01973317464194,99.89913092296746L487.8890398406982,96.3897156142159L489.75834650675455,100.38899920039461L491.6276531728109,105.86133369003807L493.4969598388672,111.97428735000057L495.3662665049235,107.7997617253331L497.2355731709798,106.57097076220253L499.10487983703615,114.47037059846735L500.9741865030924,112.5123574045428L502.84349316914876,113.90494572183115L504.7127998352051,110.8343608079561L506.58210650126136,104.82565743213803L508.4514131673177,102.39557236339675L510.320719833374,101.95807970994701L512.1900264994304,103.19384953851204L514.0593331654866,106.67481379896543L515.928639831543,112.66188333367984L517.7979464975992,116.58809950351326L519.6672531636556,115.65550381573138L521.5365598297119,115.75624459812616L523.4058664957682,111.34341770002942L525.2751731618246,110.00400509027128L527.1444798278808,102.51046876372453L529.0137864939372,97.43744095990127L530.8830931599935,91.64284312386195L532.7523998260498,84.9633121179337L534.6217064921061,86.51060866960927L536.4910131581624,87.60462437041309L538.3603198242188,88.81711910771878L540.2296264902751,86.30421586504025L542.0989331563314,83.12315021158264L543.9682398223877,80.32597902967461L545.837546488444,77.98305605728376L547.7068531545003,81.0726784192189L549.5761598205567,84.57900760586722L551.4454664866129,91.38679613908482L553.3147731526693,91.62158717098322L555.1840798187255,87.97733095753853L557.0533864847819,88.72811848079493L558.9226931508382,87.61712833889857L560.7919998168945,83.11982545375804L562.6613064829509,91.40785675898377L564.5306131490071,98.6149281832324L566.3999198150635,102.83861765309689L568.2692264811199,103.08974334713213L570.1385331471761,101.20641823408653L572.0078398132324,96.54942439996398L573.8771464792887,92.80616162210163L575.7464531453451,90.97243570358035L577.6157598114014,86.70804504634867L579.4850664774577,81.34863328394027L581.354373143514,77.23204842482397L583.2236798095703,75.02412880627827L585.0929864756266,75.54822951691915L586.962293141683,76.95176607895468L588.8315998077393,76.29374531996257L590.7009064737955,78.81023202879828L592.5702131398518,83.32055780316853L594.4395198059083,79.646293257325L596.3088264719645,83.07264711834551L598.1781331380208,90.57663544051337L600.0474398040772,94.34958061166407L601.9167464701334,98.57587070596185L603.7860531361898,97.47802789010512L605.6553598022462,96.50113554402338L607.5246664683024,93.63287757137994L609.3939731343587,92.70722036222918L611.263279800415,90.6669305953406L613.1325864664714,85.78998065629958L615.0018931325277,88.09619960428779L616.871199798584,90.46690241533014L618.7405064646402,90.6842540455458L620.6098131306966,87.877244071468L622.479119796753,86.31517862556115L624.3484264628092,92.13528769768658L626.2177331288656,92.2061286914846L628.0870397949219,87.00551358192894L629.9563464609781,86.74176013108604L631.8256531270346,83.24289366451802L633.6949597930908,86.18351253798517L635.5642664591471,90.77996710470262L637.4335731252035,91.88841889991096L639.3028797912597,89.34599115392967L641.1721864573161,84.98067675840036L643.0414931233724,85.6619606172776L644.9107997894287,87.19781224558943L646.780106455485,86.73896696569227L648.6494131215413,91.69052312816359L650.5187197875977,91.15365715104713L652.388026453654,92.4874488849349L654.2573331197103,92.83871222378048L656.1266397857665,87.42137488654447L657.9959464518229,81.51544787768512L659.8652531178793,81.7693382875803L661.7345597839355,87.73536543060726L663.6038664499919,81.73828538942405L665.4731731160482,78.75146445438645L667.3424797821044,87.88901985140365L669.2117864481609,87.58414244013056L671.0810931142172,84.0165666586584L672.9503997802734,79.84631124726633L674.8197064463297,82.6017193020424L676.6890131123861,86.3215026616976L678.5583197784424,86.10488152759137L680.4276264444987,81.77009967374033L682.296933110555,81.1844746896079L684.1662397766113,86.50564372625797L686.0355464426676,84.6710418160423L687.904853108724,81.16737389949907L689.7741597747803,87.88737386308918L691.6434664408366,89.4730626562241L693.5127731068928,84.83261349443012L695.3820797729492,82.99568883345461L697.2513864390056,86.42464549262792L699.1206931050618,84.30440974568182L700.9899997711182,88.2142125188019L702.8593064371745,93.39674325594302L704.7286131032307,90.5203676405805L706.5979197692872,100.48755455000384L708.4672264353435,97.8196713758054L710.3365331013997,95.6776773927266L712.205839767456,90.1001865125337L714.0751464335124,82.84933941354956L715.9444530995687,78.11081919286613L717.813759765625,80.72073325201274L719.6830664316814,81.84569893369462L721.5523730977376,77.13370790922636L723.4216797637939,74.0986312131003L725.2909864298502,74.89393650751526L727.1602930959066,72.86724725212315L729.0295997619629,76.59160361384863L730.8989064280191,83.04045758845473L732.7682130940755,87.2609902918204L734.6375197601319,87.832730867458L736.5068264261881,96.01394682185787L738.3761330922445,91.07560526433775L740.2454397583008,92.99742240818921L742.114746424357,95.3507869338701L743.9840530904135,94.41407573022184L745.8533597564698,102.06714639757087L747.722666422526,98.87960565960702L749.5919730885823,102.73469608017092L751.4612797546387,101.18835789119879L753.330586420695,106.31879284964288L755.1998930867513,101.94817575519801L757.0691997528077,94.76768277006602L758.9385064188639,90.23206095141944L760.8078130849202,89.7675135419077L762.6771197509767,82.62839919242748L764.5464264170329,77.38518391415823L766.4157330830892,78.33023768662412L768.2850397491455,83.89900331524166L770.1543464152018,85.12362561290894L772.0236530812582,84.15716601574036L773.8929597473144,87.65392113352732L775.7622664133708,81.54593362856798L777.6315730794271,92.0235829102134L779.5008797454833,98.87419204098939L781.3701864115397,100.32039865572875L783.2394930775961,96.47722812335604L785.1087997436523,101.70096495014934L786.9781064097086,104.73319198953533L788.847413075765,118.05901039894428L790.7167197418213,121.32828086573943L792.5860264078776,119.22846295298672L794.455333073934,114.70034104012666L796.3246397399902,119.28301097336009L798.1939464060465,126.76238962957345L800.063253072103,127.48550930388404L801.9325597381592,126.07516536726013L803.8018664042155,134.33937243621455L805.6711730702718,127.9902131820943L807.540479736328,126.0044593378538L809.4097864023845,125.60078056936487L811.2790930684408,123.52941749598492L813.148399734497,126.7221469883714L815.0177064005534,130.90563164236787L816.8870130666097,137.26092110223354L818.756319732666,141.8731335698469L820.6256263987224,139.57660804339136L822.4949330647786,140.91205206849864L824.3642397308349,135.9625277511078L826.2335463968913,130.56534647942442L828.1028530629476,134.80081646142747L829.9721597290039,136.62964364386588L831.8414663950603,142.26870034267452L833.7107730611165,140.55845948998567L835.5800797271728,140.30206716310866L837.4493863932292,139.3536819533371L839.3186930592855,138.85542657647636L841.1879997253418,136.06793834223328L843.0573063913981,129.24620237981108L844.9266130574543,127.94896818182889L846.7959197235108,125.22866956531249L848.6652263895671,126.88709755695092L850.5345330556233,133.98645597041735L852.4038397216797,122.14458355436093L854.273146387736,126.61925981176583L856.1424530537923,125.97990162276366L858.0117597198487,128.99153354356736L859.881066385905,133.3068169376875L861.7503730519612,134.3736902578116L863.6196797180176,118.47340712973067L865.4889863840739,121.1345510319344L867.3582930501302,114.961160126697L869.2275997161865,122.09335544790991L871.0969063822428,123.59381071486757L872.9662130482991,115.61578882713025L874.8355197143555,122.02304069924728L876.7048263804118,133.76427442401175L878.5741330464681,133.78389012378L880.4434397125244,139.13981161472356L882.3127463785806,151.1435362993237L884.1820530446371,155.4588751182557L886.0513597106934,158.5154192547316L887.9206663767496,163.17430653224352L889.789973042806,156.3608288520595L891.6592797088623,160.32545440385957L893.5285863749186,162.11736485039123L895.397893040975,162.82063424515275L897.2671997070313,161.32494419778283L899.1365063730875,156.9658664332577L901.0058130391438,161.94641391724667L902.8751197052003,159.39102924309645L904.7444263712565,152.34056833157103L906.6137330373128,157.3166730289534L908.4830397033692,154.99589613812478L910.3523463694254,160.42393396329533L912.2216530354818,150.17365124303453L914.090959701538,157.45317360733517L915.9602663675944,161.83232859716247L917.8295730336507,160.03851612820614L919.6988796997069,159.87841346963094L921.5681863657634,154.40266702038224L923.4374930318197,163.429182872372L925.3067996978759,168.49801399263086L927.1761063639323,165.0706276155762L929.0454130299886,166.24998085849404L930.9147196960449,172.0108475377089L932.7840263621013,171.16828403200506L934.6533330281576,167.93506387626695L936.5226396942138,169.97539425562482L938.3919463602701,165.6267176291261L940.2612530263266,179.8458091641295L942.1305596923828,185.36859748194425L943.9998663584391,189.68626093428716L945.8691730244955,197.88071008944993L947.7384796905517,202.3835307908321L949.6077863566081,207.9257131352603L951.4770930226645,213.18887612898155L953.3463996887207,221.55938908797182L955.215706354777,220.78330940726192L957.0850130208333,230.125022791921L958.9543196868897,227.27825021687994L960.823626352946,234.89865760748876L962.6929330190022,237.6916534752602L964.5622396850586,237.76700892078622L966.4315463511149,239.52954092115223L968.3008530171712,246.4485494896295L970.1701596832276,249.48678331624063L972.0394663492839,251.8911123358992L973.9087730153401,263.66512033086315L975.7780796813964,259.2148567942869L977.6473863474529,263.1801450136913L979.5166930135091,265.0137542365151L981.3859996795654,265.7152527246524L983.2553063456218,262.788621706066L985.124613011678,267.79686797329066L986.9939196777344,278.48807297884986L988.8632263437908,270.66964886866504L990.732533009847,267.07391836354816L992.6018396759033,270.6905257205919L994.4711463419596,277.1463554229848L996.340453008016,286.2044107031644L998.2097596740723,279.45330258863703L1000.0790663401286,289.52786679901914L1001.9483730061849,285.7160195533137L1003.8176796722412,286.1475430625849L1005.6869863382975,281.59496373988236L1007.5562930043538,283.72409462383456L1009.4255996704102,288.657070256482L1011.2949063364664,293.09437833821323L1013.1642130025227,304.52155993164087L1015.0335196685792,298.26717313085885L1016.9028263346354,287.7507144948352L1018.7721330006917,288.1178766169901L1020.641439666748,288.6559954714812L1022.5107463328043,300.35055319007313L1024.3800529988607,300.4210736643713L1026.249359664917,293.53961415839467" fill="none"></path></g></g></g></g><g opacity="0.2"><g><g><g><path style="fill: none;" stroke="rgb(204, 51, 17)" stroke-width="2px" d="M97.20394663492839,267.2539506256534L99.0732533009847,257.7164651402459L100.942559967041,278.5883180838986L102.81186663309732,270.80708868292976L104.68117329915366,233.73387284473574L106.55047996520996,247.86577885429259L108.41978663126628,221.81541452356032L110.28909329732258,278.7366013407242L112.15839996337891,267.62535907201936L114.02770662943523,242.19799780679458L115.89701329549153,229.27311157580814L117.76631996154785,235.37450456945166L119.63562662760417,240.93207831697597L121.50493329366049,238.9369443156355L123.3742399597168,239.20042351072829L125.2435466257731,222.385878288658L127.11285329182942,215.41896890938952L128.98215995788576,201.8227658250618L130.85146662394206,234.09433182736566L132.72077328999836,192.15295861415672L134.5900799560547,213.36793002755178L136.459386622111,198.74777597797015L138.32869328816733,188.72909724598762L140.19799995422363,197.69997244221304L142.06730662027996,201.7850647369835L143.93661328633627,188.51844722450545L145.80591995239257,210.65823641207126L147.67522661844887,234.40536168457476L149.5445332845052,199.98269052467018L151.41383995056154,195.39863038475568L153.28314661661784,198.91460803006936L155.15245328267414,197.07390297073545L157.02175994873048,201.84884907073925L158.89106661478678,210.2048985415089L160.7603732808431,214.4920028809691L162.62967994689942,219.9648377482142L164.49898661295572,206.72314003008884L166.36829327901205,217.15591101311847L168.23759994506835,216.03117699005116L170.10690661112469,225.9334757030732L171.976213277181,247.03690692113713L173.8455199432373,253.67582466105466L175.71482660929362,259.08031188812805L177.58413327534993,257.2474878268415L179.45343994140626,245.88133067271556L181.32274660746256,250.68057372749666L183.19205327351887,243.7031494851032L185.0613599395752,237.51330393866053L186.9306666056315,237.80675203844845L188.79997327168783,238.0386639872624L190.66927993774416,235.75164315278408L192.53858660380044,230.96832584172137L194.40789326985677,215.38931514163036L196.27719993591307,220.961168917763L198.1465066019694,218.44325157570884L200.01581326802574,222.81620086430192L201.885119934082,222.40192349605147L203.75442660013834,222.79947389007313L205.62373326619465,222.24412845902785L207.49303993225098,227.8401653904887L209.3623465983073,236.69652667274698L211.2316532643636,229.19361467920243L213.10095993041992,217.40751593085267L214.97026659647625,219.4267362807502L216.83957326253255,228.61031886762706L218.70887992858889,232.61512436373334L220.57818659464516,231.61808465100825L222.4474932607015,222.53566719973315L224.31679992675782,218.44091791460787L226.18610659281413,210.07908063475276L228.05541325887046,220.10401292967464L229.92471992492673,226.16716312926496L231.79402659098307,223.70236798796628L233.6633332570394,221.19048562122188L235.5326399230957,212.6816070948183L237.40194658915203,198.34621943139646L239.27125325520834,196.78810775516706L241.14055992126464,198.48869737152899L243.00986658732097,200.07081558222214L244.87917325337727,200.9288397416733L246.7484799194336,206.79082032145496L248.6177865854899,201.29406285327642L250.4870932515462,198.1765614454662L252.35639991760254,193.54780335360746L254.22570658365885,193.7996574972845L256.0950132497152,180.2645539036012L257.9643199157715,179.820143883032L259.8336265818278,184.03164058941164L261.7029332478841,187.63405561040202L263.5722399139404,196.30820312000097L265.4415465799967,190.66849114431372L267.31085324605306,199.55317123925516L269.1801599121094,192.7648775618289L271.0494665781657,185.54302291629088L272.918773244222,201.14888050270645L274.7880799102783,200.5457599002245L276.65738657633466,195.5981882748101L278.52669324239093,197.48539611445523L280.39599990844727,192.05171958615247L282.26530657450354,186.81100675901195L284.13461324055993,179.7142094691607L286.0039199066162,175.20974200276382L287.87322657267254,183.10010404556036L289.74253323872887,180.8022609349656L291.61183990478514,177.25436589122197L293.4811465708415,181.4221697883028L295.35045323689775,186.6612994642838L297.21975990295414,191.7490805073284L299.0890665690104,188.7545285907485L300.9583732350667,195.8753857102806L302.8276799011231,189.95412456442023L304.69698656717935,187.52497780858036L306.5662932332357,190.83740776030348L308.435599899292,194.9945584069202L310.3049065653483,192.66269492527047L312.1742132314046,191.00722086878596L314.04351989746095,182.02518997950608L315.9128265635173,182.458780298607L317.78213322957356,185.58792503783496L319.65143989562984,183.81050560290635L321.5207465616862,182.44730766636292L323.3900532277425,180.20792812161645L325.25935989379883,174.98166833944123L327.12866655985516,174.57841870423113L328.99797322591144,185.90711987678458L330.86727989196777,227.81060431006364L332.7365865580241,224.07604624415865L334.60589322408043,213.87708833015145L336.4751998901367,217.805853137355L338.34450655619304,206.86749334394815L340.21381322224937,206.69211243006635L342.08311988830565,205.47422660636062L343.952426554362,180.47439957281205L345.8217332204183,170.24835893470794L347.6910398864746,176.26271131260856L349.5603465525309,174.99904927430512L351.42965321858725,179.43705992214612L353.2989598846436,189.15019400438737L355.16826655069985,188.56365814291442L357.0375732167562,185.952724877279L358.9068798828125,189.29517065666013L360.7761865488688,188.88422013613368L362.6454932149251,181.51675463811245L364.51479988098146,192.99588992857235L366.38410654703773,193.6208754731705L368.25341321309406,189.1977797943596L370.1227198791504,191.9692752323221L371.9920265452067,191.84646708927633L373.861333211263,186.73561925834989L375.73063987731933,180.37797075998324L377.59994654337567,182.18321621993533L379.46925320943194,183.2784545586411L381.33855987548833,185.32577564852184L383.2078665415446,186.49162860511268L385.0771732076009,179.8987664291193L386.9464798736572,172.0624725128157L388.81578653971354,168.339022508974L390.6850932057699,170.0797174198751L392.55439987182615,171.14290705309423L394.4237065378825,170.7648107006427L396.2930132039388,167.85837277062762L398.1623198699951,140.23989528538604L400.0316265360515,147.14488334631432L401.90093320210775,154.00043816238465L403.770239868164,154.0308519662835L405.6395465342204,184.03316787070588L407.5088532002767,170.09131775466844L409.378159866333,110.95243199006535L411.2474665323893,130.41530975271775L413.1167731984456,128.31736696038394L414.98607986450196,151.985761551577L416.85538653055823,154.42450125339846L418.7246931966146,169.87577232933953L420.5939998626709,157.85467205437217L422.4633065287272,166.23795924305858L424.33261319478356,187.0360683414408L426.20191986083984,191.83519605198393L428.07122652689617,197.83416722425403L429.9405331929525,193.7557875521916L431.8098398590088,189.9215368563393L433.6791465250651,154.97282304423686L435.5484531911214,159.97590202447117L437.41775985717777,157.05407593727546L439.28706652323405,152.43422818780235L441.1563731892903,178.11029943635933L443.0256798553467,181.3638184771147L444.894986521403,180.71628004440933L446.7642931874593,183.26035993130455L448.63359985351565,182.52250799010304L450.5029065195719,163.87328496006404L452.37221318562825,147.22826075264138L454.2415198516846,146.53565979781095L456.1108265177409,148.7903512901522L457.9801331837972,169.63584601570298L459.84943984985347,186.68423031074227L461.71874651590986,183.89668010700495L463.58805318196613,188.57042682858633L465.45735984802246,185.91351221326025L467.3266665140788,184.3417415135611L469.19597318013507,182.68187819687688L471.0652798461914,182.56975381387602L472.93458651224773,178.90952275105198L474.80389317830407,185.02977967690518L476.67319984436034,184.0918065126297L478.5425065104167,187.00531429778636L480.411813176473,155.97757022372275L482.2811198425293,154.91399336341883L484.1504265085856,149.34202630276675L486.01973317464194,146.56502726469364L487.8890398406982,174.83515541069718L489.75834650675455,146.45217116668297L491.6276531728109,149.76189992627886L493.4969598388672,143.4800096779107L495.3662665049235,140.7569258322293L497.2355731709798,202.0638795664342L499.10487983703615,204.7873599079337L500.9741865030924,198.25679469144845L502.84349316914876,186.78031128860331L504.7127998352051,146.96148600789135L506.58210650126136,151.7021094731451L508.4514131673177,167.81002087800096L510.320719833374,169.03794062055357L512.1900264994304,192.97703886960358L514.0593331654866,195.3010671819433L515.928639831543,191.04156088241118L517.7979464975992,167.93438256375228L519.6672531636556,129.45366424331093L521.5365598297119,111.76639979989619L523.4058664957682,134.7085829491925L525.2751731618246,139.71675561336565L527.1444798278808,159.4013950318878L529.0137864939372,182.2986819813308L530.8830931599935,176.51874153561687L532.7523998260498,177.56743589964069L534.6217064921061,171.9351829371658L536.4910131581624,175.02051772060324L538.3603198242188,178.0971800591459L540.2296264902751,180.38289966643927L542.0989331563314,179.61207008669152L543.9682398223877,181.921434232916L545.837546488444,167.7880766367211L547.7068531545003,163.15664503020292L549.5761598205567,160.84101676498162L551.4454664866129,155.02248491785227L553.3147731526693,177.4244790749486L555.1840798187255,179.92571475658173L557.0533864847819,184.92271293276883L558.9226931508382,181.5286505425157L560.7919998168945,185.34097920342865L562.6613064829509,186.39470185532787L564.5306131490071,144.20704500722175L566.3999198150635,133.26205497984833L568.2692264811199,117.2920891044871L570.1385331471761,122.95039132728357L572.0078398132324,150.28906428831803L573.8771464792887,167.96087466355908L575.7464531453451,191.19747166317177L577.6157598114014,192.54318001469855L579.4850664774577,190.08030015417333L581.354373143514,148.78688684357505L583.2236798095703,135.56466788364224L585.0929864756266,136.22640189649596L586.962293141683,150.83647156412655L588.8315998077393,156.9750816119925L590.7009064737955,111.84812943139463L592.5702131398518,114.3065518035437L594.4395198059083,127.42449133344866L596.3088264719645,142.569651160044L598.1781331380208,131.55218787627177L600.0474398040772,157.02950555486254L601.9167464701334,160.2830760885813L603.7860531361898,150.44609311004638L605.6553598022462,162.55726075714483L607.5246664683024,157.5620663794654L609.3939731343587,174.92156781228664L611.263279800415,166.02653531451972L613.1325864664714,162.4798524151344L615.0018931325277,180.87025893791585L616.871199798584,181.45707789804663L618.7405064646402,171.8852883153559L620.6098131306966,183.44732212758325L622.479119796753,149.3672084215848L624.3484264628092,169.93994903947635L626.2177331288656,107.46382079507691L628.0870397949219,107.26257805526024L629.9563464609781,77.59674034548573L631.8256531270346,100.14201573294355L633.6949597930908,103.82465241399944L635.5642664591471,85.18100298231815L637.4335731252035,84.74571030584747L639.3028797912597,92.10098167474968L641.1721864573161,119.39722031451066L643.0414931233724,120.61786719091356L644.9107997894287,132.67899809562311L646.780106455485,105.83856280951181L648.6494131215413,100.40649183180767L650.5187197875977,89.27004684709942L652.388026453654,79.90659933908842L654.2573331197103,70.13462725669729L656.1266397857665,72.42737410870495L657.9959464518229,77.400506841148L659.8652531178793,91.39032110779777L661.7345597839355,105.90466329676099L663.6038664499919,90.35843507688492L665.4731731160482,84.42192255202798L667.3424797821044,76.0338506371831L669.2117864481609,65.33053150504594L671.0810931142172,60.87368782077334L672.9503997802734,108.04099512316407L674.8197064463297,116.83565547696548L676.6890131123861,102.8589739756996L678.5583197784424,101.3761661240668L680.4276264444987,93.22727696446702L682.296933110555,104.96866128312422L684.1662397766113,81.86781389558223L686.0355464426676,100.09913239302927L687.904853108724,123.80750612100121L689.7741597747803,114.2675324956025L691.6434664408366,108.19136281514773L693.5127731068928,85.4727332768473L695.3820797729492,93.28686050226912L697.2513864390056,121.08683214600666L699.1206931050618,124.76670056535045L700.9899997711182,103.59728420427535L702.8593064371745,70.08882735533643L704.7286131032307,79.56678697506084L706.5979197692872,73.08600618544386L708.4672264353435,71.1547976085788L710.3365331013997,72.21383896866695L712.205839767456,80.3690555836086L714.0751464335124,78.80362830206985L715.9444530995687,97.17050923466564L717.813759765625,111.2814761455881L719.6830664316814,147.39029469041154L721.5523730977376,124.55753614804533L723.4216797637939,111.37523453333529L725.2909864298502,91.8607196269918L727.1602930959066,72.62803188845749L729.0295997619629,72.25286651548231L730.8989064280191,71.71547771063166L732.7682130940755,61.790600363020815L734.6375197601319,56.8069053939264L736.5068264261881,66.58849224244244L738.3761330922445,69.76360603741603L740.2454397583008,72.18142723778845L742.114746424357,65.9061239692976L743.9840530904135,76.51294116859793L745.8533597564698,83.67144350634305L747.722666422526,93.31092625364079L749.5919730885823,71.27581843086517L751.4612797546387,73.87641905409981L753.330586420695,64.32785228297001L755.1998930867513,79.19752887484617L757.0691997528077,71.05972923984285L758.9385064188639,93.0537333195191L760.8078130849202,81.05031984761825L762.6771197509767,61.542148874364784L764.5464264170329,69.59190790027611L766.4157330830892,76.39738271986835L768.2850397491455,95.21955207647989L770.1543464152018,71.10683912219247L772.0236530812582,55.96718286352467L773.8929597473144,67.5896802282985L775.7622664133708,69.09240143873495L777.6315730794271,67.09919533394395L779.5008797454833,93.4170841469732L781.3701864115397,63.03319560014063L783.2394930775961,71.8617506821663L785.1087997436523,83.06033325566096L786.9781064097086,115.92221150073226L788.847413075765,71.9151962587319L790.7167197418213,86.93617153536991L792.5860264078776,82.93345459385893L794.455333073934,55.74802881132115L796.3246397399902,78.84680000257913L798.1939464060465,74.35811306974387L800.063253072103,117.50834307299226L801.9325597381592,122.3959150974604L803.8018664042155,91.58220448658801L805.6711730702718,71.0748805293918L807.540479736328,63.487857869721495L809.4097864023845,61.79569198724113L811.2790930684408,56.36373635377504L813.148399734497,62.142177839324575L815.0177064005534,121.86594127933841L816.8870130666097,55.5347985096264L818.756319732666,59.88149668548141L820.6256263987224,73.35994875069827L822.4949330647786,59.84669568110138L824.3642397308349,60.53777244421536L826.2335463968913,67.3254512956587L828.1028530629476,73.2327405339305L829.9721597290039,88.99523096118588L831.8414663950603,62.21917835706495L833.7107730611165,83.28574885221315L835.5800797271728,72.55582639546833L837.4493863932292,78.29510851221625L839.3186930592855,79.93631695812218L841.1879997253418,54.607150714370675L843.0573063913981,59.89712582973067L844.9266130574543,62.89198129732978L846.7959197235108,59.024497236001764L848.6652263895671,81.65729418348059L850.5345330556233,61.13207539164574L852.4038397216797,62.22139461420943L854.273146387736,90.31518922650838L856.1424530537923,101.17515407272617L858.0117597198487,110.37779523521431L859.881066385905,105.91381668593385L861.7503730519612,124.89042373835574L863.6196797180176,99.85971894930816L865.4889863840739,79.33538171700667L867.3582930501302,92.10183027878634L869.2275997161865,114.94664641346083L871.0969063822428,52.56660403875401L872.9662130482991,53.70962424298165L874.8355197143555,68.43443671080166L876.7048263804118,66.2659979918634L878.5741330464681,68.05937844319033L880.4434397125244,105.78742411770622L882.3127463785806,64.39218965115259L884.1820530446371,62.84610724610161L886.0513597106934,55.59565083404658L887.9206663767496,87.52866193048891L889.789973042806,56.966723074552135L891.6592797088623,58.10434681621615L893.5285863749186,97.14551249051584L895.397893040975,63.44373869868576L897.2671997070313,132.49505287206964L899.1365063730875,67.54664034977554L901.0058130391438,60.132955363199585L902.8751197052003,52.64517818145572L904.7444263712565,51.457676295730096L906.6137330373128,53.39550068853191L908.4830397033692,61.53013659586429L910.3523463694254,66.51309006628583L912.2216530354818,56.87064956317073L914.090959701538,68.63703062597779L915.9602663675944,60.888863826944714L917.8295730336507,58.15030325618574L919.6988796997069,106.61079248293419L921.5681863657634,144.62570751623485L923.4374930318197,67.40065573883595L925.3067996978759,60.141597942175565L927.1761063639323,60.20677567552076L929.0454130299886,106.67148002987147L930.9147196960449,70.46832637611078L932.7840263621013,55.982671946913456L934.6533330281576,58.834723008992114L936.5226396942138,57.01782881086109L938.3919463602701,74.32759627991823L940.2612530263266,54.629511018794744L942.1305596923828,54.60850188973012L943.9998663584391,65.06708526544969L945.8691730244955,74.9710523504857L947.7384796905517,53.55869630755626L949.6077863566081,55.657879050448514L951.4770930226645,51.36199001143336L953.3463996887207,51.595603287757854L955.215706354777,57.875643908880875L957.0850130208333,53.093545951191345L958.9543196868897,59.34770002975711L960.823626352946,65.82488043137363L962.6929330190022,56.37998341358502L964.5622396850586,102.34111130256787L966.4315463511149,71.2193821429857L968.3008530171712,110.21726901141227L970.1701596832276,75.00993159756649L972.0394663492839,49.98936886258889L973.9087730153401,48.33727686394002L975.7780796813964,53.29094937565736L977.6473863474529,51.43765583156261L979.5166930135091,101.9157959026843L981.3859996795654,85.07116231224381L983.2553063456218,61.96539631683845L985.124613011678,54.42189139039141L986.9939196777344,52.744398942759744L988.8632263437908,64.5823840607435L990.732533009847,53.70036374844494L992.6018396759033,71.30314677639751L994.4711463419596,95.42296164019615L996.340453008016,58.967228821833885L998.2097596740723,65.09317777986053L1000.0790663401286,48.18380311640442L1001.9483730061849,78.60584588939321L1003.8176796722412,58.08199475066618L1005.6869863382975,74.48538719750474L1007.5562930043538,47.32921765704873L1009.4255996704102,63.48760246462308L1011.2949063364664,63.201746487357866L1013.1642130025227,123.27298444435232L1015.0335196685792,52.25565245084931L1016.9028263346354,83.47400712638046L1018.7721330006917,80.93260281386318L1020.641439666748,62.57054162264103L1022.5107463328043,71.36506191558203L1024.3800529988607,74.99452490291907L1026.249359664917,56.37729754061439" fill="none"></path></g><g><path style="fill: none;" stroke="rgb(255, 112, 67)" stroke-width="2px" d="M97.20394663492839,267.2539506256534L99.0732533009847,271.92784744922307L100.942559967041,254.7973702398286L102.81186663309732,245.8225051113346L104.68117329915366,269.1901766768715L106.55047996520996,215.39604424208665L108.41978663126628,238.93224815737398L110.28909329732258,273.1522594911093L112.15839996337891,246.17066757430615L114.02770662943523,244.35767860251886L115.89701329549153,247.44014625775452L117.76631996154785,243.94446610875136L119.63562662760417,263.4144210642926L121.50493329366049,224.07413482535748L123.3742399597168,242.40613236483188L125.2435466257731,224.19698055826652L127.11285329182942,229.5785348791629L128.98215995788576,237.40676705711755L130.85146662394206,195.40437442482224L132.72077328999836,222.19892175660527L134.5900799560547,203.48081246999746L136.459386622111,211.44746700228774L138.32869328816733,236.7900131776475L140.19799995422363,215.23280536897306L142.06730662027996,209.31526079211181L143.93661328633627,213.6157615409285L145.80591995239257,190.39201975962703L147.67522661844887,200.14390675418167L149.5445332845052,182.14551255720886L151.41383995056154,193.2368476462657L153.28314661661784,194.38579778015773L155.15245328267414,205.65008640480198L157.02175994873048,203.31587638881044L158.89106661478678,209.96544596313558L160.7603732808431,200.935693455101L162.62967994689942,209.45463988570728L164.49898661295572,214.02365378171817L166.36829327901205,222.57699133271583L168.23759994506835,234.088012610898L170.10690661112469,228.43012233180866L171.976213277181,229.50507295786693L173.8455199432373,221.13941490012803L175.71482660929362,228.37638427521102L177.58413327534993,222.11251656403067L179.45343994140626,232.131914395247L181.32274660746256,235.63531436932215L183.19205327351887,237.804824141899L185.0613599395752,243.15337765241566L186.9306666056315,242.6789256071433L188.79997327168783,243.72393616456597L190.66927993774416,246.05020699546148L192.53858660380044,236.1154594766273L194.40789326985677,235.31389941125585L196.27719993591307,228.05654294210603L198.1465066019694,216.90215986867L200.01581326802574,215.01130529735732L201.885119934082,217.07219375323302L203.75442660013834,212.580266883141L205.62373326619465,219.15255478814566L207.49303993225098,221.47857845281686L209.3623465983073,215.37288270715217L211.2316532643636,215.18495604766912L213.10095993041992,209.45558117707813L214.97026659647625,206.65294894182762L216.83957326253255,205.92025865527668L218.70887992858889,214.7285224201475L220.57818659464516,221.22567591240514L222.4474932607015,219.6026527214513L224.31679992675782,223.22683459046266L226.18610659281413,217.96008898074885L228.05541325887046,220.2573445566313L229.92471992492673,222.86159500111128L231.79402659098307,221.93560939871386L233.6633332570394,218.16289092749707L235.5326399230957,216.61042133526672L237.40194658915203,219.03305403813866L239.27125325520834,218.988823642302L241.14055992126464,215.6032725239682L243.00986658732097,213.54346336060524L244.87917325337727,204.3883265165663L246.7484799194336,197.21990560421224L248.6177865854899,198.61204670562L250.4870932515462,197.2277598259187L252.35639991760254,201.92727388384708L254.22570658365885,195.23044149307103L256.0950132497152,188.57526143855316L257.9643199157715,197.231530655628L259.8336265818278,191.19162309238953L261.7029332478841,193.66672738242443L263.5722399139404,204.51455842674812L265.4415465799967,207.5010153920177L267.31085324605306,197.89366013444058L269.1801599121094,180.234884687953L271.0494665781657,164.97586053112377L272.918773244222,160.91343852841703L274.7880799102783,165.80261919306156L276.65738657633466,190.3099050894948L278.52669324239093,198.46286232193512L280.39599990844727,203.4580453711626L282.26530657450354,203.2872638087711L284.13461324055993,204.96259664151805L286.0039199066162,211.09019852366967L287.87322657267254,211.5927451297696L289.74253323872887,213.43084001078913L291.61183990478514,207.41527754824872L293.4811465708415,184.7395998355038L295.35045323689775,176.72431277393642L297.21975990295414,166.57540705020716L299.0890665690104,157.64127079603904L300.9583732350667,160.75235412089182L302.8276799011231,154.22548300960042L304.69698656717935,156.71694326706287L306.5662932332357,164.18488535930754L308.435599899292,172.11515805324163L310.3049065653483,138.5556469609571L312.1742132314046,124.64883523186086L314.04351989746095,120.29516284904383L315.9128265635173,153.02873298764928L317.78213322957356,149.20580887712362L319.65143989562984,163.48329785250561L321.5207465616862,164.9805299130443L323.3900532277425,163.62947813670618L325.25935989379883,149.01417678399477L327.12866655985516,154.71539942163915L328.99797322591144,149.82342371894163L330.86727989196777,148.34181050405954L332.7365865580241,160.79492438358866L334.60589322408043,138.06783970069898L336.4751998901367,121.88618007367069L338.34450655619304,92.93612339112792L340.21381322224937,119.53666325938076L342.08311988830565,144.67399967702397L343.952426554362,167.2771140206841L345.8217332204183,144.3534292035573L347.6910398864746,145.15106344539961L349.5603465525309,139.46395399916216L351.42965321858725,83.07640729911395L353.2989598846436,118.51386470664761L355.16826655069985,114.62095547971433L357.0375732167562,98.18470640279355L358.9068798828125,103.17444870550884L360.7761865488688,153.21540939798115L362.6454932149251,142.2382506865164L364.51479988098146,95.93955552670991L366.38410654703773,73.66231543174598L368.25341321309406,118.50681223038117L370.1227198791504,129.99154326117306L371.9920265452067,89.18087751224988L373.861333211263,75.57964150568006L375.73063987731933,130.83296711908537L377.59994654337567,73.70744798430127L379.46925320943194,86.47220757688166L381.33855987548833,150.89712615556724L383.2078665415446,127.9516680537991L385.0771732076009,128.99261684626921L386.9464798736572,144.9042638510093L388.81578653971354,106.46142169472182L390.6850932057699,110.34077797368985L392.55439987182615,120.57212496167165L394.4237065378825,80.41011813233723L396.2930132039388,83.27388487344723L398.1623198699951,75.6248482081026L400.0316265360515,136.65984906515862L401.90093320210775,137.15586224406317L403.770239868164,144.86196135172213L405.6395465342204,123.0846890952514L407.5088532002767,94.3500130605546L409.378159866333,88.99109504636613L411.2474665323893,79.45949211709666L413.1167731984456,96.03684839146445L414.98607986450196,87.10840519932913L416.85538653055823,95.6743379291729L418.7246931966146,135.36033556602194L420.5939998626709,104.01419595253304L422.4633065287272,74.02991751825789L424.33261319478356,70.08016829861214L426.20191986083984,154.76569362884504L428.07122652689617,109.57478512799366L429.9405331929525,109.39546603227149L431.8098398590088,124.1351908622903L433.6791465250651,81.73701352968811L435.5484531911214,116.88384465182781L437.41775985717777,126.79032871291449L439.28706652323405,120.88597663327471L441.1563731892903,70.16537473499892L443.0256798553467,113.24163612619157L444.894986521403,71.31902308687103L446.7642931874593,68.28621936496927L448.63359985351565,70.76228940553267L450.5029065195719,84.19752857586951L452.37221318562825,90.93371446391916L454.2415198516846,69.43355673924788L456.1108265177409,78.1715748333163L457.9801331837972,82.24413271093744L459.84943984985347,103.2613935443398L461.71874651590986,79.59772394746773L463.58805318196613,93.6525429311057L465.45735984802246,116.01142202995248L467.3266665140788,114.4513005833619L469.19597318013507,106.85930988258332L471.0652798461914,105.78753122307012L472.93458651224773,75.1357721612265L474.80389317830407,92.5621361771552L476.67319984436034,114.03443002947489L478.5425065104167,85.3355313057441L480.411813176473,110.53268606910251L482.2811198425293,150.93352550153097L484.1504265085856,92.98755868240261L486.01973317464194,75.24755720559858L487.8890398406982,81.23202821684185L489.75834650675455,117.66250064708174L491.6276531728109,129.49716137934882L493.4969598388672,138.37704464728537L495.3662665049235,89.76936381453532L497.2355731709798,101.26363958102189L499.10487983703615,148.5890549976536L500.9741865030924,104.05540680099625L502.84349316914876,119.91974207097024L504.7127998352051,97.57204724377254L506.58210650126136,78.87317263871086L508.4514131673177,91.89967302393984L510.320719833374,100.06848378121737L512.1900264994304,108.53132347890988L514.0593331654866,121.70961688134935L515.928639831543,138.5209283453185L517.7979464975992,133.54601189662355L519.6672531636556,111.62748414297124L521.5365598297119,116.19135904123544L523.4058664957682,92.28376109761189L525.2751731618246,104.2188825417415L527.1444798278808,70.14476931076729L529.0137864939372,75.52627831785588L530.8830931599935,66.61511204479848L532.7523998260498,56.113422879562734L534.6217064921061,93.19361292471876L536.4910131581624,92.32984112069363L538.3603198242188,94.05406446246434L540.2296264902751,75.4506124977267L542.0989331563314,69.38365387856379L543.9682398223877,68.24458009505065L545.837546488444,67.8636227935529L547.7068531545003,94.41721755693897L549.5761598205567,99.72336558224168L551.4454664866129,120.79064874000323L553.3147731526693,92.63568460662964L555.1840798187255,72.23724561010721L557.0533864847819,91.9708816131577L558.9226931508382,82.81859644943148L560.7919998168945,63.695304481767835L562.6613064829509,127.20509835389498L564.5306131490071,129.74334305817845L566.3999198150635,121.08136153357566L568.2692264811199,104.17439262136935L570.1385331471761,93.07205657561309L572.0078398132324,76.4351744355622L573.8771464792887,76.63845217729221L575.7464531453451,83.05230035337155L577.6157598114014,68.2895066757523L579.4850664774577,58.20053567183555L581.354373143514,59.45190530991766L583.2236798095703,65.48779513468736L585.0929864756266,77.81189854372991L586.962293141683,83.01384952774623L588.8315998077393,73.45165565878386L590.7009064737955,89.67931292015248L592.5702131398518,102.80132657332115L594.4395198059083,63.7765974529367L596.3088264719645,97.87157975211505L598.1781331380208,122.98747861923823L600.0474398040772,110.64549273386831L601.9167464701334,116.82984707069465L603.7860531361898,92.73628125991559L605.6553598022462,92.28179200669166L607.5246664683024,81.24444420017534L609.3939731343587,88.70916901206715L611.263279800415,81.85461521920513L613.1325864664714,64.72570751533493L615.0018931325277,98.0571027200669L616.871199798584,100.70632093961933L618.7405064646402,91.62302810796655L620.6098131306966,75.75334992811082L622.479119796753,79.56838531664454L624.3484264628092,117.27320560495139L626.2177331288656,92.5121014944848L628.0870397949219,64.54328236406087L629.9563464609781,85.60256969446664L631.8256531270346,68.1307682876394L633.6949597930908,98.88448341700246L635.5642664591471,110.63273895669494L637.4335731252035,96.67598729198102L639.3028797912597,78.36486705958492L641.1721864573161,66.12623373090173L643.0414931233724,88.60452707157702L644.9107997894287,93.83138417212757L646.780106455485,84.75714586315792L648.6494131215413,113.07703165968877L650.5187197875977,88.83485303711842L652.388026453654,98.24829403342915L654.2573331197103,94.35587090007027L656.1266397857665,64.02308808954666L657.9959464518229,56.00686952027144L659.8652531178793,82.86592878138299L661.7345597839355,113.5035252185748L663.6038664499919,55.83600350941998L665.4731731160482,65.85093999028788L667.3424797821044,127.35548252362702L669.2117864481609,86.2673314935679L671.0810931142172,68.60767551740634L672.9503997802734,61.83435702359418L674.8197064463297,94.50273707054322L676.6890131123861,102.38780100233618L678.5583197784424,85.16926258666439L680.4276264444987,63.04753124114944L682.296933110555,78.65507316239763L684.1662397766113,109.48856531008732L686.0355464426676,76.7471229272382L687.904853108724,66.03451034506782L689.7741597747803,116.9120545568934L691.6434664408366,96.32188872018946L693.5127731068928,64.78982243391567L695.3820797729492,75.06173763817759L697.2513864390056,101.23481999926969L699.1206931050618,75.1467957748298L700.9899997711182,105.10123300695909L702.8593064371745,115.7808653759351L704.7286131032307,78.09687296146177L706.5979197692872,143.53731928644936L708.4672264353435,86.2966866021394L710.3365331013997,86.42608635942918L712.205839767456,66.01017271084942L714.0751464335124,51.53185087963942L715.9444530995687,57.64444462268034L717.813759765625,91.9933407840715L719.6830664316814,86.7045932609588L721.5523730977376,56.7819168886507L723.4216797637939,60.9896829298325L725.2909864298502,78.32897852381808L727.1602930959066,64.11367451074881L729.0295997619629,92.67765343151405L730.8989064280191,110.8940183723916L732.7682130940755,105.49009962763404L734.6375197601319,90.30216356648833L736.5068264261881,131.34983700788288L738.3761330922445,69.74617257972949L740.2454397583008,101.29803688056882L742.114746424357,105.51531882138573L743.9840530904135,90.36828053148582L745.8533597564698,135.1218984288868L747.722666422526,85.11214247223103L749.5919730885823,119.38540576898959L751.4612797546387,94.50949294734045L753.330586420695,128.47790554249718L755.1998930867513,83.07082958131912L757.0691997528077,63.754064132155634L758.9385064188639,70.64203479854154L760.8078130849202,87.76106409231431L762.6771197509767,51.79350104467244L764.5464264170329,54.73895622291019L766.4157330830892,82.412065682594L768.2850397491455,107.95133145586584L770.1543464152018,90.41295170708912L772.0236530812582,79.98288307477839L773.8929597473144,102.75692728056453L775.7622664133708,55.16462589438191L777.6315730794271,137.27811065859686L779.5008797454833,128.46299318029835L781.3701864115397,106.56678041726235L783.2394930775961,79.8780022069381L785.1087997436523,124.26306230842661L786.9781064097086,117.82983218092585L788.847413075765,175.61520480554054L790.7167197418213,135.44874692445038L792.5860264078776,110.15903664896962L794.455333073934,95.14270809734825L796.3246397399902,139.07624494030432L798.1939464060465,159.0669399957717L800.063253072103,130.60877087590634L801.9325597381592,119.98367985375694L803.8018664042155,170.03371360637917L805.6711730702718,100.5672487440857L807.540479736328,117.4276927340066L809.4097864023845,123.85723184589119L811.2790930684408,114.58289188117368L813.148399734497,140.5120211788919L815.0177064005534,148.97472493516105L816.8870130666097,164.7103628118659L818.756319732666,161.79396614273048L820.6256263987224,129.65757225891284L822.4949330647786,146.68003370885563L824.3642397308349,114.58479506110075L826.2335463968913,107.25411673151541L828.1028530629476,153.09444212837667L829.9721597290039,144.52862062333386L831.8414663950603,166.62462608433734L833.7107730611165,133.17167453049973L835.5800797271728,139.19467051723566L837.4493863932292,135.2574649834726L839.3186930592855,136.70338739556723L841.1879997253418,124.02836150071525L843.0573063913981,99.78210875488122L844.9266130574543,122.34602047565045L846.7959197235108,113.47929468972023L848.6652263895671,134.05009505275115L850.5345330556233,164.64964230943207L852.4038397216797,70.99777290628754L854.273146387736,145.94605300864202L856.1424530537923,123.2184183809033L858.0117597198487,141.99922035044293L859.881066385905,151.94516861867453L861.7503730519612,138.981675023454L863.6196797180176,49.79771617227465L865.4889863840739,132.62842788613344L867.3582930501302,88.29736536577809L869.2275997161865,152.89836928208476L871.0969063822428,130.07450048491881L872.9662130482991,81.1575240779668L874.8355197143555,149.696915806476L876.7048263804118,184.4764115756542L878.5741330464681,133.86861325256643L880.4434397125244,162.27283422454346L882.3127463785806,202.98941100089448L884.1820530446371,174.09746618726L886.0513597106934,171.71708861014892L887.9206663767496,183.29673456064583L889.789973042806,126.93240397807327L891.6592797088623,177.44926263822998L893.5285863749186,169.85689294924086L895.397893040975,165.85815950337795L897.2671997070313,154.8648361208447L899.1365063730875,138.13836034392588L901.0058130391438,183.45814028426264L902.8751197052003,148.35394224623508L904.7444263712565,121.88857758604632L906.6137330373128,178.80921033892403L908.4830397033692,144.97211509901388L910.3523463694254,183.86843776137243L912.2216530354818,105.90115353637606L914.090959701538,188.8945148829317L915.9602663675944,180.7465512127996L917.8295730336507,152.29077291122462L919.6988796997069,159.18690624216777L921.5681863657634,130.7521025693719L923.4374930318197,202.416049211817L925.3067996978759,190.39105053332355L927.1761063639323,150.26723539127622L929.0454130299886,171.34378316301155L930.9147196960449,196.89288872665836L932.7840263621013,167.52912676268838L934.6533330281576,153.9703044802067L936.5226396942138,178.78788504306416L938.3919463602701,146.84413560403567L940.2612530263266,241.26018324084637L942.1305596923828,209.22234276952716L943.9998663584391,208.33489244121506L945.8691730244955,233.2737564404722L947.7384796905517,221.83188403297217L949.6077863566081,231.86322411225876L951.4770930226645,235.92126097420288L953.3463996887207,257.7128812299936L955.215706354777,217.43130567994055L957.0850130208333,270.4732742192782L958.9543196868897,214.98261547787288L960.823626352946,267.8123320818204L962.6929330190022,249.7550186062732L964.5622396850586,238.09248031316443L966.4315463511149,247.14217913549916L968.3008530171712,276.33277798752067L970.1701596832276,262.60936771628445L972.0394663492839,262.2757674633607L973.9087730153401,314.5188144367712L975.7780796813964,239.9935057746066L977.6473863474529,280.30681540814L979.5166930135091,272.9333855606266L981.3859996795654,268.7451291734155L983.2553063456218,250.14806645557576L985.124613011678,289.42822951045235L986.9939196777344,324.66497970498864L988.8632263437908,236.9007106906327L990.732533009847,251.54342277761782L992.6018396759033,286.31119153931274L994.4711463419596,305.0300454141712L996.340453008016,325.327500530323L998.2097596740723,250.29426115780603L1000.0790663401286,333.0414100906695L1001.9483730061849,269.2520835771819L1003.8176796722412,288.0113573685859L1005.6869863382975,261.93169560140115L1007.5562930043538,292.9201280162239L1009.4255996704102,309.96332671238457L1011.2949063364664,312.2597728188825L1013.1642130025227,353.8772591543174L1015.0335196685792,271.2535450338642L1016.9028263346354,242.32856336477562L1018.7721330006917,289.70370450629736L1020.641439666748,290.98021094938974L1022.5107463328043,350.8610897193104L1024.3800529988607,300.7256620959146L1026.249359664917,263.8175656538573" fill="none"></path></g></g></g></g></g></g><g transform="translate(51, 377)" clip-path="url(#clip_1)"><clipPath id="clip_1"><rect width="1121" height="22"></rect></clipPath><g><g><line x1="0" y1="0" x2="0" y2="5" style="visibility: inherit;" fill="rgb(0, 0, 0)" stroke="rgb(204, 204, 204)" stroke-width="1px"></line><line x1="93.46533330281575" y1="0" x2="93.46533330281575" y2="5" style="visibility: inherit;" fill="rgb(0, 0, 0)" stroke="rgb(204, 204, 204)" stroke-width="1px"></line><line x1="186.9306666056315" y1="0" x2="186.9306666056315" y2="5" style="visibility: inherit;" fill="rgb(0, 0, 0)" stroke="rgb(204, 204, 204)" stroke-width="1px"></line><line x1="280.39599990844727" y1="0" x2="280.39599990844727" y2="5" style="visibility: inherit;" fill="rgb(0, 0, 0)" stroke="rgb(204, 204, 204)" stroke-width="1px"></line><line x1="373.861333211263" y1="0" x2="373.861333211263" y2="5" style="visibility: inherit;" fill="rgb(0, 0, 0)" stroke="rgb(204, 204, 204)" stroke-width="1px"></line><line x1="467.3266665140788" y1="0" x2="467.3266665140788" y2="5" style="visibility: inherit;" fill="rgb(0, 0, 0)" stroke="rgb(204, 204, 204)" stroke-width="1px"></line><line x1="560.7919998168945" y1="0" x2="560.7919998168945" y2="5" style="visibility: inherit;" fill="rgb(0, 0, 0)" stroke="rgb(204, 204, 204)" stroke-width="1px"></line><line x1="654.2573331197103" y1="0" x2="654.2573331197103" y2="5" style="visibility: inherit;" fill="rgb(0, 0, 0)" stroke="rgb(204, 204, 204)" stroke-width="1px"></line><line x1="747.722666422526" y1="0" x2="747.722666422526" y2="5" style="visibility: inherit;" fill="rgb(0, 0, 0)" stroke="rgb(204, 204, 204)" stroke-width="1px"></line><line x1="841.1879997253418" y1="0" x2="841.1879997253418" y2="5" style="visibility: inherit;" fill="rgb(0, 0, 0)" stroke="rgb(204, 204, 204)" stroke-width="1px"></line><line x1="934.6533330281576" y1="0" x2="934.6533330281576" y2="5" style="visibility: inherit;" fill="rgb(0, 0, 0)" stroke="rgb(204, 204, 204)" stroke-width="1px"></line><line x1="1028.1186663309732" y1="0" x2="1028.1186663309732" y2="5" style="visibility: inherit;" fill="rgb(0, 0, 0)" stroke="rgb(204, 204, 204)" stroke-width="1px"></line><line x1="1121.583999633789" y1="0" x2="1121.583999633789" y2="5" style="visibility: inherit;" fill="rgb(0, 0, 0)" stroke="rgb(204, 204, 204)" stroke-width="1px"></line></g><g transform="translate(0, 8)"><text style="text-anchor: middle; visibility: hidden; font-family: &quot;Helvetica Neue&quot;, sans-serif; font-size: 12px; font-weight: 200;" x="0" y="0" dx="0em" dy="0.95em" fill="rgb(50, 49, 63)" stroke="none" stroke-width="1px">-50k</text><text style="text-anchor: middle; visibility: inherit; font-family: &quot;Helvetica Neue&quot;, sans-serif; font-size: 12px; font-weight: 200;" x="93.46533330281575" y="0" dx="0em" dy="0.95em" fill="rgb(50, 49, 63)" stroke="none" stroke-width="1px">0</text><text style="text-anchor: middle; visibility: inherit; font-family: &quot;Helvetica Neue&quot;, sans-serif; font-size: 12px; font-weight: 200;" x="186.9306666056315" y="0" dx="0em" dy="0.95em" fill="rgb(50, 49, 63)" stroke="none" stroke-width="1px">50k</text><text style="text-anchor: middle; visibility: inherit; font-family: &quot;Helvetica Neue&quot;, sans-serif; font-size: 12px; font-weight: 200;" x="280.39599990844727" y="0" dx="0em" dy="0.95em" fill="rgb(50, 49, 63)" stroke="none" stroke-width="1px">100k</text><text style="text-anchor: middle; visibility: inherit; font-family: &quot;Helvetica Neue&quot;, sans-serif; font-size: 12px; font-weight: 200;" x="373.861333211263" y="0" dx="0em" dy="0.95em" fill="rgb(50, 49, 63)" stroke="none" stroke-width="1px">150k</text><text style="text-anchor: middle; visibility: inherit; font-family: &quot;Helvetica Neue&quot;, sans-serif; font-size: 12px; font-weight: 200;" x="467.3266665140788" y="0" dx="0em" dy="0.95em" fill="rgb(50, 49, 63)" stroke="none" stroke-width="1px">200k</text><text style="text-anchor: middle; visibility: inherit; font-family: &quot;Helvetica Neue&quot;, sans-serif; font-size: 12px; font-weight: 200;" x="560.7919998168945" y="0" dx="0em" dy="0.95em" fill="rgb(50, 49, 63)" stroke="none" stroke-width="1px">250k</text><text style="text-anchor: middle; visibility: inherit; font-family: &quot;Helvetica Neue&quot;, sans-serif; font-size: 12px; font-weight: 200;" x="654.2573331197103" y="0" dx="0em" dy="0.95em" fill="rgb(50, 49, 63)" stroke="none" stroke-width="1px">300k</text><text style="text-anchor: middle; visibility: inherit; font-family: &quot;Helvetica Neue&quot;, sans-serif; font-size: 12px; font-weight: 200;" x="747.722666422526" y="0" dx="0em" dy="0.95em" fill="rgb(50, 49, 63)" stroke="none" stroke-width="1px">350k</text><text style="text-anchor: middle; visibility: inherit; font-family: &quot;Helvetica Neue&quot;, sans-serif; font-size: 12px; font-weight: 200;" x="841.1879997253418" y="0" dx="0em" dy="0.95em" fill="rgb(50, 49, 63)" stroke="none" stroke-width="1px">400k</text><text style="text-anchor: middle; visibility: inherit; font-family: &quot;Helvetica Neue&quot;, sans-serif; font-size: 12px; font-weight: 200;" x="934.6533330281576" y="0" dx="0em" dy="0.95em" fill="rgb(50, 49, 63)" stroke="none" stroke-width="1px">450k</text><text style="text-anchor: middle; visibility: inherit; font-family: &quot;Helvetica Neue&quot;, sans-serif; font-size: 12px; font-weight: 200;" x="1028.1186663309732" y="0" dx="0em" dy="0.95em" fill="rgb(50, 49, 63)" stroke="none" stroke-width="1px">500k</text><text style="text-anchor: middle; visibility: hidden; font-family: &quot;Helvetica Neue&quot;, sans-serif; font-size: 12px; font-weight: 200;" x="1121.583999633789" y="0" dx="0em" dy="0.95em" fill="rgb(50, 49, 63)" stroke="none" stroke-width="1px">550k</text></g><line x1="0" y1="0" x2="1121.583999633789" y2="0" fill="rgb(0, 0, 0)" stroke="rgb(204, 204, 204)" stroke-width="1px"></line></g></g></g></g></svg>