<svg viewBox="0 0 898.5 400" xmlns="http://www.w3.org/2000/svg"><g><g><g><g><g><line x1="51.53200149536133" y1="376.0999994277954" x2="46.53200149536133" y2="376.0999994277954" style="visibility: inherit;" fill="rgb(0, 0, 0)" stroke="rgb(204, 204, 204)" stroke-width="1px"></line><line x1="51.53200149536133" y1="329.087499499321" x2="46.53200149536133" y2="329.087499499321" style="visibility: inherit;" fill="rgb(0, 0, 0)" stroke="rgb(204, 204, 204)" stroke-width="1px"></line><line x1="51.53200149536133" y1="282.07499957084656" x2="46.53200149536133" y2="282.07499957084656" style="visibility: inherit;" fill="rgb(0, 0, 0)" stroke="rgb(204, 204, 204)" stroke-width="1px"></line><line x1="51.53200149536133" y1="235.06249964237213" x2="46.53200149536133" y2="235.06249964237213" style="visibility: inherit;" fill="rgb(0, 0, 0)" stroke="rgb(204, 204, 204)" stroke-width="1px"></line><line x1="51.53200149536133" y1="188.0499997138977" x2="46.53200149536133" y2="188.0499997138977" style="visibility: inherit;" fill="rgb(0, 0, 0)" stroke="rgb(204, 204, 204)" stroke-width="1px"></line><line x1="51.53200149536133" y1="141.03749978542328" x2="46.53200149536133" y2="141.03749978542328" style="visibility: inherit;" fill="rgb(0, 0, 0)" stroke="rgb(204, 204, 204)" stroke-width="1px"></line><line x1="51.53200149536133" y1="94.02499985694885" x2="46.53200149536133" y2="94.02499985694885" style="visibility: inherit;" fill="rgb(0, 0, 0)" stroke="rgb(204, 204, 204)" stroke-width="1px"></line><line x1="51.53200149536133" y1="47.012499928474426" x2="46.53200149536133" y2="47.012499928474426" style="visibility: inherit;" fill="rgb(0, 0, 0)" stroke="rgb(204, 204, 204)" stroke-width="1px"></line><line x1="51.53200149536133" y1="0" x2="46.53200149536133" y2="0" style="visibility: inherit;" fill="rgb(0, 0, 0)" stroke="rgb(204, 204, 204)" stroke-width="1px"></line></g><g transform="translate(41.53200149536133, 0)"><text style="text-anchor: end; visibility: hidden; font-family: Roboto, sans-serif; font-size: 12px; font-weight: 200;" x="0" y="376.0999994277954" dx="0em" dy="0.3em" fill="rgb(50, 49, 63)" stroke="none" stroke-width="1px">-400</text><text style="text-anchor: end; visibility: inherit; font-family: Roboto, sans-serif; font-size: 12px; font-weight: 200;" x="0" y="329.087499499321" dx="0em" dy="0.3em" fill="rgb(50, 49, 63)" stroke="none" stroke-width="1px">-300</text><text style="text-anchor: end; visibility: inherit; font-family: Roboto, sans-serif; font-size: 12px; font-weight: 200;" x="0" y="282.07499957084656" dx="0em" dy="0.3em" fill="rgb(50, 49, 63)" stroke="none" stroke-width="1px">-200</text><text style="text-anchor: end; visibility: inherit; font-family: Roboto, sans-serif; font-size: 12px; font-weight: 200;" x="0" y="235.06249964237213" dx="0em" dy="0.3em" fill="rgb(50, 49, 63)" stroke="none" stroke-width="1px">-100</text><text style="text-anchor: end; visibility: inherit; font-family: Roboto, sans-serif; font-size: 12px; font-weight: 200;" x="0" y="188.0499997138977" dx="0em" dy="0.3em" fill="rgb(50, 49, 63)" stroke="none" stroke-width="1px">0</text><text style="text-anchor: end; visibility: inherit; font-family: Roboto, sans-serif; font-size: 12px; font-weight: 200;" x="0" y="141.03749978542328" dx="0em" dy="0.3em" fill="rgb(50, 49, 63)" stroke="none" stroke-width="1px">100</text><text style="text-anchor: end; visibility: inherit; font-family: Roboto, sans-serif; font-size: 12px; font-weight: 200;" x="0" y="94.02499985694885" dx="0em" dy="0.3em" fill="rgb(50, 49, 63)" stroke="none" stroke-width="1px">200</text><text style="text-anchor: end; visibility: inherit; font-family: Roboto, sans-serif; font-size: 12px; font-weight: 200;" x="0" y="47.012499928474426" dx="0em" dy="0.3em" fill="rgb(50, 49, 63)" stroke="none" stroke-width="1px">300</text><text style="text-anchor: end; visibility: hidden; font-family: Roboto, sans-serif; font-size: 12px; font-weight: 200;" x="0" y="0" dx="0em" dy="0.3em" fill="rgb(50, 49, 63)" stroke="none" stroke-width="1px">400</text></g><line x1="51.53200149536133" y1="0" x2="51.53200149536133" y2="376.0999994277954" fill="rgb(0, 0, 0)" stroke="rgb(204, 204, 204)" stroke-width="1px"></line></g></g><g transform="translate(51, 0)" clip-path="url(#clip_0)"><clipPath id="clip_0"><rect width="846" height="376"></rect></clipPath><g><g><g><line x1="0" y1="0" x2="0" y2="376.0999994277954" fill="rgb(0, 0, 0)" stroke="rgb(60, 60, 60)" stroke-width="1px" opacity="0.25"></line><line x1="65.15138450035683" y1="0" x2="65.15138450035683" y2="376.0999994277954" fill="rgb(0, 0, 0)" stroke="rgb(60, 60, 60)" stroke-width="1px" opacity="0.25"></line><line x1="130.30276900071365" y1="0" x2="130.30276900071365" y2="376.0999994277954" fill="rgb(0, 0, 0)" stroke="rgb(60, 60, 60)" stroke-width="1px" opacity="0.25"></line><line x1="195.45415350107046" y1="0" x2="195.45415350107046" y2="376.0999994277954" fill="rgb(0, 0, 0)" stroke="rgb(60, 60, 60)" stroke-width="1px" opacity="0.25"></line><line x1="260.6055380014273" y1="0" x2="260.6055380014273" y2="376.0999994277954" fill="rgb(0, 0, 0)" stroke="rgb(60, 60, 60)" stroke-width="1px" opacity="0.25"></line><line x1="325.7569225017841" y1="0" x2="325.7569225017841" y2="376.0999994277954" fill="rgb(0, 0, 0)" stroke="rgb(60, 60, 60)" stroke-width="1px" opacity="0.25"></line><line x1="390.90830700214093" y1="0" x2="390.90830700214093" y2="376.0999994277954" fill="rgb(0, 0, 0)" stroke="rgb(60, 60, 60)" stroke-width="1px" opacity="0.25"></line><line x1="456.05969150249774" y1="0" x2="456.05969150249774" y2="376.0999994277954" fill="rgb(0, 0, 0)" stroke="rgb(60, 60, 60)" stroke-width="1px" opacity="0.25"></line><line x1="521.2110760028546" y1="0" x2="521.2110760028546" y2="376.0999994277954" fill="rgb(0, 0, 0)" stroke="rgb(60, 60, 60)" stroke-width="1px" opacity="0.25"></line><line x1="586.3624605032114" y1="0" x2="586.3624605032114" y2="376.0999994277954" fill="rgb(0, 0, 0)" stroke="rgb(60, 60, 60)" stroke-width="1px" opacity="0.25"></line><line x1="651.5138450035682" y1="0" x2="651.5138450035682" y2="376.0999994277954" fill="rgb(0, 0, 0)" stroke="rgb(60, 60, 60)" stroke-width="1px" opacity="0.25"></line><line x1="716.665229503925" y1="0" x2="716.665229503925" y2="376.0999994277954" fill="rgb(0, 0, 0)" stroke="rgb(60, 60, 60)" stroke-width="1px" opacity="0.25"></line><line x1="781.8166140042819" y1="0" x2="781.8166140042819" y2="376.0999994277954" fill="rgb(0, 0, 0)" stroke="rgb(60, 60, 60)" stroke-width="1px" opacity="0.25"></line><line x1="846.9679985046387" y1="0" x2="846.9679985046387" y2="376.0999994277954" fill="rgb(0, 0, 0)" stroke="rgb(60, 60, 60)" stroke-width="1px" opacity="0.25"></line></g><g><line x1="0" y1="376.0999994277954" x2="846.9679985046387" y2="376.0999994277954" fill="rgb(0, 0, 0)" stroke="rgb(60, 60, 60)" stroke-width="1px" opacity="0.25"></line><line x1="0" y1="329.087499499321" x2="846.9679985046387" y2="329.087499499321" fill="rgb(0, 0, 0)" stroke="rgb(60, 60, 60)" stroke-width="1px" opacity="0.25"></line><line x1="0" y1="282.07499957084656" x2="846.9679985046387" y2="282.07499957084656" fill="rgb(0, 0, 0)" stroke="rgb(60, 60, 60)" stroke-width="1px" opacity="0.25"></line><line x1="0" y1="235.06249964237213" x2="846.9679985046387" y2="235.06249964237213" fill="rgb(0, 0, 0)" stroke="rgb(60, 60, 60)" stroke-width="1px" opacity="0.25"></line><line x1="0" y1="188.0499997138977" x2="846.9679985046387" y2="188.0499997138977" fill="rgb(0, 0, 0)" stroke="rgb(60, 60, 60)" stroke-width="1px" opacity="0.25"></line><line x1="0" y1="141.03749978542328" x2="846.9679985046387" y2="141.03749978542328" fill="rgb(0, 0, 0)" stroke="rgb(60, 60, 60)" stroke-width="1px" opacity="0.25"></line><line x1="0" y1="94.02499985694885" x2="846.9679985046387" y2="94.02499985694885" fill="rgb(0, 0, 0)" stroke="rgb(60, 60, 60)" stroke-width="1px" opacity="0.25"></line><line x1="0" y1="47.012499928474426" x2="846.9679985046387" y2="47.012499928474426" fill="rgb(0, 0, 0)" stroke="rgb(60, 60, 60)" stroke-width="1px" opacity="0.25"></line><line x1="0" y1="0" x2="846.9679985046387" y2="0" fill="rgb(0, 0, 0)" stroke="rgb(60, 60, 60)" stroke-width="1px" opacity="0.25"></line></g></g></g><g><g><line x1="0" y1="188.0499997138977" x2="846.9679985046387" y2="188.0499997138977" fill="rgb(0, 0, 0)" stroke="rgb(153, 153, 153)" stroke-width="1.5px"></line></g></g><g><g><line x1="65.15138450035683" y1="0" x2="65.15138450035683" y2="376.0999994277954" fill="rgb(0, 0, 0)" stroke="rgb(153, 153, 153)" stroke-width="1.5px"></line></g></g><g><g><g><g><g><path style="fill: none;" stroke="rgb(204, 51, 17)" stroke-width="2px" d="M65.15138450035683,270.90405742818945L66.45441219036395,269.3837067096202L67.7574398803711,265.4761880394593L69.06046757037822,264.04579452059323L70.36349526038536,264.6639404444457L71.6665229503925,264.0241801865888L72.96955064039963,265.71290941734503L74.27257833040677,262.0129493995109L75.5756060204139,261.41783331261075L76.87863371042104,262.98751532470334L78.18166140042818,260.0842117807632L79.48468909043532,262.8481199858324L80.78771678044247,258.481817205084L82.0907444704496,255.22908867030984L83.39377216045673,260.66375647240733L84.69679985046388,262.59101922106544L85.999827540471,262.0150980821589L87.30285523047814,253.88053931527978L88.60588292048527,262.0932209249773L89.90891061049241,259.35058628566173L91.21193830049955,265.5931534143557L92.51496599050668,264.10777104825576L93.81799368051382,265.79590338295105L95.12102137052095,259.4950476792465L96.42404906052809,256.70471678781934L97.72707675053523,252.34958675948153L99.03010444054236,252.46126999339654L100.3331321305495,250.15456035231398L101.63615982055664,247.31836547308887L102.93918751056378,248.97176111622386L104.24221520057093,245.50703621299195L105.54524289057805,245.02153204272986L106.84827058058518,242.0169132174823L108.15129827059232,236.4117721161557L109.45432596059946,236.1690863409363L110.7573536506066,236.5906951578153L112.06038134061374,236.3970804301816L113.36340903062086,233.84219697453636L114.666436720628,233.171062789864L115.96946441063514,235.41751111673227L117.27249210064228,231.33115089311505L118.57551979064942,229.19225884442653L119.87854748065654,225.86877365615254L121.18157517066368,225.14317356458358L122.48460286067082,226.0350744594557L123.78763055067796,224.22472481839114L125.0906582406851,220.64424567374132L126.39368593069223,218.6866760256109L127.69671362069937,218.2273819056651L128.9997413107065,218.25284224679123L130.30276900071365,219.17149933312285L131.60579669072078,218.68572707495804L132.9088243807279,222.81382034557643L134.21185207073506,225.80460723558247L135.5148797607422,222.3296844341697L136.81790745074935,222.35262402041906L138.12093514075644,218.86447517430815L139.4239628307636,219.5174821433258L140.72699052077073,226.4584124977105L142.03001821077788,221.3209906459862L143.333045900785,220.48167710444562L144.63607359079214,218.60644821851605L145.93910128079926,216.57544078755228L147.24212897080642,219.5085158217115L148.54515666081355,209.54636686380235L149.8481843508207,207.55484165154144L151.1512120408278,205.94095100430692L152.45423973083496,203.43681194405883L153.75726742084208,215.32580389046342L155.06029511084924,215.72953071069566L156.36332280085637,207.57914353612753L157.6663504908635,206.21477878402476L158.96937818087065,200.2827456048866L160.27240587087778,203.7490681523302L161.57543356088493,199.98676050855903L162.87846125089206,197.6316422031914L164.1814889408992,198.00498775291655L165.4845166309063,193.2501577661603L166.78754432091347,191.51272312929774L168.0905720109206,187.7101027899958L169.39359970092775,189.87237501887412L170.69662739093485,184.01353626952974L171.999655080942,182.37602572374647L173.30268277094913,182.4666283437329L174.6057104609563,182.01426534522005L175.90873815096342,180.4771841549696L177.21176584097054,179.41335275213086L178.5147935309777,179.8275633255973L179.81782122098483,179.6411232571271L181.12084891099198,175.30454055076922L182.4238766009991,164.87286049681964L183.72690429100624,167.49735270041558L185.02993198101336,168.4330227837916L186.33295967102052,166.1697537821303L187.63598736102765,171.80162307986106L188.9390150510348,161.61986904083705L190.2420427410419,162.3599164851227L191.54507043104906,158.6713004425626L192.84809812105618,141.50861781563157L194.15112581106334,152.58325540963932L195.45415350107046,156.24988547786106L196.7571811910776,156.32612534052956L198.06020888108472,159.95109035978658L199.36323657109187,161.84647785069382L200.666264261099,162.05134693456256L201.96929195110616,154.86816176719995L203.27231964111328,166.64769950409337L204.5753473311204,157.86033423652512L205.87837502112757,157.41173931600537L207.1814027111347,153.99180513498197L208.48443040114185,158.25107833888046L209.78745809114895,157.50031761701123L211.0904857811561,155.32179026519313L212.3935134711632,154.92237607516392L213.69654116117036,154.6556087173461L214.9995688511775,145.00698307508708L216.30259654118464,142.89278978748823L217.60562423119177,151.98971513521838L218.90865192119892,147.45413594820295L220.21167961120605,153.0298512069931L221.5147073012132,152.81782162343976L222.81773499122033,144.59590015866397L224.1207626812275,140.96394389570824L225.4237903712346,149.59731585608068L226.72681806124172,152.07483692288275L228.02984575124887,144.56910422676089L229.332873441256,134.9749560539819L230.63590113126315,137.51562245995675L231.93892882127028,132.8543750068918L233.24195651127744,129.4972039063583L234.54498420128456,140.67587012092477L235.84801189129172,140.13338597931622L237.15103958129885,136.7219125320509L238.45406727130595,133.20451626042365L239.75709496131307,128.16132231103697L241.06012265132023,133.63866848111084L242.36315034132735,136.958658384871L243.6661780313345,139.25850615356305L244.96920572134164,150.3863156431865L246.2722334113488,155.84278535905017L247.57526110135592,157.08947622619084L248.87828879136308,151.8381014996977L250.1813164813702,140.61976926717077L251.4843441713773,136.58994851927864L252.78737186138446,134.2052681176883L254.09039955139158,138.50734213653612L255.39342724139874,137.96153220995106L256.69645493140587,151.72353810802176L257.999482621413,145.03965755285077L259.3025103114202,135.34977217348805L260.6055380014273,139.06236423345484L261.90856569143443,140.0239219707507L263.21159338144156,136.37345899001275L264.5146210714487,134.98216845125464L265.8176487614558,130.43683845432375L267.12067645146294,130.35929869645776L268.4237041414701,140.93157692290305L269.72673183147725,142.98857114342883L271.0297595214844,143.57760547503517L272.3327872114915,153.1582234373562L273.6358149014987,152.8990787839016L274.9388425915058,157.51165273267486L276.2418702815129,149.46731852284532L277.54489797152,143.22826554243144L278.8479256615272,136.8021370663701L280.1509533515343,131.1703894832523L281.45398104154145,131.04370694062527L282.7570087315486,123.02808703093397L284.06003642155576,120.87160428701571L285.3630641115629,127.82147730550598L286.66609180157,124.95303389975405L287.96911949157715,133.11033023713262L289.2721471815843,136.0017973519179L290.5751748715914,130.08355396223615L291.8782025615985,129.90122686098513L293.1812302516057,131.40350942697557L294.48425794161284,126.13570498303582L295.78728563161997,123.72829547684182L297.0903133216271,126.12631246716958L298.3933410116343,128.11127855729436L299.6963687016414,133.83499748784402L300.99939639164853,130.0587397538267L302.3024240816556,130.68026250236457L303.6054517716628,145.37081521432953L304.9084794616699,133.5471557817514L306.21150715167704,145.00216893797764L307.51453484168417,138.08038827390462L308.81756253169135,137.05064827761504L310.1205902216985,131.68914289446496L311.4236179117056,137.01924213608376L312.72664560171273,139.3913950119319L314.0296732917199,142.09903271212556L315.332700981727,139.52740394908432L316.6357286717341,133.37958761707347L317.9387563617413,129.13820539393362L319.2417840517484,132.3363844863708L320.54481174175555,138.33254310636053L321.8478394317627,132.99795941735607L323.15086712176986,129.92955237544393L324.453894811777,143.32254161043383L325.7569225017841,135.97474202812703L327.05995019179124,133.18107106191508L328.3629778817984,131.90645606283002L329.6660055718055,129.3268507654809L330.9690332618126,141.98337255138455L332.27206095181975,146.02203202974113L333.57508864182694,146.02328770769873L334.87811633183406,145.5607811912432L336.1811440218412,152.15664666349835L337.4841717118483,144.63741802291375L338.7871994018555,148.07125013914265L340.0902270918626,142.8821826089199L341.3932547818697,141.98968673309815L342.6962824718769,135.62450865807912L343.999310161884,131.4153105447403L345.30233785189114,127.23459242846178L346.60536554189827,132.50715210090314L347.90839323190545,143.40591772906345L349.2114209219126,137.2600093703228L350.5144486119197,131.93862359943122L351.81747630192683,126.78640043608095L353.12050399193396,128.2220196386358L354.4235316819411,134.94464388600773L355.7265593719482,146.52815576749543L357.0295870619554,141.24797495665953L358.3326147519625,130.29281572288053L359.63564244196965,126.86483748968732L360.9386701319768,126.17650912923231L362.24169782198396,130.3229972092481L363.5447255119911,126.81435300926722L364.8477532019982,131.09989806944523L366.1507808920053,130.3310363395767L367.45380858201247,128.83295221605948L368.7568362720196,134.9369412935203L370.0598639620267,138.77724853023818L371.36289165203385,143.13793132495067L372.66591934204104,134.29128664490486L373.96894703204816,128.84796673466627L375.2719747220553,132.249054015364L376.5750024120624,128.51302393445675L377.8780301020696,125.51211556190279L379.1810577920767,133.53527342755353L380.4840854820838,126.94528687195087L381.787113172091,127.23582297091936L383.0901408620981,133.12736705621833L384.39316855210524,127.32135539180268L385.69619624211236,126.71368585291961L386.99922393211955,124.7461857136019L388.3022516221267,139.0846434190912L389.6052793121338,142.2823257351256L390.90830700214093,144.13043502605282L392.21133469214806,157.7093676413446L393.5143623821552,140.98892391469002L394.8173900721623,136.40491689816093L396.12041776216944,139.99211704452233L397.4234454521766,141.66493344921554L398.72647314218375,140.19424902287733L400.0295008321909,111.19309229397946L401.332528522198,105.62087695339686L402.6355562122052,98.11645370478L403.9385839022123,96.49131826319481L405.2416115922194,97.59373957076656L406.54463928222657,92.18155268406923L407.8476669722337,108.41516142123113L409.1506946622408,111.757559277098L410.45372235224795,98.39448436196152L411.75675004225513,100.57736481850263L413.05977773226226,97.31963245637087L414.3628054222694,115.75358169635058L415.6658331122765,113.93094664682542L416.9688608022837,107.88302171900824L418.27188849229077,111.14240717694808L419.5749161822979,96.75919474411775L420.8779438723051,105.85522937903308L422.1809715623122,103.60151180425223L423.48399925231934,97.2542433137972L424.7870269423264,92.51365797548965L426.0900546323336,102.16882405695495L427.3930823223407,101.23453654337031L428.6961100123479,97.18764455733881L429.999137702355,99.67398273852253L431.30216539236216,118.10462695904717L432.6051930823693,107.6546943445501L433.90822077237647,101.6270769820567L435.21124846238354,100.37333518416521L436.51427615239066,94.81612509732936L437.81730384239785,98.08132506286667L439.1203315324049,86.20928951513622L440.4233592224121,92.31391767351406L441.72638691241923,97.50744153734225L443.0294146024264,87.19326625128585L444.3324422924335,93.03135855433548L445.63546998244067,104.7851659209876L446.9384976724478,94.11807068501504L448.241525362455,112.46636394027274L449.54455305246205,116.31728075705516L450.8475807424692,110.54358328175687L452.15060843247636,99.28371728112506L453.45363612248343,89.22125280891504L454.7566638124906,84.81353887683268L456.05969150249774,92.79492630875914L457.3627191925049,109.86467682288479L458.665746882512,104.30970592698495L459.9687745725192,114.87170045112971L461.2718022625263,115.86555524640832L462.5748299525334,108.82877298366888L463.87785764254056,96.77109663339928L465.1808853325477,88.87282663281047L466.4839130225549,88.35947460985398L467.78694071256194,104.00395755287049L469.0899684025691,97.14978266519735L470.39299609257625,102.25361005499741L471.69602378258344,105.0385889798389L472.9990514725905,102.73629412872212L474.3020791625977,113.45673928368561L475.6051068526048,104.62670702396842L476.9081345426119,102.65544183177795L478.2111622326191,89.11370078412547L479.51418992262614,80.15280696246964L480.8172176126334,79.05411835202422L482.12024530264046,79.28955730613045L483.42327299264764,86.44582942036284L484.7263006826547,91.87197299571217L486.02932837266195,92.35473082025038L487.332356062669,91.17475996102637L488.6353837526761,88.47884367089809L489.9384114426833,94.607877280421L491.2414391326904,98.3960425288215L492.5444668226976,98.92840314977872L493.84749451270466,98.89395175250566L495.15052220271184,92.4329644032493L496.45354989271897,92.41387616263131L497.75657758272615,91.17855160528488L499.0596052727332,100.3161510987062L500.3626329627404,94.7370288123818L501.66566065274753,95.65509046217375L502.9686883427546,82.8593099972265L504.2717160327618,75.02594638615886L505.5747437227689,69.72840118185312L506.8777714127761,66.52649406357774L508.18079910278317,76.67125538720079L509.48382679279035,80.05632240429622L510.7868544827975,71.42433710511109L512.0898821728047,76.8030217121494" fill="none"></path></g><g><path style="fill: none;" stroke="rgb(0, 119, 187)" stroke-width="2px" d="M65.15138450035683,270.90405742818945L66.45441219036395,270.62623077727744L67.7574398803711,271.0627016894056L69.06046757037822,270.6758409367043L70.36349526038536,268.96628765064446L71.6665229503925,263.9044142438151L72.96955064039963,262.9061648871097L74.27257833040677,262.0795856603973L75.5756060204139,264.38113924757994L76.87863371042104,260.3214645847379L78.18166140042818,258.6228042307396L79.48468909043532,264.2858932011886L80.78771678044247,263.31944915311215L82.0907444704496,257.5538356855446L83.39377216045673,260.7362172568754L84.69679985046388,265.9441066482077L85.999827540471,266.8058294712026L87.30285523047814,271.1078756701256L88.60588292048527,290.72042375477656L89.90891061049241,295.6242021740042L91.21193830049955,307.12386739619495L92.51496599050668,292.3374472446387L93.81799368051382,284.52129984723405L95.12102137052095,277.39799072421295L96.42404906052809,272.3775463452977L97.72707675053523,267.69893334489353L99.03010444054236,252.29576212614242L100.3331321305495,247.6403614645124L101.63615982055664,249.4297572550469L102.93918751056378,245.5449618310593L104.24221520057093,243.06230021147036L105.54524289057805,242.74845075867643L106.84827058058518,241.71319153647218L108.15129827059232,234.98471642673073L109.45432596059946,247.83232004648858L110.7573536506066,247.25320866465745L112.06038134061374,246.7409541883134L113.36340903062086,254.78388837319488L114.666436720628,246.77144872776623L115.96946441063514,241.44418176523158L117.27249210064228,237.02929139485698L118.57551979064942,230.42832585653L119.87854748065654,226.5398635497907L121.18157517066368,231.88793540537773L122.48460286067082,247.41343514168497L123.78763055067796,258.3444080353464L125.0906582406851,260.8434405945752L126.39368593069223,244.8935770991864L127.69671362069937,230.45052529523628L128.9997413107065,223.62014941174354L130.30276900071365,224.44183120969396L131.60579669072078,231.30924919983312L132.9088243807279,238.16901598400364L134.21185207073506,244.45277955538322L135.5148797607422,234.34154832303153L136.81790745074935,232.94628078470998L138.12093514075644,235.38878445121696L139.4239628307636,256.0554108364643L140.72699052077073,285.1732973500326L142.03001821077788,297.71140109490005L143.333045900785,298.27147795812607L144.63607359079214,272.99002578091444L145.93910128079926,255.94220252699165L147.24212897080642,258.167603015224L148.54515666081355,271.161334974386L149.8481843508207,284.0326946064868L151.1512120408278,309.9538126682407L152.45423973083496,342.55644579319573L153.75726742084208,372.760560683105L155.06029511084924,398.0422149989197L205.87837502112757,380.02825956335465L207.1814027111347,345.398714762002L208.48443040114185,320.07927737784627L209.78745809114895,295.14001899431804L211.0904857811561,291.1827432763744L212.3935134711632,268.57040192692045L213.69654116117036,254.90085884569027L214.9995688511775,243.80858017046305L216.30259654118464,241.925724886624L217.60562423119177,240.4232718021844L218.90865192119892,240.26066290816016L220.21167961120605,236.02628451956775L221.5147073012132,232.6299720255254L222.81773499122033,228.60578876109554L224.1207626812275,223.85211209857616L225.4237903712346,223.68475987181338L226.72681806124172,218.9738481052244L228.02984575124887,218.6132413855669L229.332873441256,222.34694383812675L230.63590113126315,230.23680009339506L231.93892882127028,221.49335076719962L233.24195651127744,218.54668997459413L234.54498420128456,229.26958747321393L235.84801189129172,224.33462731548036L237.15103958129885,221.94216631797485L238.45406727130595,218.29752330952542L239.75709496131307,211.56617300893993L241.06012265132023,209.18159902936094L242.36315034132735,208.44439948804674L243.6661780313345,208.87973848899665L244.96920572134164,204.87318845129258L246.2722334113488,200.25830616638987L247.57526110135592,198.226814370048L248.87828879136308,193.98200103778618L250.1813164813702,200.3164655618932L251.4843441713773,200.8955717578556L252.78737186138446,198.40052239954227L254.09039955139158,216.7087002627955L255.39342724139874,238.93542655020713L256.69645493140587,245.52723169250348L257.999482621413,237.03641395262414L259.3025103114202,234.96361702167442L260.6055380014273,215.978570877859L261.90856569143443,204.49408387003427L263.21159338144156,203.6761744126076L264.5146210714487,195.88613913381647L265.8176487614558,189.37310576888882L267.12067645146294,190.57384332344165L268.4237041414701,187.44698658333826L269.72673183147725,191.22648359768064L271.0297595214844,186.0232764195697L272.3327872114915,179.5180292202256L273.6358149014987,184.4349231210011L274.9388425915058,176.32256991802674L276.2418702815129,186.41641443834263L277.54489797152,186.79974010915458L278.8479256615272,186.73547314143752L280.1509533515343,180.53080337828717L281.45398104154145,185.38023207037577L282.7570087315486,197.22556607233273L284.06003642155576,190.5854495220712L285.3630641115629,194.2418172068426L286.66609180157,194.8539009807221L287.96911949157715,193.7529082112519L289.2721471815843,185.36619365640001L290.5751748715914,187.84409651005893L291.8782025615985,191.55116988572723L293.1812302516057,190.7108073753016L294.48425794161284,191.6202277507494L295.78728563161997,181.42490859391063L297.0903133216271,191.51503757132693L298.3933410116343,182.16766904996487L299.6963687016414,179.111997056551L300.99939639164853,185.87290115362148L302.3024240816556,175.21851244795067L303.6054517716628,175.58733100917163L304.9084794616699,174.62133952317976L306.21150715167704,173.13136524606782L307.51453484168417,164.6839928748634L308.81756253169135,171.39262374363875L310.1205902216985,163.42706405229856L311.4236179117056,163.1932199128222L312.72664560171273,164.60771757563563L314.0296732917199,173.40290719110428L315.332700981727,170.20230576643402L316.6357286717341,171.29051965795486L317.9387563617413,170.49903527362173L319.2417840517484,181.79487922670666L320.54481174175555,179.02937321607337L321.8478394317627,171.29410786413854L323.15086712176986,165.14812111238993L324.453894811777,172.7275670249938L325.7569225017841,178.92410224865853L327.05995019179124,162.36124263109224L328.3629778817984,166.40304550459751L329.6660055718055,160.5551352651216L330.9690332618126,169.61366908240328L332.27206095181975,168.61745700111777L333.57508864182694,168.4861740091823L334.87811633183406,181.04841989808543L336.1811440218412,177.83417239792686L337.4841717118483,162.84880411512623L338.7871994018555,162.81082165034843L340.0902270918626,156.59729596683488L341.3932547818697,158.91457298660848L342.6962824718769,160.08944037220135L343.999310161884,164.04309054428856L345.30233785189114,154.6921252733021L346.60536554189827,155.32095907614732L347.90839323190545,150.3468457734668L349.2114209219126,148.34441221571848L350.5144486119197,148.37515217189193L351.81747630192683,144.05308330277347L353.12050399193396,149.0927190456478L354.4235316819411,143.70647816644484L355.7265593719482,152.9605530521855L357.0295870619554,151.25612694536187L358.3326147519625,152.48030378822526L359.63564244196965,145.23227162254923L360.9386701319768,151.76870902445526L362.24169782198396,158.4080985507741L363.5447255119911,152.20586397590233L364.8477532019982,146.90693592716607L366.1507808920053,144.83178605081895L367.45380858201247,139.53014348759717L368.7568362720196,139.41739644787995L370.0598639620267,140.15075410738297L371.36289165203385,148.65801498292538L372.66591934204104,152.72252554006053L373.96894703204816,144.01529381642436L375.2719747220553,139.0874715489119L376.5750024120624,140.76926833027312L377.8780301020696,146.54590857903128L379.1810577920767,136.43132323753423L380.4840854820838,138.18607296220048L381.787113172091,139.80744578502694L383.0901408620981,134.4274127455292L384.39316855210524,130.16449239087336L385.69619624211236,139.40399533247933L386.99922393211955,139.1745296818336L388.3022516221267,141.53203356020248L389.6052793121338,134.24483319507942L390.90830700214093,132.17997192368207L392.21133469214806,132.68923063769142L393.5143623821552,135.06860410940186L394.8173900721623,130.33690204213102L396.12041776216944,132.63765061931196L397.4234454521766,137.7016327209081L398.72647314218375,135.1121431047774L400.0295008321909,132.38005221546248L401.332528522198,134.07978990167751L402.6355562122052,128.75347299547383L403.9385839022123,128.69017186218352L405.2416115922194,127.52576204268775L406.54463928222657,124.48415536277632L407.8476669722337,129.91186085177551L409.1506946622408,123.1035122111014L410.45372235224795,129.55005192806303L411.75675004225513,125.30520907441588L413.05977773226226,125.01196220813357L414.3628054222694,128.9513395242265L415.6658331122765,137.32139670575407L416.9688608022837,135.39604434807066L418.27188849229077,136.38049564916898L419.5749161822979,139.14586757550614L420.8779438723051,132.783799571866L422.1809715623122,134.25663429836146L423.48399925231934,141.5064213065953L424.7870269423264,130.71759709139167L426.0900546323336,145.62244422877248L427.3930823223407,137.62475583458962L428.6961100123479,139.61312197705467L429.999137702355,134.25107723464046L431.30216539236216,147.20097752619324L432.6051930823693,142.3981263107608L433.90822077237647,130.01788774408493L435.21124846238354,141.52167531239002L436.51427615239066,131.18272827682853L437.81730384239785,136.0824979151098L439.1203315324049,134.6630737057942L440.4233592224121,139.12991913663652L441.72638691241923,141.38581204031854L443.0294146024264,132.219702650446L444.3324422924335,138.85051449783808L445.63546998244067,134.20497542043466L446.9384976724478,126.92826812767348L448.241525362455,121.92225510705539L449.54455305246205,120.50441817087295L450.8475807424692,119.88825914464043L452.15060843247636,117.70197995709803L453.45363612248343,116.78208275037285L454.7566638124906,121.60025225126698L456.05969150249774,125.26247716878487L457.3627191925049,121.60058520064337L458.665746882512,133.51767623348388L459.9687745725192,123.66478594497495L461.2718022625263,134.28977035709246L462.5748299525334,127.92008374790451L463.87785764254056,124.65194554635045L465.1808853325477,123.52599073617777L466.4839130225549,131.28983446511822L467.78694071256194,122.90415617299611L469.0899684025691,136.38368431779918L470.39299609257625,144.87363153434552L471.69602378258344,130.9299419632449L472.9990514725905,120.90400677382983L474.3020791625977,121.67665007947956L475.6051068526048,136.7980823267702L476.9081345426119,125.14690187265192L478.2111622326191,122.51904771036455L479.51418992262614,130.79851127488584L480.8172176126334,128.8248170414231L482.12024530264046,129.52083364286352L483.42327299264764,137.41451860074588L484.7263006826547,128.7217914657183L486.02932837266195,125.48495561046315L487.332356062669,122.30234274513246L488.6353837526761,127.1596855144486L489.9384114426833,121.62081385048975L491.2414391326904,127.16171148682164L492.5444668226976,133.60567606599585L493.84749451270466,131.51666805002375L495.15052220271184,122.949889828563L496.45354989271897,133.46635695237183L497.75657758272615,132.7995925671665L499.0596052727332,128.60503638780025L500.3626329627404,131.45735886441L501.66566065274753,126.83249088044741L502.9686883427546,138.12329888146002L504.2717160327618,142.16481483856924L505.5747437227689,129.67648512468725L506.8777714127761,122.4836797839995L508.18079910278317,120.41858515114447L509.48382679279035,116.04406090794004L510.7868544827975,115.13289230057254L512.0898821728047,121.68183188196359L513.3929098628117,126.6453357667066L514.6959375528188,119.74690640367062L515.998965242826,127.77365737749298L517.3019929328332,126.95730832092632L518.6050206228404,139.95606488094515L519.9080483128474,135.86730549199498L521.2110760028546,132.1420595861308L522.5141036928617,120.55191809627384L523.8171313828689,136.74123771369588L525.1201590728759,127.90746211563118L526.4231867628831,123.50793203755701L527.7262144528903,128.3401039455464L529.0292421428974,134.96638012353392L530.3322698329046,181.01344378267586L531.6352975229116,162.69046972354806L532.9383252129188,159.0306151910064L534.2413529029259,143.29425888398885L535.5443805929331,140.12516910718736L536.8474082829403,135.257044000808L538.1504359729474,127.06025684211727L539.4534636629545,121.72049527752485L540.7564913529616,127.38047734124449L542.0595190429688,162.04746260867466L543.3625467329758,144.04961618873352L544.665574422983,134.6569046069076L545.9686021129901,136.08716974072033L547.2716298029974,139.46616466235707L548.5746574930045,136.8368492517421L549.8776851830116,134.67525221779428L551.1807128730187,127.63463708325143L552.4837405630258,130.29556769602988L553.786768253033,128.7032673901122L555.08979594304,135.69556495173302L556.3928236330472,132.30387376987144L557.6958513230544,142.44512810579744L558.9988790130616,117.52241679883981L560.3019067030687,115.96597517494665L561.6049343930758,120.49543958911875L562.9079620830829,110.09521039701463L564.2109897730901,120.85564679387552L565.5140174630972,107.479838763941L566.8170451531043,102.26719870259556L568.1200728431115,99.91684170470586L569.4231005331186,92.18071458224685L570.7261282231258,85.83152961996298L572.0291559131329,82.44916840924625L573.33218360314,86.32779739831497L574.6352112931471,80.64757303697098L575.9382389831543,76.25363645404357L577.2412666731615,78.63676273746455L578.5442943631685,80.78878138132698L579.8473220531757,75.10443828595976L581.1503497431828,78.99470666766227L582.45337743319,79.68489073156411L583.756405123197,82.70748043153114L585.0594328132042,77.03625344853724L586.3624605032114,70.51041123627076L587.6654881932186,73.82604187889682L588.9685158832257,75.98664688240656L590.2715435732329,76.02306685206649L591.5745712632399,86.65322746335274L592.877598953247,80.48887435427261L594.1806266432542,85.94253224571311L595.4836543332614,78.12281857765305L596.7866820232686,73.7304310776554L598.0897097132756,78.40025441371041L599.3927374032828,71.9465280589417L600.6957650932899,66.6497480755793L601.9987927832971,68.29285728998838L603.3018204733041,64.18265563049471L604.6048481633112,64.5756888845989L605.9078758533185,61.735214455450304L607.2109035433256,62.138010303178156L608.5139312333328,61.86712416055617L609.8169589233398,65.12413492049455L611.119986613347,68.60972535545092L612.4230143033541,67.61126741943495L613.7260419933613,65.38215244271505L615.0290696833683,61.71639398878986L616.3320973733755,63.249193108449305L617.6351250633827,59.680361036170495L618.9381527533898,59.888693971540505L620.241180443397,65.80413359364276L621.544208133404,62.1004796655365L622.8472358234112,69.67072074485466L624.1502635134183,64.96777865953241L625.4532912034255,63.726275007192186L626.7563188934326,66.42451333255279L628.0593465834398,66.16154744772821L629.3623742734469,68.602703503242L630.665401963454,75.75181210287745L631.9684296534612,70.03866489613253L633.2714573434682,69.46384766149484L634.5744850334754,68.84115774990681L635.8775127234826,73.4474972324197L637.1805404134898,68.93748526908398L638.4835681034969,66.25206327629296L639.786595793504,67.967819622218L641.0896234835111,64.49908334796305L642.3926511735182,64.4203548570357L643.6956788635254,63.81925174769705L644.9987065535325,66.66330781392466L646.3017342435397,63.438668513470574L647.6047619335468,71.49963652779269L648.907789623554,92.1045294652583L650.210817313561,92.72195280435382L651.5138450035682,96.41245514794436L652.8168726935753,88.60804102902753L654.1199003835825,77.05530076515117L655.4229280735897,72.09681002331804L656.7259557635967,68.42573890233606L658.0289834536039,62.76154841396849L659.332011143611,63.66545260652858L660.6350388336182,63.44249911187646L661.9380665236253,63.2193562068105L663.2410942136324,67.85364956799727L664.5441219036395,67.74540445034098L665.8471495936468,64.66180955108784L667.1501772836539,62.42998594646728L668.453204973661,59.97770212626989L669.7562326636681,58.97520576837465L671.0592603536752,68.89605750961954L672.3622880436824,64.92324675779102L673.6653157336895,60.72937246154758L674.9683434236966,60.7349081064051L676.2713711137038,68.27053642155713L677.574398803711,72.63104538187095L678.8774264937181,75.64841467041283L680.1804541837251,67.98203274919764L681.4834818737323,62.572443127119385L682.7865095637394,61.437115597304704L684.0895372537466,68.85835873765143L685.3925649437538,65.13537435857188L686.695592633761,63.06174875315825L687.998620323768,69.60438884513468L689.3016480137752,66.29376954295208L690.6046757037823,62.47757183832787L691.9077033937895,60.21976685228451L693.2107310837965,65.90105941986968L694.5137587738037,62.258772015673486L695.8167864638109,62.60168154715343L697.119814153818,63.279394429935145L698.4228418438252,67.55182754694171L699.7258695338322,69.35850496208978L701.0288972238394,65.20381419777432L702.3319249138465,83.15369839506438L703.6349526038537,120.67783853908162L704.9379802938608,156.090260014793L706.2410079838679,166.31663529609966L707.5440356738751,166.79444770589083L708.8470633638822,170.54950787178475L710.1500910538894,173.0131823667869L711.4531187438964,171.1921545381185L712.7561464339036,174.8999196754643L714.0591741239108,171.17489567461573L715.362201813918,169.17053993864968L716.665229503925,173.53441172352933L717.9682571939322,167.9917737702865L719.2712848839393,167.91977005089356L720.5743125739464,170.56779240927952L721.8773402639536,181.5461342595611L723.1803679539606,172.71342999234528L724.4833956439679,165.91518858873758L725.786423333975,165.92939792792953L727.0894510239822,164.27726019912478L728.3924787139892,160.29745572419512L729.6955064039964,163.03196209108296L730.9985340940035,162.0658387154366L732.3015617840106,160.89767989728108L733.6045894740178,157.34112745645842L734.9076171640249,159.85228076749812L736.2106448540321,158.6865794192214L737.5136725440392,161.49697214308534L738.8167002340464,162.95516888901008L740.1197279240534,160.2949845295288L741.4227556140606,157.64910837703073L742.7257833040677,156.588397287773L744.0288109940749,158.50225887134323L745.3318386840821,156.84202586218873L746.6348663740891,158.75824428724286L747.9378940640963,158.61796298976864L749.2409217541034,155.57398374291736L750.5439494441106,157.1550519458099L751.8469771341177,154.62138554957838L753.1500048241248,153.61310374466046L754.453032514132,155.9886336142369L755.7560602041392,153.83489972982824L757.0590878941463,151.6183920437167L758.3621155841533,153.9569086117713L759.6651432741605,151.29182039328143L760.9681709641676,150.20400113946448L762.2711986541748,154.54771337443358L763.574226344182,157.24371682859783L764.8772540341891,158.31303605109284L766.1802817241962,155.31043287806756" fill="none"></path></g></g></g></g><g opacity="0.2"><g><g><g><path style="fill: none;" stroke="rgb(204, 51, 17)" stroke-width="2px" d="M65.15138450035683,270.9040574281895L66.45441219036395,268.4714962784786L67.7574398803711,261.7249701161049L69.06046757037822,262.3636517424068L70.36349526038536,265.4709917626273L71.6665229503925,263.13916143627995L72.96955064039963,268.12781923699396L74.27257833040677,256.6183721738925L75.5756060204139,260.5401526797819L76.87863371042104,265.31831017564036L78.18166140042818,255.75558921431343L79.48468909043532,266.97894122703843L80.78771678044247,251.9466197701115L82.0907444704496,250.3563683019651L83.39377216045673,268.8093699275617L84.69679985046388,265.48055408904406L85.999827540471,261.1514600843236L87.30285523047814,241.68076652855086L88.60588292048527,274.410992220141L89.90891061049241,255.2368850143579L91.21193830049955,274.9566617501793L92.51496599050668,261.8797463762454L93.81799368051382,268.32806855576587L95.12102137052095,250.04383876333236L96.42404906052809,252.51924028315634L97.72707675053523,245.81691028961495L99.03010444054236,252.62879455850234L100.3331321305495,246.6944994320328L101.63615982055664,243.06407576678748L102.93918751056378,251.4518536671197L104.24221520057093,240.3099500070845L105.54524289057805,244.29327588393588L106.84827058058518,237.50998533830213L108.15129827059232,228.00406086565064L109.45432596059946,235.805057688537L110.7573536506066,237.22310837226215L112.06038134061374,236.10665834172653L113.36340903062086,230.00987181478555L114.666436720628,232.1643615165934L115.96946441063514,238.7871835995273L117.27249210064228,225.20161056588293L118.57551979064942,225.98392077396701L119.87854748065654,220.88354587614057L121.18157517066368,224.05477342754443L122.48460286067082,227.37292580153212L123.78763055067796,221.50920035707654L125.0906582406851,215.27352695710158L126.39368593069223,215.75032155352508L127.69671362069937,217.5384407257619L128.9997413107065,218.29103275847993L130.30276900071365,220.5494849626092L131.60579669072078,217.95706868771424L132.9088243807279,229.00596025148593L134.21185207073506,230.29078757058372L135.5148797607422,217.11730023205598L136.81790745074935,222.38703339979307L138.12093514075644,213.63225190514387L139.4239628307636,220.49699259685198L140.72699052077073,236.8698080292862L142.03001821077788,213.61485786840043L143.333045900785,219.2227067921348L144.63607359079214,215.79360488962178L145.93910128079926,213.52892964110654L147.24212897080642,223.9081283729504L148.54515666081355,194.60314342693866L149.8481843508207,204.5675538331501L151.1512120408278,203.5201150334551L152.45423973083496,199.68060335368676L153.75726742084208,233.15929181007027L155.06029511084924,216.335120941044L156.36332280085637,195.35356277427528L157.6663504908635,204.1682316558707L158.96937818087065,191.38469583617933L160.27240587087778,208.9485519734956L161.57543356088493,194.34329904290217L162.87846125089206,194.09896474514002L164.1814889408992,198.56500607750434L165.4845166309063,186.11791278602584L166.78754432091347,188.90657117400383L168.0905720109206,182.0061722810429L169.39359970092775,193.11578336219165L170.69662739093485,175.2252781455131L171.999655080942,179.91975990507157L173.30268277094913,182.6025322737126L174.6057104609563,181.33572084745066L175.90873815096342,178.1715623695939L177.21176584097054,177.81760564787285L178.5147935309777,180.44887918579695L179.81782122098483,179.36146315442178L181.12084891099198,168.79966649123233L182.4238766009991,149.22534041589526L183.72690429100624,171.43409100580948L185.02993198101336,169.83652790885574L186.33295967102052,162.77485027963826L187.63598736102765,180.24942702645723L188.9390150510348,146.34723798230104L190.2420427410419,163.46998765155124L191.54507043104906,153.13837637872243L192.84809812105618,115.76459387523498L194.15112581106334,169.195211800651L195.45415350107046,161.7498305801937L196.7571811910776,156.44048513453228L198.06020888108472,165.38853788867218L199.36323657109187,164.68955908705462L200.666264261099,162.35865056036562L201.96929195110616,144.09338401615608L203.27231964111328,184.3170061094335L204.5753473311204,144.67928633517283L205.87837502112757,156.73884693522578L207.1814027111347,148.86190386344677L208.48443040114185,164.63998814472814L209.78745809114895,156.37417653420744L211.0904857811561,152.053999237466L212.3935134711632,154.3232547901201L213.69654116117036,154.25545768061934L214.9995688511775,130.5340446116985L216.30259654118464,139.72149985609L217.60562423119177,165.63510315681356L218.90865192119892,140.65076716767976L220.21167961120605,161.39342409517837L221.5147073012132,152.4997772481098L222.81773499122033,132.26301796150028L224.1207626812275,135.51600950127462L225.4237903712346,162.54737379663933L226.72681806124172,155.79111852308583L228.02984575124887,133.3105051825781L229.332873441256,120.58373379481345L230.63590113126315,141.32662206891894L231.93892882127028,125.86250382729433L233.24195651127744,124.46144725555814L234.54498420128456,157.44386944277437L235.84801189129172,139.3196597669034L237.15103958129885,131.60470236115296L238.45406727130595,127.92842185298268L239.75709496131307,120.59653138695705L241.06012265132023,141.85468773622162L242.36315034132735,141.9386432405113L243.6661780313345,142.70827780660113L244.96920572134164,167.07802987762167L246.2722334113488,164.0274899328457L247.57526110135592,158.95951252690188L248.87828879136308,143.96103940995792L250.1813164813702,123.79227091838042L251.4843441713773,130.5452173974405L252.78737186138446,130.62824751530275L254.09039955139158,144.96045316480794L255.39342724139874,137.1428173200734L256.69645493140587,172.36654695512786L257.999482621413,135.01383672009436L259.3025103114202,120.814944104444L260.6055380014273,144.63125232340508L261.90856569143443,141.46625857669449L263.21159338144156,130.89776451890577L264.5146210714487,132.89523264311745L265.8176487614558,123.61884345892747L267.12067645146294,130.24298905965873L268.4237041414701,156.78999426257107L269.72673183147725,146.0740624742175L271.0297595214844,144.46115697244468L272.3327872114915,167.52915038083776L273.6358149014987,152.51036180371963L274.9388425915058,164.43051365583483L276.2418702815129,137.40081720810096L277.54489797152,133.86968607181066L278.8479256615272,127.1629443522781L280.1509533515343,122.72276810857568L281.45398104154145,130.85368312668461L282.7570087315486,111.00465716639708L284.06003642155576,117.63688017113827L285.3630641115629,138.24628683324136L286.66609180157,120.65036879112627L287.96911949157715,145.3462747432004L289.2721471815843,140.33899802409587L290.5751748715914,121.20618887771347L291.8782025615985,129.62773620910858L293.1812302516057,133.65693327596128L294.48425794161284,118.23399831712618L295.78728563161997,120.11718121755086L297.0903133216271,129.72333795266124L298.3933410116343,131.08872769248148L299.6963687016414,142.42057588366848L300.99939639164853,124.3943531528007L302.3024240816556,131.6125466251715L303.6054517716628,167.40664428227686L304.9084794616699,115.8116666328843L306.21150715167704,162.18468867231698L307.51453484168417,127.69771727779505L308.81756253169135,135.5060382831807L310.1205902216985,123.64688481973992L311.4236179117056,145.01439099851189L312.72664560171273,142.94962432570415L314.0296732917199,146.16048926241606L315.332700981727,135.66996080452247L316.6357286717341,124.15786311905713L317.9387563617413,122.77613205922387L319.2417840517484,137.1336531250266L320.54481174175555,147.3267810363451L321.8478394317627,124.99608388384934L323.15086712176986,125.32694181257568L324.453894811777,163.4120254629187L325.7569225017841,124.95304265466677L327.05995019179124,128.99056461259718L328.3629778817984,129.99453356420236L329.6660055718055,125.45744281945724L330.9690332618126,160.9681552302401L332.27206095181975,152.08002124727594L333.57508864182694,146.0251712246352L334.87811633183406,144.86702141655988L336.1811440218412,162.05044487188113L337.4841717118483,133.35857506203683L338.7871994018555,153.22199831348595L340.0902270918626,135.09858131358575L341.3932547818697,140.65094291936558L342.6962824718769,126.07674154555055L343.999310161884,125.10151337473201L345.30233785189114,120.963515254044L346.60536554189827,140.41599160956525L347.90839323190545,159.75406617130383L349.2114209219126,128.0411468322118L350.5144486119197,123.95654494309387L351.81747630192683,119.05806569105555L353.12050399193396,130.37544844246804L354.4235316819411,145.02858025706573L355.7265593719482,163.90342358972694L357.0295870619554,133.32770374040567L358.3326147519625,113.86007687221213L359.63564244196965,121.72287013989735L360.9386701319768,125.14401658854979L362.24169782198396,136.54272932927188L363.5447255119911,121.55138670929584L364.8477532019982,137.52821565971226L366.1507808920053,129.17774374477395L367.45380858201247,126.5858260307837L368.7568362720196,144.09292490971146L370.0598639620267,144.537709385315L371.36289165203385,149.67895551701938L372.66591934204104,121.02131962483618L373.96894703204816,120.68298686930844L375.2719747220553,137.35068493641054L376.5750024120624,122.90897881309586L377.8780301020696,121.01075300307184L379.1810577920767,145.57001022602958L380.4840854820838,117.06030703854685L381.787113172091,127.67162711937222L383.0901408620981,141.96468318416677L384.39316855210524,118.6123378951791L385.69619624211236,125.80218154459499L386.99922393211955,121.79493550462537L388.3022516221267,160.59232997732522L389.6052793121338,147.07884920917715L390.90830700214093,146.90259896244365L392.21133469214806,178.07776656428234L393.5143623821552,115.90825832470819L394.8173900721623,129.52890637336722L396.12041776216944,145.37291726406443L397.4234454521766,144.17415805625535L398.72647314218375,137.98822238337002L400.0295008321909,67.69135720063268L401.332528522198,97.26255394252307L402.6355562122052,86.85981883185461L403.9385839022123,94.05361510081707L405.2416115922194,99.24737153212418L406.54463928222657,84.06327235402311L407.8476669722337,132.7655745269741L409.1506946622408,116.77115606089838L410.45372235224795,78.34987198925671L411.75675004225513,103.8516855033143L413.05977773226226,92.4330339131734L414.3628054222694,143.40450555632006L415.6658331122765,111.19699407253756L416.9688608022837,98.8111343272825L418.27188849229077,116.03148536385784L419.5749161822979,75.18437609487232L420.8779438723051,119.499281331406L422.1809715623122,100.22093544208099L423.48399925231934,87.73334057811469L424.7870269423264,85.40277996802827L426.0900546323336,116.65157317915282L427.3930823223407,99.8331052729933L428.6961100123479,91.11730657829162L429.999137702355,103.40349001029806L431.30216539236216,145.75059328983411L432.6051930823693,91.97979542280461L433.90822077237647,92.58565093831658L435.21124846238354,98.4927224873281L436.51427615239066,86.48030996707553L437.81730384239785,102.97912501117257L439.1203315324049,68.40123619354067L440.4233592224121,101.47085991108081L441.72638691241923,105.29772733308448L443.0294146024264,71.72200332220116L444.3324422924335,101.78849700890991L445.63546998244067,122.41587697096581L446.9384976724478,78.1174278310563L448.241525362455,139.9888038231592L449.54455305246205,122.09365598222875L450.8475807424692,101.88303706880943L452.15060843247636,82.3939182801774L453.45363612248343,74.12755610060003L454.7566638124906,78.20196797870904L456.05969150249774,104.76700745664887L457.3627191925049,135.46930259407335L458.665746882512,95.97724958313518L459.9687745725192,130.71469223734684L461.2718022625263,117.35633743932631L462.5748299525334,98.27359958955965L463.87785764254056,78.68458210799493L465.1808853325477,77.02542163192727L466.4839130225549,87.58944657541922L467.78694071256194,127.47068196739524L469.0899684025691,86.86852033368768L470.39299609257625,109.90935113969742L471.69602378258344,109.2160573671011L472.9990514725905,99.28285185204702L474.3020791625977,129.53740701613074L475.6051068526048,91.38165863439274L476.9081345426119,99.69854404349219L478.2111622326191,68.80108921264669L479.51418992262614,66.71146622998602L480.8172176126334,77.40608543635608L482.12024530264046,79.64271573728975L483.42327299264764,97.18023759171142L484.7263006826547,100.01118835873615L486.02932837266195,93.07886755705776L487.332356062669,89.40480367219038L488.6353837526761,84.43496923570554L489.9384114426833,103.80142769470547L491.2414391326904,104.07829040142228L492.5444668226976,99.72694408121451L493.84749451270466,98.8422746565961L495.15052220271184,82.74148337936481L496.45354989271897,92.38524380170433L497.75657758272615,89.32556476926527L499.0596052727332,114.02255033883812L500.3626329627404,86.36834538289531L501.66566065274753,97.03218293686159L502.9686883427546,63.66563929980555L504.2717160327618,63.27590096955745L505.5747437227689,61.7820833753946L506.8777714127761,61.72363338616469L508.18079910278317,91.88839737263542L509.48382679279035,85.13392292993937L510.7868544827975,58.47635915633342L512.0898821728047,84.8710486227069" fill="none"></path></g><g><path style="fill: none;" stroke="rgb(0, 119, 187)" stroke-width="2px" d="M65.15138450035683,270.9040574281895L66.45441219036395,270.4595347867302L67.7574398803711,271.48171376504865L69.06046757037822,270.22089269152747L70.36349526038536,266.73429488036476L71.6665229503925,256.90202104774374L72.96955064039963,261.4786523350313L74.27257833040677,260.8744252126901L75.5756060204139,267.77548373490555L76.87863371042104,254.2933208411414L78.18166140042818,256.0902204241315L79.48468909043532,272.749708376767L80.78771678044247,261.87293868849633L82.0907444704496,248.91671092119034L83.39377216045673,265.5060488437965L84.69679985046388,273.75226772811646L85.999827540471,268.098049053476L87.30285523047814,277.5598526794463L88.60588292048527,320.1362581074525L89.90891061049241,302.9794215780742L91.21193830049955,324.3727345605102L92.51496599050668,270.1583035707578L93.81799368051382,272.79723306732274L95.12102137052095,266.7131114220687L96.42404906052809,264.84691546009475L97.72707675053523,260.68103379643463L99.03010444054236,229.19104471050915L100.3331321305495,240.65726761920408L101.63615982055664,252.11384929256215L102.93918751056378,239.7177708421453L104.24221520057093,239.33830860536455L105.54524289057805,242.27767664193107L106.84827058058518,240.16030282675493L108.15129827059232,224.89200424406545L109.45432596059946,267.10372492397687L110.7573536506066,246.38454160684367L112.06038134061374,245.97257248172278L113.36340903062086,266.8482895758548L114.666436720628,234.7527893042508L115.96946441063514,233.45328133923263L117.27249210064228,230.40695584814748L118.57551979064942,220.52687755698108L119.87854748065654,220.7071700924886L121.18157517066368,239.91004318644204L122.48460286067082,270.70168474211124L123.78763055067796,274.7408673741343L125.0906582406851,264.5919894331846L126.39368593069223,220.96878185699845L127.69671362069937,208.78594758979753L128.9997413107065,213.3745855866424L130.30276900071365,225.67435390660964L131.60579669072078,241.61037618499188L132.9088243807279,248.45866616022954L134.21185207073506,253.8784249124361L135.5148797607422,219.17470147451982L136.81790745074935,230.85337947722903L138.12093514075644,239.052539950976L139.4239628307636,287.0553504143283L140.72699052077073,328.8501271203791L142.03001821077788,316.51855671219965L143.333045900785,299.1115932529651L144.63607359079214,235.06784751509804L145.93910128079926,230.37046764610795L147.24212897080642,261.50570374757257L148.54515666081355,290.65193291312886L149.8481843508207,303.33973405463786L151.1512120408278,348.83548976087155L152.45423973083496,391.4603954806282L201.96929195110616,425.9835071605871L203.27231964111328,316.29672221699275L204.5753473311204,347.7837629787192L205.87837502112757,376.0755233154669L207.1814027111347,293.45439755997296L208.48443040114185,282.1001213016128L209.78745809114895,257.73113141902564L211.0904857811561,285.246829699459L212.3935134711632,234.65188990273955L213.69654116117036,234.39654422384493L214.9995688511775,227.17016215762214L216.30259654118464,239.10144196086557L217.60562423119177,238.1695921755249L218.90865192119892,240.0167495671238L220.21167961120605,229.67471693667912L221.5147073012132,227.53550328446195L222.81773499122033,222.56951386445076L224.1207626812275,216.72159710479698L225.4237903712346,223.43373153166922L226.72681806124172,211.90748045534102L228.02984575124887,218.0723313060806L229.332873441256,227.94749751696654L230.63590113126315,242.07158447629763L231.93892882127028,208.37817677790648L233.24195651127744,214.12669878568582L234.54498420128456,245.3539337211436L235.84801189129172,216.93218707888L237.15103958129885,218.35347482171656L238.45406727130595,212.8305587968512L239.75709496131307,201.46914755806174L241.06012265132023,205.6047380599924L242.36315034132735,207.3386001760755L243.6661780313345,209.53274699042143L244.96920572134164,198.8633633947365L246.2722334113488,193.33598273903576L247.57526110135592,195.17957667553526L248.87828879136308,187.6147810393935L250.1813164813702,209.81816234805373L251.4843441713773,201.76423105179921L252.78737186138446,194.6579483620722L254.09039955139158,244.17096705767543L255.39342724139874,272.27551598132453L256.69645493140587,255.414939405948L257.999482621413,224.3001873428052L259.3025103114202,231.85442162524978L260.6055380014273,187.5010016621359L261.90856569143443,187.26735335829716L263.21159338144156,202.4493102264676L264.5146210714487,184.20108621562983L265.8176487614558,179.60355572149734L267.12067645146294,192.37494965527085L268.4237041414701,182.75670147318317L269.72673183147725,196.89572911919424L271.0297595214844,178.2184656524033L272.3327872114915,169.76015842120947L273.6358149014987,191.8102639721643L274.9388425915058,164.15404011356517L276.2418702815129,201.5571812188165L277.54489797152,187.37472861537256L278.8479256615272,186.63907268986188L280.1509533515343,171.2237987335617L281.45398104154145,192.65437510850865L282.7570087315486,214.99356707526815L284.06003642155576,180.62527469667896L285.3630641115629,199.72636873399966L286.66609180157,195.77202664154137L287.96911949157715,192.1014190570466L289.2721471815843,172.78612182412223L290.5751748715914,191.56095079054725L291.8782025615985,197.1117799492298L293.1812302516057,189.45026360966312L294.48425794161284,192.9843583139211L295.78728563161997,166.13192985865246L297.0903133216271,206.65023103745145L298.3933410116343,168.1466162679217L299.6963687016414,174.52848906643024L300.99939639164853,196.01425729922718L302.3024240816556,159.2369293894444L303.6054517716628,176.14055885100305L304.9084794616699,173.17235229419194L306.21150715167704,170.89640383039998L307.51453484168417,152.01293431805675L308.81756253169135,181.45557004680177L310.1205902216985,151.47872451528826L311.4236179117056,162.84245370360767L312.72664560171273,166.72946406985577L314.0296732917199,186.59569161430724L315.332700981727,165.40140362942864L316.6357286717341,172.92284049523607L317.9387563617413,169.31180869712202L319.2417840517484,198.73864515633412L320.54481174175555,174.8811142001234L321.8478394317627,159.69120983623634L323.15086712176986,155.92914098476703L324.453894811777,184.09673589389965L325.7569225017841,188.21890508415558L327.05995019179124,137.5169532047428L328.3629778817984,172.46574981485546L329.6660055718055,151.78326990590767L330.9690332618126,183.20146980832575L332.27206095181975,167.12313887918955L333.57508864182694,168.2892495212791L334.87811633183406,199.89178873144013L336.1811440218412,173.012801147689L337.4841717118483,140.3707516909253L338.7871994018555,162.7538479531817L340.0902270918626,147.27700744156456L341.3932547818697,162.39048851626887L342.6962824718769,161.8517414505907L343.999310161884,169.97356580241936L345.30233785189114,140.6656773668224L346.60536554189827,156.26420978041506L347.90839323190545,142.88567581944616L349.2114209219126,145.34076187909594L350.5144486119197,148.42126210615208L351.81747630192683,137.56997999909572L353.12050399193396,156.6521726599594L354.4235316819411,135.6271168476403L355.7265593719482,166.8416653807965L357.0295870619554,148.6994877851264L358.3326147519625,154.3165690525204L359.63564244196965,134.36022337403526L360.9386701319768,161.5733651273143L362.24169782198396,168.3671828402523L363.5447255119911,142.90251211359472L364.8477532019982,138.95854385406167L366.1507808920053,141.71906123629824L367.45380858201247,131.57767964276454L368.7568362720196,139.2482758883041L370.0598639620267,141.25079059663747L371.36289165203385,161.41890629623902L372.66591934204104,158.81929137576324L373.96894703204816,130.9544462309701L375.2719747220553,131.69573814764317L376.5750024120624,143.29196350231496L377.8780301020696,155.2108689521684L379.1810577920767,121.25944522528873L380.4840854820838,140.8181975491999L381.787113172091,142.23950501926652L383.0901408620981,126.35736318628267L384.39316855210524,123.77011185888959L385.69619624211236,153.2632497448883L386.99922393211955,138.83033120586504L388.3022516221267,145.06828937775572L389.6052793121338,123.31403264739477L390.90830700214093,129.0826800165861L392.21133469214806,133.45311870870546L393.5143623821552,138.6376643169675L394.8173900721623,123.2393489412248L396.12041776216944,136.08877348508338L397.4234454521766,145.29760587330225L398.72647314218375,131.22790868058152L400.0295008321909,128.28191588149L401.332528522198,136.62939643100006L402.6355562122052,120.76399763616821L403.9385839022123,128.59522016224807L405.2416115922194,125.77914731344408L406.54463928222657,119.92174534290923L407.8476669722337,138.0534190852743L409.1506946622408,112.8909892500903L410.45372235224795,139.21986150350543L411.75675004225513,118.93794479394519L413.05977773226226,124.5720919087101L414.3628054222694,134.86040549836582L415.6658331122765,149.87648247804546L416.9688608022837,132.50801581154562L418.27188849229077,137.8571726008164L419.5749161822979,143.29392546501185L420.8779438723051,123.24069756640586L422.1809715623122,136.46588638810462L423.48399925231934,152.38110181894618L424.7870269423264,114.53436076858615L426.0900546323336,167.9797149348436L427.3930823223407,125.62822324331546L428.6961100123479,142.59567119075223L429.999137702355,126.20801012101917L431.30216539236216,166.62582796352237L432.6051930823693,135.19384948761225L433.90822077237647,111.44752989407107L435.21124846238354,158.77735666484762L436.51427615239066,115.67430772348636L437.81730384239785,143.43215237253165L439.1203315324049,132.5339373918208L440.4233592224121,145.83018728289997L441.72638691241923,144.7696513958416L443.0294146024264,118.47053856563714L444.3324422924335,148.7967322689262L445.63546998244067,127.23666680432962L446.9384976724478,116.01320718853167L448.241525362455,114.41323557612823L449.54455305246205,118.37766276659936L450.8475807424692,118.96402060529162L452.15060843247636,114.42256117578445L453.45363612248343,115.40223694028516L454.7566638124906,128.82750650260814L456.05969150249774,130.75581454506167L457.3627191925049,116.10774724843115L458.665746882512,151.39331278274457L459.9687745725192,108.88545051221165L461.2718022625263,150.22724697526874L462.5748299525334,118.3655538341227L463.87785764254056,119.7497382440193L465.1808853325477,121.83705852091869L466.4839130225549,142.93560005852882L467.78694071256194,110.32563873481297L469.0899684025691,156.60297653500376L470.39299609257625,157.60855235916506L471.69602378258344,110.01440760659386L472.9990514725905,105.86510398970722L474.3020791625977,122.83561503795416L475.6051068526048,159.48023069770616L476.9081345426119,107.67013119147457L478.2111622326191,118.5772664669335L479.51418992262614,143.21770662166773L480.8172176126334,125.86427569122903L482.12024530264046,130.56485854502412L483.42327299264764,149.2550460375694L484.7263006826547,115.68270076317692L486.02932837266195,120.62970182758045L487.332356062669,117.5284234471364L488.6353837526761,134.44569966842275L489.9384114426833,113.31250635455156L491.2414391326904,135.47305794131952L492.5444668226976,143.27162293475712L493.84749451270466,128.38315602606556L495.15052220271184,110.0997224963719L496.45354989271897,149.24105763808507L497.75657758272615,131.79944598935856L499.0596052727332,122.3132021187508L500.3626329627404,135.73584257932455L501.66566065274753,119.89518890450358L502.9686883427546,155.0595108829788L504.2717160327618,148.22708877423315L505.5747437227689,110.9439905538643L506.8777714127761,111.69447177296786L508.18079910278317,117.32094320186188L509.48382679279035,109.48227454313344L510.7868544827975,113.76613938952119L512.0898821728047,131.50524125405025L513.3929098628117,134.09059159382107L514.6959375528188,109.39926235911666L515.998965242826,139.81378383822653L517.3019929328332,125.73278473607627L518.6050206228404,159.45419972097343L519.9080483128474,129.73416640856976L521.2110760028546,126.55419072733453L522.5141036928617,103.16670586148841L523.8171313828689,161.02521713982887L525.1201590728759,114.65679871853415L526.4231867628831,116.9086369204457L527.7262144528903,135.58836180753053L529.0292421428974,144.90579439051518L530.3322698329046,250.08403927138883L531.6352975229116,135.20600863485632L532.9383252129188,153.54083339219395L534.2413529029259,119.68972442346244L535.5443805929331,135.37153444198518L536.8474082829403,127.954856341239L538.1504359729474,114.76507610408107L539.4534636629545,113.71085293063618L540.7564913529616,135.87045043682394L542.0595190429688,214.04794050981994L543.3625467329758,117.05284655882186L544.665574422983,120.56783723416868L545.9686021129901,138.23256744143941L547.2716298029974,144.53465704481212L548.5746574930045,132.8928761358197L549.8776851830116,131.43285666687248L551.1807128730187,117.07371438143723L552.4837405630258,134.28696361519744L553.786768253033,126.31481693123571L555.08979594304,146.18401129416432L556.3928236330472,127.21633699707907L557.6958513230544,157.6570096096864L558.9988790130616,80.13834983840339L560.3019067030687,113.6313127391068L561.6049343930758,127.28963621037697L562.9079620830829,94.4948666088585L564.2109897730901,136.99630138916686L565.5140174630972,87.41612671903924L566.8170451531043,94.44823861057739L568.1200728431115,96.39130620787141L569.4231005331186,80.57652389855825L570.7261282231258,76.30775217653722L572.0291559131329,77.3756265931712L573.33218360314,92.14574088191796L574.6352112931471,72.12723649495501L575.9382389831543,69.66273157965243L577.2412666731615,82.21145216259613L578.5442943631685,84.01680934712056L579.8473220531757,66.57792364290894L581.1503497431828,84.83010924021607L582.45337743319,80.72016682741689L583.756405123197,87.24136498148164L585.0594328132042,68.52941297404637L586.3624605032114,60.721647917870996L587.6654881932186,78.79948784283597L588.9685158832257,79.22755438767115L590.2715435732329,76.0776968065564L591.5745712632399,102.598468380282L592.877598953247,71.2423446906525L594.1806266432542,94.12301908287395L595.4836543332614,66.39324807556295L596.7866820232686,67.14184982765887L598.0897097132756,85.40498941779295L599.3927374032828,62.26593852678858L600.6957650932899,58.704578100535784L601.9987927832971,70.75752111160189L603.3018204733041,58.01735314125419L604.6048481633112,65.16523876575525L605.9078758533185,57.47450281172727L607.2109035433256,62.74220407477007L608.5139312333328,61.46079494662315L609.8169589233398,70.00965106040208L611.119986613347,73.8381110078855L612.4230143033541,66.11358051541106L613.7260419933613,62.03847997763516L615.0290696833683,56.217756307902015L616.3320973733755,65.54839178793843L617.6351250633827,54.32711292775233L618.9381527533898,60.20119337459547L620.241180443397,74.67729302679614L621.544208133404,56.54499877337704L622.8472358234112,81.02608236383192L624.1502635134183,57.9133655315491L625.4532912034255,61.86401952868183L626.7563188934326,70.47187082059365L628.0593465834398,65.76709862049142L629.3623742734469,72.26443758651264L630.665401963454,86.4754750023307L631.9684296534612,61.468944086015085L633.2714573434682,68.6016218095383L634.5744850334754,67.90712288252485L635.8775127234826,80.35700645618901L637.1805404134898,62.17246732408046L638.4835681034969,62.223930287106406L639.786595793504,70.54145414110546L641.0896234835111,59.29597893658058L642.3926511735182,64.30226212064485L643.6956788635254,62.91759708368902L644.9987065535325,70.92939191326609L646.3017342435397,58.60170956278944L647.6047619335468,83.59108854927581L648.907789623554,123.01186887145677L650.210817313561,93.64808781299716L651.5138450035682,101.94820866333002L652.8168726935753,76.90141985065232L654.1199003835825,59.72619036933668L655.4229280735897,64.65907391056828L656.7259557635967,62.91913222086316L658.0289834536039,54.265262681417006L659.332011143611,65.02130889536875L660.6350388336182,63.108068869898226L661.9380665236253,62.88464184921156L663.2410942136324,74.80508960977738L664.5441219036395,67.58303677385656L665.8471495936468,60.03641720220821L667.1501772836539,59.08225053953637L668.453204973661,56.2992763959738L669.7562326636681,57.47146123153171L671.0592603536752,83.77733512148696L672.3622880436824,58.96403063004826L673.6653157336895,54.438561017182415L674.9683434236966,60.7432115736915L676.2713711137038,79.57397889428519L677.574398803711,79.17180882234152L678.8774264937181,80.17446860322575L680.1804541837251,56.48245986737478L681.4834818737323,54.45805869400211L682.7865095637394,59.73412430258266L684.0895372537466,79.99022344817156L685.3925649437538,59.5508977899525L686.695592633761,59.95131034503788L687.998620323768,79.41834898309928L689.3016480137752,61.32784058967824L690.6046757037823,56.753275281391474L691.9077033937895,56.833059373219534L693.2107310837965,74.42299827124737L694.5137587738037,56.79534090937925L695.8167864638109,63.11604584437339L697.119814153818,64.29596375410779L698.4228418438252,73.96047722245153L699.7258695338322,72.06852108481182L701.0288972238394,58.97177805130112L702.3319249138465,110.07852469099949L703.6349526038537,176.96404875510754L704.9379802938608,209.20889222835999L706.2410079838679,181.6561982180597L707.5440356738751,167.51116632057764L708.8470633638822,176.1820981206256L710.1500910538894,176.70869410929012L711.4531187438964,168.46061279511582L712.7561464339036,180.46156738148306L714.0591741239108,165.5873596733428L715.362201813918,166.16400633470073L716.665229503925,180.08021940084873L717.9682571939322,159.67781684042237L719.2712848839393,167.81176447180414L720.5743125739464,174.53982594685849L721.8773402639536,198.01364703498345L723.1803679539606,159.46437359152148L724.4833956439679,155.71782648332612L725.786423333975,165.95071193671745L727.0894510239822,161.7990536059176L728.3924787139892,154.3277490118006L729.6955064039964,167.1337216414148L730.9985340940035,160.61665365196703L732.3015617840106,159.1454416700478L733.6045894740178,152.00629879522444L734.9076171640249,163.6190107340577L736.2106448540321,156.93802739680632L737.5136725440392,165.71256122888124L738.8167002340464,165.14246400789725L740.1197279240534,156.30470799030675L741.4227556140606,153.68029414828368L742.7257833040677,154.9973306538864L744.0288109940749,161.37305124669865L745.3318386840821,154.35167634845698L746.6348663740891,161.632571924824L747.9378940640963,158.40754104355736L749.2409217541034,151.00801487264047L750.5439494441106,159.52665425014865L751.8469771341177,150.82088595523103L753.1500048241248,152.1006810372836L754.453032514132,159.5519284186016L755.7560602041392,150.6042989032153L757.0590878941463,148.2936305145494L758.3621155841533,157.46468346385325L759.6651432741605,147.2941880655466L760.9681709641676,148.5722722587391L762.2711986541748,161.0632817268872L763.574226344182,161.2877220098442L764.8772540341891,159.91701488483537L766.1802817241962,150.8065281185296" fill="none"></path></g></g></g></g></g></g><g transform="translate(51, 376)" clip-path="url(#clip_1)"><clipPath id="clip_1"><rect width="846" height="23"></rect></clipPath><g><g><line x1="0" y1="0" x2="0" y2="5" style="visibility: inherit;" fill="rgb(0, 0, 0)" stroke="rgb(204, 204, 204)" stroke-width="1px"></line><line x1="65.15138450035683" y1="0" x2="65.15138450035683" y2="5" style="visibility: inherit;" fill="rgb(0, 0, 0)" stroke="rgb(204, 204, 204)" stroke-width="1px"></line><line x1="130.30276900071365" y1="0" x2="130.30276900071365" y2="5" style="visibility: inherit;" fill="rgb(0, 0, 0)" stroke="rgb(204, 204, 204)" stroke-width="1px"></line><line x1="195.45415350107046" y1="0" x2="195.45415350107046" y2="5" style="visibility: inherit;" fill="rgb(0, 0, 0)" stroke="rgb(204, 204, 204)" stroke-width="1px"></line><line x1="260.6055380014273" y1="0" x2="260.6055380014273" y2="5" style="visibility: inherit;" fill="rgb(0, 0, 0)" stroke="rgb(204, 204, 204)" stroke-width="1px"></line><line x1="325.7569225017841" y1="0" x2="325.7569225017841" y2="5" style="visibility: inherit;" fill="rgb(0, 0, 0)" stroke="rgb(204, 204, 204)" stroke-width="1px"></line><line x1="390.90830700214093" y1="0" x2="390.90830700214093" y2="5" style="visibility: inherit;" fill="rgb(0, 0, 0)" stroke="rgb(204, 204, 204)" stroke-width="1px"></line><line x1="456.05969150249774" y1="0" x2="456.05969150249774" y2="5" style="visibility: inherit;" fill="rgb(0, 0, 0)" stroke="rgb(204, 204, 204)" stroke-width="1px"></line><line x1="521.2110760028546" y1="0" x2="521.2110760028546" y2="5" style="visibility: inherit;" fill="rgb(0, 0, 0)" stroke="rgb(204, 204, 204)" stroke-width="1px"></line><line x1="586.3624605032114" y1="0" x2="586.3624605032114" y2="5" style="visibility: inherit;" fill="rgb(0, 0, 0)" stroke="rgb(204, 204, 204)" stroke-width="1px"></line><line x1="651.5138450035682" y1="0" x2="651.5138450035682" y2="5" style="visibility: inherit;" fill="rgb(0, 0, 0)" stroke="rgb(204, 204, 204)" stroke-width="1px"></line><line x1="716.665229503925" y1="0" x2="716.665229503925" y2="5" style="visibility: inherit;" fill="rgb(0, 0, 0)" stroke="rgb(204, 204, 204)" stroke-width="1px"></line><line x1="781.8166140042819" y1="0" x2="781.8166140042819" y2="5" style="visibility: inherit;" fill="rgb(0, 0, 0)" stroke="rgb(204, 204, 204)" stroke-width="1px"></line><line x1="846.9679985046387" y1="0" x2="846.9679985046387" y2="5" style="visibility: inherit;" fill="rgb(0, 0, 0)" stroke="rgb(204, 204, 204)" stroke-width="1px"></line></g><g transform="translate(0, 8)"><text style="text-anchor: middle; visibility: hidden; font-family: Roboto, sans-serif; font-size: 12px; font-weight: 200;" x="0" y="0" dx="0em" dy="0.95em" fill="rgb(50, 49, 63)" stroke="none" stroke-width="1px">-100</text><text style="text-anchor: middle; visibility: inherit; font-family: Roboto, sans-serif; font-size: 12px; font-weight: 200;" x="65.15138450035683" y="0" dx="0em" dy="0.95em" fill="rgb(50, 49, 63)" stroke="none" stroke-width="1px">0</text><text style="text-anchor: middle; visibility: inherit; font-family: Roboto, sans-serif; font-size: 12px; font-weight: 200;" x="130.30276900071365" y="0" dx="0em" dy="0.95em" fill="rgb(50, 49, 63)" stroke="none" stroke-width="1px">100</text><text style="text-anchor: middle; visibility: inherit; font-family: Roboto, sans-serif; font-size: 12px; font-weight: 200;" x="195.45415350107046" y="0" dx="0em" dy="0.95em" fill="rgb(50, 49, 63)" stroke="none" stroke-width="1px">200</text><text style="text-anchor: middle; visibility: inherit; font-family: Roboto, sans-serif; font-size: 12px; font-weight: 200;" x="260.6055380014273" y="0" dx="0em" dy="0.95em" fill="rgb(50, 49, 63)" stroke="none" stroke-width="1px">300</text><text style="text-anchor: middle; visibility: inherit; font-family: Roboto, sans-serif; font-size: 12px; font-weight: 200;" x="325.7569225017841" y="0" dx="0em" dy="0.95em" fill="rgb(50, 49, 63)" stroke="none" stroke-width="1px">400</text><text style="text-anchor: middle; visibility: inherit; font-family: Roboto, sans-serif; font-size: 12px; font-weight: 200;" x="390.90830700214093" y="0" dx="0em" dy="0.95em" fill="rgb(50, 49, 63)" stroke="none" stroke-width="1px">500</text><text style="text-anchor: middle; visibility: inherit; font-family: Roboto, sans-serif; font-size: 12px; font-weight: 200;" x="456.05969150249774" y="0" dx="0em" dy="0.95em" fill="rgb(50, 49, 63)" stroke="none" stroke-width="1px">600</text><text style="text-anchor: middle; visibility: inherit; font-family: Roboto, sans-serif; font-size: 12px; font-weight: 200;" x="521.2110760028546" y="0" dx="0em" dy="0.95em" fill="rgb(50, 49, 63)" stroke="none" stroke-width="1px">700</text><text style="text-anchor: middle; visibility: inherit; font-family: Roboto, sans-serif; font-size: 12px; font-weight: 200;" x="586.3624605032114" y="0" dx="0em" dy="0.95em" fill="rgb(50, 49, 63)" stroke="none" stroke-width="1px">800</text><text style="text-anchor: middle; visibility: inherit; font-family: Roboto, sans-serif; font-size: 12px; font-weight: 200;" x="651.5138450035682" y="0" dx="0em" dy="0.95em" fill="rgb(50, 49, 63)" stroke="none" stroke-width="1px">900</text><text style="text-anchor: middle; visibility: inherit; font-family: Roboto, sans-serif; font-size: 12px; font-weight: 200;" x="716.665229503925" y="0" dx="0em" dy="0.95em" fill="rgb(50, 49, 63)" stroke="none" stroke-width="1px">1k</text><text style="text-anchor: middle; visibility: inherit; font-family: Roboto, sans-serif; font-size: 12px; font-weight: 200;" x="781.8166140042819" y="0" dx="0em" dy="0.95em" fill="rgb(50, 49, 63)" stroke="none" stroke-width="1px">1.1k</text><text style="text-anchor: middle; visibility: hidden; font-family: Roboto, sans-serif; font-size: 12px; font-weight: 200;" x="846.9679985046387" y="0" dx="0em" dy="0.95em" fill="rgb(50, 49, 63)" stroke="none" stroke-width="1px">1.2k</text></g><line x1="0" y1="0" x2="846.9679985046387" y2="0" fill="rgb(0, 0, 0)" stroke="rgb(204, 204, 204)" stroke-width="1px"></line></g></g></g></g></svg>