<svg viewBox="0 0 898.5 400" xmlns="http://www.w3.org/2000/svg"><g><g><g><g><g><line x1="41.149001121520996" y1="376.0999994277954" x2="36.149001121520996" y2="376.0999994277954" style="visibility: inherit;" fill="rgb(0, 0, 0)" stroke="rgb(204, 204, 204)" stroke-width="1px"></line><line x1="41.149001121520996" y1="338.48999948501586" x2="36.149001121520996" y2="338.48999948501586" style="visibility: inherit;" fill="rgb(0, 0, 0)" stroke="rgb(204, 204, 204)" stroke-width="1px"></line><line x1="41.149001121520996" y1="300.87999954223636" x2="36.149001121520996" y2="300.87999954223636" style="visibility: inherit;" fill="rgb(0, 0, 0)" stroke="rgb(204, 204, 204)" stroke-width="1px"></line><line x1="41.149001121520996" y1="263.26999959945675" x2="36.149001121520996" y2="263.26999959945675" style="visibility: inherit;" fill="rgb(0, 0, 0)" stroke="rgb(204, 204, 204)" stroke-width="1px"></line><line x1="41.149001121520996" y1="225.65999965667723" x2="36.149001121520996" y2="225.65999965667723" style="visibility: inherit;" fill="rgb(0, 0, 0)" stroke="rgb(204, 204, 204)" stroke-width="1px"></line><line x1="41.149001121520996" y1="188.0499997138977" x2="36.149001121520996" y2="188.0499997138977" style="visibility: inherit;" fill="rgb(0, 0, 0)" stroke="rgb(204, 204, 204)" stroke-width="1px"></line><line x1="41.149001121520996" y1="150.43999977111818" x2="36.149001121520996" y2="150.43999977111818" style="visibility: inherit;" fill="rgb(0, 0, 0)" stroke="rgb(204, 204, 204)" stroke-width="1px"></line><line x1="41.149001121520996" y1="112.82999982833864" x2="36.149001121520996" y2="112.82999982833864" style="visibility: inherit;" fill="rgb(0, 0, 0)" stroke="rgb(204, 204, 204)" stroke-width="1px"></line><line x1="41.149001121520996" y1="75.21999988555906" x2="36.149001121520996" y2="75.21999988555906" style="visibility: inherit;" fill="rgb(0, 0, 0)" stroke="rgb(204, 204, 204)" stroke-width="1px"></line><line x1="41.149001121520996" y1="37.60999994277953" x2="36.149001121520996" y2="37.60999994277953" style="visibility: inherit;" fill="rgb(0, 0, 0)" stroke="rgb(204, 204, 204)" stroke-width="1px"></line><line x1="41.149001121520996" y1="0" x2="36.149001121520996" y2="0" style="visibility: inherit;" fill="rgb(0, 0, 0)" stroke="rgb(204, 204, 204)" stroke-width="1px"></line></g><g transform="translate(31.149001121520996, 0)"><text style="text-anchor: end; visibility: hidden; font-family: Roboto, sans-serif; font-size: 12px; font-weight: 200;" x="0" y="376.0999994277954" dx="0em" dy="0.3em" fill="rgb(50, 49, 63)" stroke="none" stroke-width="1px">-35</text><text style="text-anchor: end; visibility: inherit; font-family: Roboto, sans-serif; font-size: 12px; font-weight: 200;" x="0" y="338.48999948501586" dx="0em" dy="0.3em" fill="rgb(50, 49, 63)" stroke="none" stroke-width="1px">-30</text><text style="text-anchor: end; visibility: inherit; font-family: Roboto, sans-serif; font-size: 12px; font-weight: 200;" x="0" y="300.87999954223636" dx="0em" dy="0.3em" fill="rgb(50, 49, 63)" stroke="none" stroke-width="1px">-25</text><text style="text-anchor: end; visibility: inherit; font-family: Roboto, sans-serif; font-size: 12px; font-weight: 200;" x="0" y="263.26999959945675" dx="0em" dy="0.3em" fill="rgb(50, 49, 63)" stroke="none" stroke-width="1px">-20</text><text style="text-anchor: end; visibility: inherit; font-family: Roboto, sans-serif; font-size: 12px; font-weight: 200;" x="0" y="225.65999965667723" dx="0em" dy="0.3em" fill="rgb(50, 49, 63)" stroke="none" stroke-width="1px">-15</text><text style="text-anchor: end; visibility: inherit; font-family: Roboto, sans-serif; font-size: 12px; font-weight: 200;" x="0" y="188.0499997138977" dx="0em" dy="0.3em" fill="rgb(50, 49, 63)" stroke="none" stroke-width="1px">-10</text><text style="text-anchor: end; visibility: inherit; font-family: Roboto, sans-serif; font-size: 12px; font-weight: 200;" x="0" y="150.43999977111818" dx="0em" dy="0.3em" fill="rgb(50, 49, 63)" stroke="none" stroke-width="1px">-5</text><text style="text-anchor: end; visibility: inherit; font-family: Roboto, sans-serif; font-size: 12px; font-weight: 200;" x="0" y="112.82999982833864" dx="0em" dy="0.3em" fill="rgb(50, 49, 63)" stroke="none" stroke-width="1px">0</text><text style="text-anchor: end; visibility: inherit; font-family: Roboto, sans-serif; font-size: 12px; font-weight: 200;" x="0" y="75.21999988555906" dx="0em" dy="0.3em" fill="rgb(50, 49, 63)" stroke="none" stroke-width="1px">5</text><text style="text-anchor: end; visibility: inherit; font-family: Roboto, sans-serif; font-size: 12px; font-weight: 200;" x="0" y="37.60999994277953" dx="0em" dy="0.3em" fill="rgb(50, 49, 63)" stroke="none" stroke-width="1px">10</text><text style="text-anchor: end; visibility: hidden; font-family: Roboto, sans-serif; font-size: 12px; font-weight: 200;" x="0" y="0" dx="0em" dy="0.3em" fill="rgb(50, 49, 63)" stroke="none" stroke-width="1px">15</text></g><line x1="41.149001121520996" y1="0" x2="41.149001121520996" y2="376.0999994277954" fill="rgb(0, 0, 0)" stroke="rgb(204, 204, 204)" stroke-width="1px"></line></g></g><g transform="translate(41, 0)" clip-path="url(#clip_0)"><clipPath id="clip_0"><rect width="857" height="376"></rect></clipPath><g><g><g><line x1="0" y1="0" x2="0" y2="376.0999994277954" fill="rgb(0, 0, 0)" stroke="rgb(60, 60, 60)" stroke-width="1px" opacity="0.25"></line><line x1="65.95007683680608" y1="0" x2="65.95007683680608" y2="376.0999994277954" fill="rgb(0, 0, 0)" stroke="rgb(60, 60, 60)" stroke-width="1px" opacity="0.25"></line><line x1="131.90015367361215" y1="0" x2="131.90015367361215" y2="376.0999994277954" fill="rgb(0, 0, 0)" stroke="rgb(60, 60, 60)" stroke-width="1px" opacity="0.25"></line><line x1="197.85023051041824" y1="0" x2="197.85023051041824" y2="376.0999994277954" fill="rgb(0, 0, 0)" stroke="rgb(60, 60, 60)" stroke-width="1px" opacity="0.25"></line><line x1="263.8003073472243" y1="0" x2="263.8003073472243" y2="376.0999994277954" fill="rgb(0, 0, 0)" stroke="rgb(60, 60, 60)" stroke-width="1px" opacity="0.25"></line><line x1="329.7503841840304" y1="0" x2="329.7503841840304" y2="376.0999994277954" fill="rgb(0, 0, 0)" stroke="rgb(60, 60, 60)" stroke-width="1px" opacity="0.25"></line><line x1="395.7004610208365" y1="0" x2="395.7004610208365" y2="376.0999994277954" fill="rgb(0, 0, 0)" stroke="rgb(60, 60, 60)" stroke-width="1px" opacity="0.25"></line><line x1="461.6505378576425" y1="0" x2="461.6505378576425" y2="376.0999994277954" fill="rgb(0, 0, 0)" stroke="rgb(60, 60, 60)" stroke-width="1px" opacity="0.25"></line><line x1="527.6006146944486" y1="0" x2="527.6006146944486" y2="376.0999994277954" fill="rgb(0, 0, 0)" stroke="rgb(60, 60, 60)" stroke-width="1px" opacity="0.25"></line><line x1="593.5506915312546" y1="0" x2="593.5506915312546" y2="376.0999994277954" fill="rgb(0, 0, 0)" stroke="rgb(60, 60, 60)" stroke-width="1px" opacity="0.25"></line><line x1="659.5007683680608" y1="0" x2="659.5007683680608" y2="376.0999994277954" fill="rgb(0, 0, 0)" stroke="rgb(60, 60, 60)" stroke-width="1px" opacity="0.25"></line><line x1="725.4508452048668" y1="0" x2="725.4508452048668" y2="376.0999994277954" fill="rgb(0, 0, 0)" stroke="rgb(60, 60, 60)" stroke-width="1px" opacity="0.25"></line><line x1="791.400922041673" y1="0" x2="791.400922041673" y2="376.0999994277954" fill="rgb(0, 0, 0)" stroke="rgb(60, 60, 60)" stroke-width="1px" opacity="0.25"></line><line x1="857.350998878479" y1="0" x2="857.350998878479" y2="376.0999994277954" fill="rgb(0, 0, 0)" stroke="rgb(60, 60, 60)" stroke-width="1px" opacity="0.25"></line></g><g><line x1="0" y1="376.0999994277954" x2="857.350998878479" y2="376.0999994277954" fill="rgb(0, 0, 0)" stroke="rgb(60, 60, 60)" stroke-width="1px" opacity="0.25"></line><line x1="0" y1="338.48999948501586" x2="857.350998878479" y2="338.48999948501586" fill="rgb(0, 0, 0)" stroke="rgb(60, 60, 60)" stroke-width="1px" opacity="0.25"></line><line x1="0" y1="300.87999954223636" x2="857.350998878479" y2="300.87999954223636" fill="rgb(0, 0, 0)" stroke="rgb(60, 60, 60)" stroke-width="1px" opacity="0.25"></line><line x1="0" y1="263.26999959945675" x2="857.350998878479" y2="263.26999959945675" fill="rgb(0, 0, 0)" stroke="rgb(60, 60, 60)" stroke-width="1px" opacity="0.25"></line><line x1="0" y1="225.65999965667723" x2="857.350998878479" y2="225.65999965667723" fill="rgb(0, 0, 0)" stroke="rgb(60, 60, 60)" stroke-width="1px" opacity="0.25"></line><line x1="0" y1="188.0499997138977" x2="857.350998878479" y2="188.0499997138977" fill="rgb(0, 0, 0)" stroke="rgb(60, 60, 60)" stroke-width="1px" opacity="0.25"></line><line x1="0" y1="150.43999977111818" x2="857.350998878479" y2="150.43999977111818" fill="rgb(0, 0, 0)" stroke="rgb(60, 60, 60)" stroke-width="1px" opacity="0.25"></line><line x1="0" y1="112.82999982833864" x2="857.350998878479" y2="112.82999982833864" fill="rgb(0, 0, 0)" stroke="rgb(60, 60, 60)" stroke-width="1px" opacity="0.25"></line><line x1="0" y1="75.21999988555906" x2="857.350998878479" y2="75.21999988555906" fill="rgb(0, 0, 0)" stroke="rgb(60, 60, 60)" stroke-width="1px" opacity="0.25"></line><line x1="0" y1="37.60999994277953" x2="857.350998878479" y2="37.60999994277953" fill="rgb(0, 0, 0)" stroke="rgb(60, 60, 60)" stroke-width="1px" opacity="0.25"></line><line x1="0" y1="0" x2="857.350998878479" y2="0" fill="rgb(0, 0, 0)" stroke="rgb(60, 60, 60)" stroke-width="1px" opacity="0.25"></line></g></g></g><g><g><line x1="0" y1="112.82999982833864" x2="857.350998878479" y2="112.82999982833864" fill="rgb(0, 0, 0)" stroke="rgb(153, 153, 153)" stroke-width="1.5px"></line></g></g><g><g><line x1="65.95007683680608" y1="0" x2="65.95007683680608" y2="376.0999994277954" fill="rgb(0, 0, 0)" stroke="rgb(153, 153, 153)" stroke-width="1.5px"></line></g></g><g><g><g><g><g><path style="fill: none;" stroke="rgb(204, 51, 17)" stroke-width="2px" d="M72.54508452048668,378.3653509768421L73.8640860572228,372.3791029456794L75.18308759395893,349.41043250331774L76.50208913069504,339.8769832396025L77.82109066743116,339.923729673103L79.1400922041673,325.5781404550631L80.45909374090341,328.44758945427577L81.77809527763954,311.0932426904886L83.09709681437565,294.0215850862897L84.41609835111178,308.47583371433984L85.73509988784791,300.344599444079L87.05410142458402,281.90982854190145L88.37310296132014,249.9756690847932L89.69210449805627,261.67473538008977L91.01110603479239,240.84159059927978L92.33010757152852,234.98395439526277L93.64910910826462,220.8712706869435L94.96811064500075,217.250853998894L96.28711218173687,207.79558425434917L97.606113718473,203.1110191049769L98.92511525520912,200.51488960447352L100.24411679194523,206.92603962197506L101.56311832868136,202.96924536054766L102.88211986541748,199.0721960748314L104.2011214021536,202.5996532568609L105.52012293888973,195.2275290172428L106.83912447562584,185.575623378574L108.15812601236196,181.32026909178003L109.47712754909809,157.51259944384793L110.79612908583421,152.57911597737012L112.11513062257033,148.02468339833695L113.43413215930646,136.88227642986067L114.75313369604257,133.44745711516197L116.07213523277869,121.20758417651055L117.39113676951482,127.05721217327365L118.71013830625094,120.40803793489292L120.02913984298708,116.80421683841078L121.34814137972317,108.08037599417882L122.6671429164593,103.67859503015205L123.98614445319542,102.19008377004072L125.30514598993156,97.77512126245186L126.62414752666768,91.19256493376538L127.94314906340378,92.55417032571803L129.2621506001399,92.69815596579262L130.58115213687603,86.8508131940057L131.90015367361215,83.61906077036657L133.21915521034828,84.13157245124152L134.5381567470844,83.64266679293841L135.85715828382052,86.15153840567477L137.17615982055665,82.09635349755501L138.49516135729277,80.92048976947665L139.81416289402887,74.32179225768955L141.133164430765,73.38148126136072L142.45216596750112,70.56170326646709L143.77116750423724,68.8225528098587L145.09016904097336,65.08297141755902L146.4091705777095,63.967676094180064L147.7281721144456,62.67589030353526L149.04717365118174,62.35011043880116L150.36617518791786,65.61789620312247L151.68517672465399,65.02245235951277L153.00417826139008,67.04336747940103L154.3231797981262,64.37290328056933L155.64218133486233,65.27297295997778L156.96118287159848,62.27846472302791L158.2801844083346,63.326381876978644L159.5991859450707,60.25871840887492L160.91818748180683,54.89740516918462L162.23718901854295,55.351582141736614L163.55619055527907,54.105184868029774L164.8751920920152,54.83474243432769L166.1941936287513,54.967595861899376L167.51319516548742,51.31680120033264L168.83219670222357,50.59126707160449L170.1511982389597,50.26855392757033L171.47019977569582,51.48157366855687L172.7892013124319,49.5337246315994L174.10820284916804,51.35828162523534L175.42720438590416,49.38586483159169L176.74620592264029,50.08948284411783L178.0652074593764,49.44046936447536L179.38420899611253,49.2475244020013L180.70321053284866,48.53171104023693L182.02221206958478,48.45931314638376L183.3412136063209,48.858424328526986L184.66021514305703,46.210828855010526L185.97921667979313,47.53220012406015L187.29821821652925,50.72607355131631L188.61721975326537,51.81509783742901L189.9362212900015,53.7012820788519L191.25522282673762,53.31623835851143L192.57422436347375,55.47153264879965L193.89322590020987,58.60811198467906L195.212227436946,55.01813916835382L196.53122897368212,61.30291643221147L197.85023051041824,63.328194091552255L199.16923204715434,63.904155392566445L200.48823358389046,66.79414313045494L201.8072351206266,67.4451151480048L203.1262366573627,69.22483250978728L204.44523819409886,68.97649083260679L205.76423973083496,71.76919745779398L207.08324126757108,72.47499350164257L208.4022428043072,72.36027785942235L209.72124434104333,73.6601136514513L211.04024587777945,75.55850602882138L212.35924741451555,78.02790280804727L213.67824895125167,80.61010725784236L214.9972504879878,80.39972729234282L216.31625202472392,79.28509622197173L217.63525356146005,76.78132794364011L218.95425509819617,74.33882558631753L220.2732566349323,76.09822844024141L221.59225817166842,77.23169730320369L222.91125970840454,78.8301464586341L224.23026124514067,79.75009003985774L225.5492627818768,78.67438037167136L226.86826431861292,78.79735672298703L228.187265855349,80.39921449018426L229.50626739208514,81.5094469237132L230.82526892882126,80.08934572442982L232.14427046555738,79.26156312753406L233.4632720022935,80.42170973318142L234.78227353902963,79.74506225363577L236.10127507576576,79.82036079062782L237.42027661250188,82.03512704312051L238.739278149238,84.36336898589806L240.05827968597416,85.65201739746453L241.37728122271022,84.73721480096884L242.69628275944635,84.80945117845152L244.01528429618247,84.72531420970203L245.3342858329186,85.67463745848792L246.65328736965472,86.89681248167203L247.97228890639084,90.89197050709166L249.29129044312697,95.9991111245329L250.61029197986312,94.42733718257779L251.92929351659924,96.28214675847956L253.24829505333537,93.99592065397125L254.56729659007144,92.63263470190864L255.88629812680756,91.9644824759174L257.2052996635437,91.44322921232887L258.5243012002798,90.97399943077495L259.84330273701596,93.91116287168104L261.16230427375206,91.27251318615303L262.4813058104882,89.32942624613425L263.8003073472243,91.8470926903341L265.11930888396046,92.14864721262416L266.43831042069655,91.90057149559772L267.75731195743265,90.6736472906625L269.0763134941688,89.19028268201566L270.3953150309049,88.83202754307084L271.71431656764105,90.84304488287678L273.03331810437714,93.24584349847954L274.3523196411133,93.73747576815599L275.6713211778494,97.95509072160435L276.99032271458555,98.25717817345463L278.30932425132164,102.87973510648717L279.62832578805774,101.25847766737736L280.9473273247939,98.64585021999437L282.26632886153,96.35662728659803L283.58533039826614,95.3832055103952L284.90433193500223,96.52219937589372L286.2233334717384,95.26522140281492L287.5423350084745,93.56848047992919L288.86133654521063,94.05473979849717L290.18033808194673,93.42234137607502L291.4993396186829,94.9575046029959L292.818341155419,96.87682010650413L294.1373426921551,96.4647118681299L295.4563442288912,97.51339932591621L296.7753457656273,97.36527106108987L298.0943473023635,97.03473553417949L299.41334883909957,96.90299899957876L300.7323503758357,98.41464290470245L302.0513519125718,100.02252984027719L303.37035344930797,101.69225940178694L304.6893549860441,100.11265745327009L306.00835652278016,100.29512775760298L307.3273580595163,104.08387051547848L308.6463595962524,102.81977436388092L309.96536113298856,104.03476133506584L311.28436266972466,101.8868343593082L312.6033642064608,101.90079737324565L313.92236574319696,100.85272032043011L315.24136727993306,102.12558121685181L316.5603688166692,103.2677356102311L317.8793703534053,107.08987343644831L319.1983718901414,106.67579713003337L320.5173734268775,104.55367732931687L321.83637496361365,104.6832837406483L323.15537650034975,104.36307726344096L324.4743780370859,105.10694265267395L325.79337957382205,103.55920800750692L327.11238111055815,102.55626407043809L328.4313826472943,104.72666904124996L329.7503841840304,103.38913730503403L331.06938572076655,102.99849377375192L332.3883872575026,102.89426935350747L333.70738879423874,102.54046286714436L335.02639033097483,105.22269437464647L336.345391867711,108.19728406529134L337.66439340444714,106.52068936496654L338.98339494118324,108.12928483416597L340.3023964779194,108.3751242708871L341.6213980146555,106.86018305238856L342.94039955139164,107.42728104973762L344.2594010881277,106.94599271752477L345.5784026248638,106.8833644338297L346.8974041616,105.98724137503123L348.2164056983361,105.12215434406805L349.5354072350722,105.25340040020991L350.8544087718083,105.03050774690702L352.1734103085445,106.49111200182857L353.49241184528057,105.97968418657163L354.8114133820167,106.14869168593683L356.1304149187528,105.40008427602916L357.4494164554889,105.80415229958487L358.76841799222507,106.41468672716438L360.08741952896116,108.90641495640162L361.4064210656973,108.61870558973025L362.7254226024334,106.46810701159708L364.04442413916956,105.80263119029695L365.36342567590566,106.22681013556075L366.6824272126418,108.50580040959251L368.0014287493779,106.78634616916256L369.32043028611406,107.09871688777332L370.63943182285016,107.08445475451312L371.95843335958625,108.10853448520533L373.2774348963224,108.27836077700347L374.5964364330585,109.23681162513712L375.91543796979465,110.31605801365261L377.23443950653075,108.56551437752837L378.5534410432669,107.29345735827384L379.872442580003,107.42316384021919L381.19144411673915,106.32230492359116L382.51044565347524,106.28029795513673L383.82944719021134,109.0973249971557L385.1484487269475,107.63356309366002L386.4674502636836,107.7673044238102L387.78645180041974,109.5338963765388L389.10545333715584,108.35354637812776L390.424454873892,108.01557165235593L391.7434564106281,108.02103176133915L393.06245794736424,109.6804685981304L394.38145948410033,109.70986236826403L395.7004610208365,109.84313759045824L397.0194625575726,113.25886048487496L398.3384640943087,109.95364788214889L399.65746563104483,109.5874318846922L400.9764671677809,109.84985730905943L402.2954687045171,110.83408924848239L403.6144702412532,113.11251043494113L404.9334717779893,110.14762698626225L406.2524733147254,107.59392896703129L407.5714748514616,104.4685426440693L408.8904763881977,102.39425592562996L410.20947792493376,102.74249775055675L411.5284794616699,101.10981123038721L412.847480998406,103.8418304846756L414.16648253514217,104.88034393702353L415.48548407187826,97.85749453519976L416.8044856086144,98.06836550709048L418.12348714535057,98.40887724538268L419.44248868208666,104.51708210714992L420.7614902188228,107.45024209941865L422.0804917555589,100.62754388933311L423.399493292295,102.80588965167273L424.7184948290311,95.48142873603533L426.03749636576725,94.96509907082032L427.35649790250335,97.00890113440538L428.6754994392395,96.2021837136545L429.9945009759756,94.60744062651844L431.31350251271175,94.56629262097293L432.63250404944785,95.58597987520737L433.951505586184,94.0565929401579L435.2705071229201,94.06408250299387L436.58950865965625,101.77957425687262L437.90851019639234,99.38004034258297L439.2275117331285,97.69048359244995L440.5465132698646,99.14506037836314L441.8655148066007,95.0581379930822L443.18451634333684,97.67423169289373L444.50351788007293,92.97641314194723L445.8225194168091,94.64459655403721L447.1415209535452,97.03482080835258L448.46052249028133,93.2255537411879L449.77952402701743,96.24393260948825L451.0985255637536,99.32932033998289L452.4175271004897,96.38007071419801L453.73652863722583,103.94502403188245L455.0555301739619,105.22067440837645L456.374531710698,105.44103354913413L457.6935332474342,100.74552077474219L459.01253478417027,95.54685954546223L460.3315363209064,93.78266382969751L461.6505378576425,96.9948732700953L462.96953939437867,105.82284569545695L464.28854093111477,109.40316008497278L465.6075424678509,112.92143219421409L466.926544004587,111.85331387039069L468.2455455413231,112.7711882989852L469.56454707805926,111.40980989164105L470.88354861479536,105.19538440988796L472.2025501515315,110.60688743450967L473.5215516882676,114.09921392485076L474.84055322500376,106.74790039348252L476.15955476173986,111.51280632384055L477.478556298476,112.6647001203531L478.7975578352121,111.36043927452644L480.1165593719483,113.78630349994009L481.43556090868435,109.92157586022104L482.75456244542045,107.9617490384167L484.0735639821566,103.68852288031373L485.3925655188927,100.55488128097656L486.71156705562885,100.45905117944217L488.03056859236494,98.30318953824462L489.34957012910115,102.54568100295491L490.6685716658372,103.459837614934L491.9875732025734,105.92536452624442L493.30657473930944,109.60868258382104L494.62557627604554,104.2416366100554L495.9445778127817,104.9374062251909L497.2635793495178,106.57393782011715L498.58258088625394,108.58999072580451L499.90158242299003,104.61844403011536L501.22058395972624,100.49826117172852L502.5395854964623,101.43949811726714L503.8585870331985,100.99563256450998L505.1775885699345,108.71910395136702L506.49659010667074,109.32938690742954L507.8155916434068,106.4770087056076L509.1345931801429,103.831888758534L510.453594716879,100.99353759860148L511.7725962536151,97.65496234576607L513.0915977903513,94.04177895550939L514.4105993270874,97.47471467842485L515.7296008638235,100.4228524626558L517.0486024005596,98.46185251290784L518.3676039372958,102.98913980981457" fill="none"></path></g><g><path style="fill: none;" stroke="rgb(0, 119, 187)" stroke-width="2px" d="M71.22608298375056,402.42878979534663L72.54508452048668,374.7788188323588L73.8640860572228,366.02514711965L75.18308759395893,358.9768749176402L76.50208913069504,365.68807850405324L77.82109066743116,343.92970375527096L79.1400922041673,330.56142585957906L80.45909374090341,340.3125661906881L81.77809527763954,334.89135236443246L83.09709681437565,306.0952881668784L84.41609835111178,311.42368187099004L85.73509988784791,314.17706513650216L87.05410142458402,296.79889813388L88.37310296132014,275.0135497367574L89.69210449805627,305.84116274657083L91.01110603479239,305.5411824753552L92.33010757152852,310.34012482614116L93.64910910826462,280.5291675437344L94.96811064500075,263.1778223069584L96.28711218173687,253.30652679801648L97.606113718473,243.19642406806233L98.92511525520912,228.15608559019145L100.24411679194523,189.12707197698168L101.56311832868136,176.77805886991788L102.88211986541748,182.97135068423245L104.2011214021536,170.0352587251359L105.52012293888973,158.52519157860777L106.83912447562584,148.61470350154212L108.15812601236196,147.24803259679177L109.47712754909809,126.78063236266728L110.79612908583421,139.65905833405083L112.11513062257033,136.5643176679202L113.43413215930646,131.94865458320604L114.75313369604257,135.86409122671358L116.07213523277869,116.91846685652875L117.39113676951482,110.96967994077093L118.71013830625094,109.57964566872592L120.02913984298708,101.63473646352547L121.34814137972317,103.803359207275L122.6671429164593,134.27740382724448L123.98614445319542,145.07312299728576L125.30514598993156,141.0858816237698L126.62414752666768,129.76203431007016L127.94314906340378,111.45971265429688L129.2621506001399,92.30043518417759L130.58115213687603,85.0020614254879L131.90015367361215,115.1582090028552L133.21915521034828,124.18964995781L134.5381567470844,142.21116290448217L135.85715828382052,157.66318204274683L137.17615982055665,142.8675189976482L138.49516135729277,141.80932264004394L139.81416289402887,137.5271728428859L141.133164430765,163.45792626554206L142.45216596750112,184.60397347512264L143.77116750423724,181.3077162409282L145.09016904097336,163.6578447667004L146.4091705777095,140.70717633545982L147.7281721144456,145.40485675563355L149.04717365118174,152.0115910193542L150.36617518791786,178.7644330314103L151.68517672465399,194.0364148084337L153.00417826139008,240.91257278470835L154.3231797981262,305.6648902030423L155.64218133486233,332.7587367723946L156.96118287159848,361.4773973317644L158.2801844083346,356.85817996161603L159.5991859450707,325.6009712488202L160.91818748180683,292.3906810559537L162.23718901854295,275.70538524340844L163.55619055527907,260.18530918333L164.8751920920152,242.38751017960865L166.1941936287513,231.32113260139099L167.51319516548742,230.12816212985263L168.83219670222357,238.7836749414671L170.1511982389597,242.56663058590382L171.47019977569582,239.29053011473144L172.7892013124319,237.18646645546858L174.10820284916804,231.7114741220328L175.42720438590416,239.75313972768797L176.74620592264029,249.74272504666354L178.0652074593764,265.5092398324944L179.38420899611253,286.2122638144509L180.70321053284866,295.077564219778L182.02221206958478,299.3302057591526L183.3412136063209,321.1749126260807L184.66021514305703,337.43595870799135L185.97921667979313,355.09693019276824L187.29821821652925,378.32369206222137L203.1262366573627,418.46524044601335L204.44523819409886,329.6551835691427L205.76423973083496,243.40010455950323L207.08324126757108,199.14319859946718L208.4022428043072,186.27789257414466L209.72124434104333,158.5519758101543L211.04024587777945,118.32057596404121L212.35924741451555,109.32152787580014L213.67824895125167,141.3805127779307L214.9972504879878,107.2976212498981L216.31625202472392,109.1701018078523L217.63525356146005,108.38477175159515L218.95425509819617,119.69684674960197L220.2732566349323,111.81982265708051L221.59225817166842,129.00076638786126L222.91125970840454,122.36928010742531L224.23026124514067,116.36006106105184L225.5492627818768,109.15648947146558L226.86826431861292,110.05567776084285L228.187265855349,123.04671050252688L229.50626739208514,108.57599612303207L230.82526892882126,120.23791765988615L232.14427046555738,115.1030366222327L233.4632720022935,114.28445668477573L234.78227353902963,106.24621570273655L236.10127507576576,98.82709375254132L237.42027661250188,106.86684579473354L238.739278149238,106.64368858360896L240.05827968597416,108.86183885173253L241.37728122271022,115.91590498204737L242.69628275944635,102.73177260526364L244.01528429618247,109.26896409951894L245.3342858329186,110.82144891351794L246.65328736965472,113.87353229401326L247.97228890639084,114.41619723489735L249.29129044312697,110.38990513866317L250.61029197986312,115.8076533193792L251.92929351659924,113.60000166891535L253.24829505333537,123.261830947004L254.56729659007144,124.0824671627859L255.88629812680756,120.6005039265495L257.2052996635437,129.1712198861501L258.5243012002798,126.73500936781173L259.84330273701596,119.97656474208952L261.16230427375206,117.9656269080862L262.4813058104882,118.49426876177166L263.8003073472243,107.48771321566635L265.11930888396046,117.58742814178L266.43831042069655,115.23861926539263L267.75731195743265,108.84087376982346L269.0763134941688,118.03993881884577L270.3953150309049,116.88163793663428L271.71431656764105,120.12977856164859L273.03331810437714,117.2232980446608L274.3523196411133,114.16770509002978L275.6713211778494,111.4801911923157L276.99032271458555,114.70206008575023L278.30932425132164,110.90827238792713L279.62832578805774,111.08170715477749L280.9473273247939,109.95522066243124L282.26632886153,108.28081798129406L283.58533039826614,105.11152015313247L284.90433193500223,107.19640288663288L286.2233334717384,113.16266812050746L287.5423350084745,110.6366497797919L288.86133654521063,121.32301706395008L290.18033808194673,112.82608340105514L291.4993396186829,122.08752064975205L292.818341155419,112.44673874604538L294.1373426921551,118.76375379580584L295.4563442288912,124.36943326433672L296.7753457656273,122.24155968602382L298.0943473023635,124.79526336738539L299.41334883909957,122.55924909592962L300.7323503758357,118.27896187351038L302.0513519125718,112.73115948234579L303.37035344930797,110.39588073616476L304.6893549860441,113.10036827747494L306.00835652278016,112.5926359448699L307.3273580595163,110.66459315323267L308.6463595962524,113.07970062377491L309.96536113298856,110.30740186331617L311.28436266972466,110.03534154902071L312.6033642064608,114.81325918419323L313.92236574319696,106.8810525218807L315.24136727993306,109.89848071616181L316.5603688166692,106.86014755189501L317.8793703534053,110.91960715146914L319.1983718901414,111.38636367564182L320.5173734268775,112.68237123751263L321.83637496361365,109.00863871603264L323.15537650034975,116.05327177084123L324.4743780370859,112.05214299631612L325.79337957382205,110.87674075765578L327.11238111055815,113.04179847320295L328.4313826472943,120.22381151648483L329.7503841840304,118.25325262425063L331.06938572076655,112.98495215852701L332.3883872575026,114.36858972779896L333.70738879423874,113.06029426348708L335.02639033097483,119.14539057457307L336.345391867711,115.62137771703341L337.66439340444714,119.11369931626984L338.98339494118324,118.93760862219362L340.3023964779194,118.57247567215941L341.6213980146555,112.56654729381859L342.94039955139164,118.51777944695647L344.2594010881277,111.92968787231796L345.5784026248638,111.2156431893166L346.8974041616,112.55422988151138L348.2164056983361,120.49112054181622L349.5354072350722,112.98917568791632L350.8544087718083,119.12387275866615L352.1734103085445,115.4393790206302L353.49241184528057,115.57569867749615L354.8114133820167,115.47521543915819L356.1304149187528,115.5928002802828L357.4494164554889,112.40380527300181L358.76841799222507,108.6553271699122L360.08741952896116,114.98164209993573L361.4064210656973,113.30695727374363L362.7254226024334,120.80069653082327L364.04442413916956,112.45233113740414L365.36342567590566,116.67923479789597L366.6824272126418,116.8717619792935L368.0014287493779,116.01884399600155L369.32043028611406,113.45403374755631L370.63943182285016,116.25252937122708L371.95843335958625,112.5430666075345L373.2774348963224,113.82142339010805L374.5964364330585,113.94681248579349L375.91543796979465,116.13156486855888L377.23443950653075,116.74616989729985L378.5534410432669,114.01921223281859L379.872442580003,114.72043624016425L381.19144411673915,113.04783705960928L382.51044565347524,113.37411129034575L383.82944719021134,109.2435526928651L385.1484487269475,112.8004142144189L386.4674502636836,114.18999641273611L387.78645180041974,113.97137933897459L389.10545333715584,112.66319440556089L390.424454873892,114.92059229322282L391.7434564106281,111.78917225617086L393.06245794736424,115.82186717409391L394.38145948410033,112.4042756643377L395.7004610208365,112.72388955533629L397.0194625575726,111.87138769810534L398.3384640943087,111.7035099582187L399.65746563104483,109.21108833214244L400.9764671677809,113.03159032091442L402.2954687045171,112.13265561970361L403.6144702412532,115.09139241955435L404.9334717779893,113.26474412041378L406.2524733147254,112.3587887584587L407.5714748514616,110.75090121715502L408.8904763881977,112.02277877289573L410.20947792493376,114.45511407120273L411.5284794616699,111.3970631422871L412.847480998406,117.36094445656987L414.16648253514217,110.79372597797473L415.48548407187826,110.59260113803744L416.8044856086144,110.75636729071636L418.12348714535057,115.34618902868192L419.44248868208666,114.39161659868604L420.7614902188228,116.61475569635124L422.0804917555589,118.50385720234436L423.399493292295,117.9174637578946L424.7184948290311,114.12697960275595L426.03749636576725,114.26705691114668L427.35649790250335,115.68362567736689L428.6754994392395,116.87391886429067L429.9945009759756,111.34811008001363L431.31350251271175,116.42185786200298L432.63250404944785,114.42038072338626L433.951505586184,115.53963136128701L435.2705071229201,114.39022482081413L436.58950865965625,115.2286090775422L437.90851019639234,114.20199175531155L439.2275117331285,112.87949006319035L440.5465132698646,122.02237253006221L441.8655148066007,115.9150862758414L443.18451634333684,119.69960988079055L444.50351788007293,116.47239739788112L445.8225194168091,116.6101689954608L447.1415209535452,116.98594577349553L448.46052249028133,114.76192988321L449.77952402701743,117.69061641247279L451.0985255637536,116.55346509938953L452.4175271004897,114.24284919974286L453.73652863722583,111.94417624182444L455.0555301739619,110.99081898117501L456.374531710698,111.9445123399245L457.6935332474342,111.72933056171422L459.01253478417027,113.32026419304596L460.3315363209064,113.30201215902203L461.6505378576425,113.61092524070855L462.96953939437867,112.9734700070637L464.28854093111477,116.04422414053506L465.6075424678509,112.87848993819301L466.926544004587,114.8728307064017L468.2455455413231,113.86928226329081L469.56454707805926,112.1302088614403L470.88354861479536,114.38200231290854L472.2025501515315,115.76707055321334L473.5215516882676,111.62798061444535L474.84055322500376,117.42220436991408L476.15955476173986,118.74873848026803L477.478556298476,116.39704826464263L478.7975578352121,111.9726379068085L480.1165593719483,113.47249630352607L481.43556090868435,114.5634900987665L482.75456244542045,110.8811589571484L484.0735639821566,110.28355808998342L485.3925655188927,114.48105774983033L486.71156705562885,114.66773268921396L488.03056859236494,116.94707722395535L489.34957012910115,116.1806905659982L490.6685716658372,114.79666923078756L491.9875732025734,115.46156333722085L493.30657473930944,112.80982840121737L494.62557627604554,114.89619598666705L495.9445778127817,113.23803857703305L497.2635793495178,116.512552235781L498.58258088625394,117.50075662578142L499.90158242299003,116.23176872469199L501.22058395972624,113.59105580975968L502.5395854964623,116.83083438139978L503.8585870331985,116.28406009166774L505.1775885699345,113.25681412890782L506.49659010667074,116.00880379367592L507.8155916434068,114.59007511743783L509.1345931801429,115.11212436082316L510.453594716879,113.82560581741771L511.7725962536151,113.90072574918992L513.0915977903513,113.69817734714688L514.4105993270874,113.94286446991707L515.7296008638235,111.91251390859946L517.0486024005596,110.73719254264317L518.3676039372958,112.31546067473829L519.6866054740319,115.00396652948757L521.005607010768,114.375579602023L522.3246085475041,119.82521840437158L523.6436100842402,114.32054532791834L524.9626116209764,117.21205764093044L526.2816131577125,115.23355697693617L527.6006146944486,117.2241611175816L528.9196162311847,112.39548266174012L530.2386177679209,120.57787922109011L531.557619304657,116.63646503810784L532.8766208413931,123.90050988241374L534.1956223781292,121.16495940735514L535.5146239148653,122.81602472807249L536.8336254516015,117.66001233616933L538.1526269883376,112.98292973640059L539.4716285250737,116.51949485294918L540.7906300618098,114.38548436236923L542.109631598546,115.61396943025683L543.4286331352821,115.6154810221211L544.7476346720182,114.0971244083841L546.0666362087543,116.41184665955178L547.3856377454904,115.50633819101151L548.7046392822266,121.38479136362169L550.0236408189627,113.03354713116114L551.3426423556988,114.55676585035586L552.6616438924349,114.86594718793538L553.9806454291711,113.4742704496435L555.2996469659072,115.32329407238228L556.6186485026433,112.01515178230467L557.9376500393794,110.87272431305567L559.2566515761155,114.37525860889752L560.5756531128517,113.62598516856423L561.8946546495878,127.88423499604512L563.2136561863239,117.17925311708369L564.53265772306,117.59621867223636L565.8516592597962,113.17292718047182L567.1706607965323,118.3044004642573L568.4896623332684,121.66977654024436L569.8086638700045,117.44470049895276L571.1276654067407,126.77323436585152L572.4466669434768,117.78330729864938L573.7656684802129,121.07331681860319L575.084670016949,120.25564903724133L576.4036715536851,112.13349266981464L577.7226730904213,116.9383445510152L579.0416746271574,116.06972054142406L580.3606761638935,119.21386969192817L581.6796777006296,118.32716741336901L582.9986792373658,105.95477272645427L584.3176807741019,111.38203465788631L585.636682310838,109.9523886413206L586.955683847574,106.62247028629821L588.2746853843101,111.6530131908332L589.5936869210464,114.69496964440619L590.9126884577825,113.78953348933204L592.2316899945185,116.892311379913L593.5506915312546,111.80504806091855L594.8696930679909,112.38803752809054L596.188694604727,111.34920381157144L597.5076961414632,113.15707772776051L598.8266976781991,121.40040407134921L600.1456992149352,121.26050835329586L601.4647007516714,119.80496136634989L602.7837022884075,119.5554361649095L604.1027038251436,116.21903115523064L605.4217053618797,122.48297155897204L606.7407068986159,118.01553975597099L608.059708435352,115.46976869595912L609.3787099720882,117.61406011035446L610.6977115088242,112.97740322180664L612.0167130455603,112.60832922530908L613.3357145822965,112.97147183336425L614.6547161190326,111.95792236522362L615.9737176557688,111.06718827764946L617.2927191925048,115.80361647426938L618.611720729241,112.75944326546953L619.9307222659771,113.9529622464521L621.2497238027133,113.6966143378807L622.5687253394493,112.41138692114053L623.8877268761854,115.63558467155133L625.2067284129216,112.58603945494524L626.5257299496577,110.54102188999497L627.8447314863939,114.76356395942528L629.1637330231299,112.04205963458898L630.4827345598661,115.91449933067737L631.8017360966022,115.08302481911824L633.1207376333384,114.23871843818709L634.4397391700744,114.00039084708023L635.7587407068106,113.17387619174603L637.0777422435467,117.8871033801491L638.3967437802828,117.65340874100848L639.715745317019,115.08519376095647L641.034746853755,115.39796384850992L642.3537483904912,112.80297044191383L643.6727499272273,112.08460082633341L644.9917514639635,113.3569844819449L646.3107530006995,112.29968262570793L647.6297545374357,116.53287859615874L648.9487560741718,111.9590501395619L650.2677576109079,112.94803177337673L651.5867591476441,114.01213160684802L652.9057606843801,114.90394473559121L654.2247622211163,112.90415501881337L655.5437637578524,117.93686243508172L656.8627652945886,116.90619522189841L658.1817668313246,110.93649115440451L659.5007683680608,117.33095240186653L660.8197699047969,113.00268161165862L662.1387714415331,115.85597780143151L663.4577729782692,114.78465338411586L664.7767745150052,113.79690708900814L666.0957760517414,111.88696153262926L667.4147775884775,114.33196035520955L668.7337791252137,113.15899653500776L670.0527806619497,112.27036172303974L671.3717821986859,116.32293300795638L672.690783735422,117.12550442098735L674.0097852721582,113.29284732276722L675.3287868088943,116.78657919780903L676.6477883456303,113.56580633756295L677.9667898823665,118.3238673024842L679.2857914191026,118.4417856464843L680.6047929558388,115.16858231737089L681.9237944925749,116.24195127764418L683.242796029311,115.9506379636113L684.5617975660471,117.02745843228318L685.8807991027833,107.7615595029425L687.1998006395194,114.61395139781663L688.5188021762553,109.960430810867L689.8378037129916,112.93944572004321L691.1568052497277,110.74721473196173L692.4758067864639,112.55072000386313L693.7948083232,108.73432293236647L695.113809859936,113.53931052134087L696.4328113966722,111.38301139266268L697.7518129334084,113.4976356495318L699.0708144701445,113.44282862905142L700.3898160068806,115.95709326698264L701.7088175436166,113.77883477965958L703.0278190803527,112.89238931312175L704.346820617089,114.88043307097074L705.665822153825,110.99308798083197L706.9848236905611,111.46588517024753L708.3038252272972,113.21302138662311L709.6228267640334,116.93607537595362L710.9418283007695,147.21846973831103L712.2608298375056,135.83200090719447L713.5798313742417,126.42697174865195L714.8988329109778,120.3801491753065L716.217834447714,118.18657680355952L717.5368359844501,115.40444131333035L718.8558375211862,115.47153233562962L720.1748390579223,114.36658451431329L721.4938405946585,112.99159782523763L722.8128421313946,112.25744199458214L724.1318436681307,112.35919493709463L725.4508452048668,110.83257803325775L726.769846741603,112.38899338631383L728.0888482783391,112.50890971316231L729.4078498150752,113.50533670754301L730.7268513518113,112.65733606201748L732.0458528885474,112.62760357658897L733.3648544252836,111.50428363886012L734.6838559620197,113.48831802816073L736.0028574987558,112.94564234327783L737.3218590354919,113.00493257508916L738.6408605722281,113.30603613844231L739.9598621089642,113.99022324716728L741.2788636457003,112.88223399747638L742.5978651824364,112.93190465970316L743.9168667191725,113.00611793323237L745.2358682559087,112.0661425433983L746.5548697926448,111.95182297433297L747.8738713293809,111.59824969498392L749.192872866117,111.14938591623549L750.5118744028532,111.67853768656715L751.8308759395893,112.12045909710832L753.1498774763254,113.17812952052698L754.4688790130615,111.93742595710933L755.7878805497976,114.52727127759842L757.1068820865338,112.1794749040316L758.4258836232699,111.7594963035865L759.744885160006,113.12368618202166L761.0638866967421,112.08691447102191L762.3828882334783,112.83808576210319L763.7018897702144,112.50476914352316L765.0208913069505,112.97430833554563L766.3398928436866,112.62276449724612L767.6588943804227,113.21964465906248L768.9778959171589,112.45868613648703L770.296897453895,113.20936630038376L771.6158989906311,113.91219049428598L772.9349005273672,114.53614749322496L774.2539020641034,114.29009775219424L775.5729036008395,113.72757226609218" fill="none"></path></g></g></g></g><g opacity="0.2"><g><g><g><path style="fill: none;" stroke="rgb(204, 51, 17)" stroke-width="2px" d="M68.58807991027832,391.2387474974144L69.90708144701443,369.3659408748083L71.22608298375056,376.04318500527444L72.54508452048668,370.8957696307205L73.8640860572228,363.8186724811484L75.18308759395893,315.9218904991182L76.50208913069504,325.8169973528075L77.82109066743116,339.9931426788349L79.1400922041673,304.1898700663755L80.45909374090341,332.7361475383561L81.77809527763954,285.11838749804L83.09709681437565,268.4475438344385L84.41609835111178,330.1402162297445L85.73509988784791,288.15348281507767L87.05410142458402,254.26547316586027L88.37310296132014,202.0825379787575L89.69210449805627,279.22155258803576L91.01110603479239,209.59377766001776L92.33010757152852,226.19782133592798L93.64910910826462,199.7027095083334L94.96811064500075,211.82030044563172L96.28711218173687,193.61279164421612L97.606113718473,196.08420467680253L98.92511525520912,196.620706425025L100.24411679194523,216.5427482438516L101.56311832868136,197.03406004301792L102.88211986541748,193.22662573599018L104.2011214021536,207.89083708033323L105.52012293888973,184.16934510249223L106.83912447562584,171.09776684097696L108.15812601236196,174.93723816959292L109.47712754909809,121.8010966772444L110.79612908583421,145.17889098967854L112.11513062257033,141.19303464722813L113.43413215930646,120.16866614953754L114.75313369604257,128.29522817499924L116.07213523277869,102.84777483670699L117.39113676951482,135.8316541488695L118.71013830625094,110.4342765906543L120.02913984298708,111.39848519802328L121.34814137972317,94.99461473412816L122.6671429164593,97.07592358601839L123.98614445319542,99.9573168802605L125.30514598993156,91.15267750175694L126.62414752666768,81.31873044135148L127.94314906340378,94.59657841357053L129.2621506001399,92.91413442589969L130.58115213687603,78.07979903644343L131.90015367361215,78.77143213494715L133.21915521034828,84.90033997255016L134.5381567470844,82.90930830548582L135.85715828382052,89.91484582477285L137.17615982055665,76.01357613538168L138.49516135729277,79.15669417736028L139.81416289402887,64.42374599001262L141.133164430765,71.97101476686778L142.45216596750112,66.33203627412713L143.77116750423724,66.21382712494635L145.09016904097336,59.47359932910971L146.4091705777095,62.294733109111725L147.7281721144456,60.738211617568105L149.04717365118174,61.86144064169995L150.36617518791786,70.51957484960433L151.68517672465399,64.12928659409833L153.00417826139008,70.0747401592334L154.3231797981262,60.367206982321704L155.64218133486233,66.62307747909055L156.96118287159848,57.786702367603006L158.2801844083346,64.89825760790491L159.5991859450707,55.65722320671928L160.91818748180683,46.855435309649046L162.23718901854295,56.03284760056461L163.55619055527907,52.23558895746945L164.8751920920152,55.92907878377457L166.1941936287513,55.16687600325694L167.51319516548742,45.840609207982574L168.83219670222357,49.50296587851229L170.1511982389597,49.78448421151904L171.47019977569582,53.301103280036614L172.7892013124319,46.6119510761633L174.10820284916804,54.09511711568924L175.42720438590416,46.427239641126334L176.74620592264029,51.14490986290692L178.0652074593764,48.46694914501162L179.38420899611253,48.95810695829024L180.70321053284866,47.457990997590365L182.02221206958478,48.35071630560409L183.3412136063209,49.45709110174187L184.66021514305703,42.23943564473586L185.97921667979313,49.51425702763451L187.29821821652925,55.51688369220047L188.61721975326537,53.44863426659803L189.9362212900015,56.53055844098628L191.25522282673762,52.73867277800074L192.57422436347375,58.70447408423191L193.89322590020987,63.312980988498225L195.212227436946,49.63317994386595L196.53122897368212,70.730082327998L197.85023051041824,66.36611058056333L199.16923204715434,64.76809734408774L200.48823358389046,71.12912473728777L201.8072351206266,68.42157317432945L203.1262366573627,71.89440855246103L204.44523819409886,68.60397831683603L205.76423973083496,75.95825739557479L207.08324126757108,73.53368756741543L208.4022428043072,72.1882043960921L209.72124434104333,75.60986733949476L211.04024587777945,78.40609459487644L212.35924741451555,81.73199797688608L213.67824895125167,84.48341393253504L214.9972504879878,80.08415734409341L216.31625202472392,77.61314961641517L217.63525356146005,73.02567552614273L218.95425509819617,70.6750720503336L220.2732566349323,78.73733272112725L221.59225817166842,78.93190059764702L222.91125970840454,81.22782019177971L224.23026124514067,81.13000541169322L225.5492627818768,77.06081586939172L226.86826431861292,78.9818212499606L228.187265855349,82.80200114098004L229.50626739208514,83.17479557400661L230.82526892882126,77.95919392550479L232.14427046555738,78.0198892321904L233.4632720022935,82.16192964165248L234.78227353902963,78.7300910343173L236.10127507576576,79.93330859611585L237.42027661250188,85.35727642185957L238.739278149238,87.85573190006444L240.05827968597416,87.58499001481425L241.37728122271022,83.36501090622528L242.69628275944635,84.91780574467555L244.01528429618247,84.59910875657779L245.3342858329186,87.09862233166673L246.65328736965472,88.73007501644811L247.97228890639084,96.8847075452212L249.29129044312697,103.65982205069481L250.61029197986312,92.06967626964509L251.92929351659924,99.06436112233222L253.24829505333537,90.56658149720886L254.56729659007144,90.58770577381476L255.88629812680756,90.96225413693053L257.2052996635437,90.66134931694614L258.5243012002798,90.27015475844401L259.84330273701596,98.31690803304006L261.16230427375206,87.31453865786106L262.4813058104882,86.41479583610601L263.8003073472243,95.62359235663389L265.11930888396046,92.60097899605921L266.43831042069655,91.52845792005803L267.75731195743265,88.83326098325968L269.0763134941688,86.96523576904542L270.3953150309049,88.29464483465362L271.71431656764105,93.85957089258568L273.03331810437714,96.85004142188374L274.3523196411133,94.47492417267058L275.6713211778494,104.28151315177688L276.99032271458555,98.71030935123007L278.30932425132164,109.81357050603597L279.62832578805774,98.82659150871268L280.9473273247939,94.72690904891988L282.26632886153,92.92279288650359L283.58533039826614,93.92307284609088L284.90433193500223,98.23069017414149L286.2233334717384,93.37975444319666L287.5423350084745,91.02336909560067L288.86133654521063,94.78412877634901L290.18033808194673,92.47374374244191L291.4993396186829,97.26024944337723L292.818341155419,99.7557933617664L294.1373426921551,95.84654951056866L295.4563442288912,99.08643051259554L296.7753457656273,97.14307866385047L298.0943473023635,96.53893224381397L299.41334883909957,96.70539419767753L300.7323503758357,100.68210876238801L302.0513519125718,102.43436024363933L303.37035344930797,104.19685374405157L304.6893549860441,97.74325453049487L306.00835652278016,100.56883321410227L307.3273580595163,109.76698465229175L308.6463595962524,100.92363013648462L309.96536113298856,105.8572417918432L311.28436266972466,98.66494389567164L312.6033642064608,101.92174189415186L313.92236574319696,99.28060474120677L315.24136727993306,104.03487256148439L316.5603688166692,104.98096720029996L317.8793703534053,112.82308017577424L319.1983718901414,106.05468267041094L320.5173734268775,101.37049762824209L321.83637496361365,104.87769335764547L323.15537650034975,103.88276754763002L324.4743780370859,106.22274073652333L325.79337957382205,101.23760603975637L327.11238111055815,101.05184816483491L328.4313826472943,107.98227649746768L329.7503841840304,101.38283970071019L331.06938572076655,102.41252847682877L332.3883872575026,102.73793272314079L333.70738879423874,102.00975313759972L335.02639033097483,109.24604163589959L336.345391867711,112.65916860125871L337.66439340444714,104.0057973144793L338.98339494118324,110.54217803796512L340.3023964779194,108.74388342596882L341.6213980146555,104.58777122464085L342.94039955139164,108.2779280457611L344.2594010881277,106.22406021920548L345.5784026248638,106.7894220082871L346.8974041616,104.64305678683355L348.2164056983361,103.82452379762327L349.5354072350722,105.45026948442272L350.8544087718083,104.69616876695257L352.1734103085445,108.68201838421092L353.49241184528057,105.21254246368625L354.8114133820167,106.40220293498457L356.1304149187528,104.27717316116764L357.4494164554889,106.41025433491853L358.76841799222507,107.33048836853358L360.08741952896116,112.64400730025754L361.4064210656973,108.18714153972324L362.7254226024334,103.24220914439736L364.04442413916956,104.80441745834673L365.36342567590566,106.86307855345643L366.6824272126418,111.92428582064025L368.0014287493779,104.20716480851763L369.32043028611406,107.5672729656894L370.63943182285016,107.06306155462278L371.95843335958625,109.64465408124366L373.2774348963224,108.53310021470062L374.5964364330585,110.67448789733767L375.91543796979465,111.93492759642584L377.23443950653075,105.939698923342L378.5534410432669,105.38537182939201L379.872442580003,107.61772356313728L381.19144411673915,104.671016548649L382.51044565347524,106.21728750245514L383.82944719021134,113.3228655601841L385.1484487269475,105.43792023841641L386.4674502636836,107.96791641903552L387.78645180041974,112.18378430563178L389.10545333715584,106.58302138051123L390.424454873892,107.50860956369813L391.7434564106281,108.02922192481402L393.06245794736424,112.16962385331728L394.38145948410033,109.75395302346449L395.7004610208365,110.04305042374953L397.0194625575726,118.38244482649999L398.3384640943087,104.99582897805976L399.65746563104483,109.03810788850716L400.9764671677809,110.24349544561034L402.2954687045171,112.31043715761673L403.6144702412532,116.53014221462924L404.9334717779893,105.700301813244L406.2524733147254,103.7633819381849L407.5714748514616,99.78046315962621L408.8904763881977,99.28282584797104L410.20947792493376,103.26486048794696L411.5284794616699,98.66078145013279L412.847480998406,107.93985936610827L414.16648253514217,106.43811411554539L415.48548407187826,87.32322043246411L416.8044856086144,98.38467196492667L418.12348714535057,98.91964485282085L419.44248868208666,113.67938939980087L420.7614902188228,111.84998208782167L422.0804917555589,90.39349657420485L423.399493292295,106.07340829518215L424.7184948290311,84.49473736257919L426.03749636576725,94.19060457299786L427.35649790250335,100.07460422978299L428.6754994392395,94.99210758252825L429.9945009759756,92.21532599581433L431.31350251271175,94.50457061265463L432.63250404944785,97.11551075655905L433.951505586184,91.76251253758373L435.2705071229201,94.07531684724783L436.58950865965625,113.35281188769075L437.90851019639234,95.78073947114854L439.2275117331285,95.15614846725032L440.5465132698646,101.32692555723294L441.8655148066007,88.92775441516089L443.18451634333684,101.59837224261099L444.50351788007293,85.92968531552754L445.8225194168091,97.14687167217217L447.1415209535452,100.62015718982563L448.46052249028133,87.51165314044083L449.77952402701743,100.77150091193884L451.0985255637536,103.95740193572487L452.4175271004897,91.95619627552071L453.73652863722583,115.29245400840911L455.0555301739619,107.13414997311754L456.374531710698,105.77157226027053L457.6935332474342,93.70225161315432L459.01253478417027,87.74886770154232L460.3315363209064,91.1363702560504L461.6505378576425,101.81318743069204L462.96953939437867,119.06480433349942L464.28854093111477,114.77363166924647L465.6075424678509,118.19884035807608L466.926544004587,110.25113638465558L468.2455455413231,114.14799994187698L469.56454707805926,109.3677422806248L470.88354861479536,95.87374618725839L472.2025501515315,118.72414197144218L473.5215516882676,119.33770366036237L474.84055322500376,95.72093009643027L476.15955476173986,118.66016521937753L477.478556298476,114.39254081512189L478.7975578352121,109.40404800578641L480.1165593719483,117.42509983806072L481.43556090868435,104.12448440064247L482.75456244542045,105.02200880571009L484.0735639821566,97.27868364315923L485.3925655188927,95.85441888197086L486.71156705562885,100.31530602714055L488.03056859236494,95.06939707644831L489.34957012910115,108.90941820002041L490.6685716658372,104.83107253290257L491.9875732025734,109.62365489321007L493.30657473930944,115.13365967018596L494.62557627604554,96.19106764940686L495.9445778127817,105.98106064789415L497.2635793495178,109.02873521250652L498.58258088625394,111.61407008433562L499.90158242299003,98.66112398658169L501.22058395972624,94.3179868841482L502.5395854964623,102.85135353557503L503.8585870331985,100.32983423537422L505.1775885699345,120.30431103165255L506.49659010667074,110.24481134152335L507.8155916434068,102.1984414028747L509.1345931801429,99.86420883792363L510.453594716879,96.73601085870273L511.7725962536151,92.64709946651287L513.0915977903513,88.62200387012433L514.4105993270874,102.62411826279798L515.7296008638235,104.84505913900234L517.0486024005596,95.52035258828585L518.3676039372958,109.78007075517473" fill="none"></path></g><g><path style="fill: none;" stroke="rgb(0, 119, 187)" stroke-width="2px" d="M71.22608298375056,389.1607456466331L72.54508452048668,336.52895500099993L73.8640860572228,353.50725651172894L75.18308759395893,348.70042638369665L76.50208913069504,375.5858002098277L77.82109066743116,311.6210530613561L79.1400922041673,310.6302583126499L80.45909374090341,354.88621141227986L81.77809527763954,326.7772328287941L83.09709681437565,262.95760635804976L84.41609835111178,319.4100091003787L85.73509988784791,318.3051981355679L87.05410142458402,270.7390014878126L88.37310296132014,242.34105843867147L89.69210449805627,352.07788598472877L91.01110603479239,305.09123948791665L92.33010757152852,317.53827516691655L93.64910910826462,235.81371256237182L94.96811064500075,237.15114702383798L96.28711218173687,238.49970046950966L97.606113718473,228.03134183141415L98.92511525520912,205.59564201355843L100.24411679194523,130.58365142171598L101.56311832868136,158.25455816796614L102.88211986541748,192.26128270080721L104.2011214021536,150.63112793607243L105.52012293888973,141.26009467567908L106.83912447562584,133.7489733577991L108.15812601236196,145.1980264028193L109.47712754909809,96.07953347751841L110.79612908583421,158.97669673765301L112.11513062257033,131.92220674852544L113.43413215930646,125.02516002754669L114.75313369604257,141.7372461556279L116.07213523277869,88.50003040677461L117.39113676951482,102.04649958701431L118.71013830625094,107.49459426344553L120.02913984298708,89.71737266528324L121.34814137972317,107.05629332133378L122.6671429164593,179.98847074400018L123.98614445319542,161.2667017495422L125.30514598993156,135.1050195641176L126.62414752666768,112.77626334058006L127.94314906340378,84.0062301716644L129.2621506001399,63.561518979643814L130.58115213687603,74.05450078760084L131.90015367361215,160.39243036854046L133.21915521034828,137.73681139017643L134.5381567470844,169.24343232441186L135.85715828382052,180.8412107501033L137.17615982055665,120.67402443002344L138.49516135729277,140.22202810363856L139.81416289402887,131.1039481471512L141.133164430765,202.3540563995175L142.45216596750112,216.3230442894892L143.77116750423724,176.36333038963699L145.09016904097336,137.18303755535996L146.4091705777095,106.28117368860002L147.7281721144456,152.45137738589403L149.04717365118174,161.92169241493514L150.36617518791786,218.8936960494942L151.68517672465399,216.9443874739687L153.00417826139008,311.22680974912026L154.3231797981262,402.79336633054305L155.64218133486233,373.39950662642303L156.96118287159848,404.55538817081884L158.2801844083346,349.9293539063936L159.5991859450707,278.7151581796265L160.91818748180683,242.57524576665378L162.23718901854295,250.67744152459068L163.55619055527907,236.90519509321243L164.8751920920152,215.69081167402655L166.1941936287513,214.7215662340644L167.51319516548742,228.33870642254507L168.83219670222357,251.7669441588889L170.1511982389597,248.24106405255884L171.47019977569582,234.3763794079729L172.7892013124319,234.03037096657428L174.10820284916804,223.49898562187911L175.42720438590416,251.81563813617072L176.74620592264029,264.7271030251269L178.0652074593764,289.1590120112407L179.38420899611253,317.26679978738576L180.70321053284866,308.37551482776854L182.02221206958478,305.70916806821435L183.3412136063209,353.94197292647283L184.66021514305703,361.82752783085743L185.97921667979313,381.58838741993355L200.48823358389046,484.0759242055357L201.8072351206266,371.6896507559165L203.1262366573627,406.651725585232L204.44523819409886,196.44009825383674L205.76423973083496,114.01748604504402L207.08324126757108,132.75783965941307L208.4022428043072,166.97993353616096L209.72124434104333,116.9631006641687L211.04024587777945,57.97347619487164L212.35924741451555,95.82295574343841L213.67824895125167,189.46899013112662L214.9972504879878,56.17328395784913L216.31625202472392,111.97882264478362L217.63525356146005,107.20677666720947L218.95425509819617,136.66495924661217L220.2732566349323,100.00428651829826L221.59225817166842,154.77218198403241L222.91125970840454,112.42205068677147L224.23026124514067,107.34623249149166L225.5492627818768,98.35113208708616L226.86826431861292,111.4044601949088L228.187265855349,142.53325961505297L229.50626739208514,86.86992455378974L230.82526892882126,137.73079996516728L232.14427046555738,107.40071506575246L233.4632720022935,113.05658677859029L234.78227353902963,94.18885422967776L236.10127507576576,87.6984108272485L237.42027661250188,118.92647385802188L238.739278149238,106.30895276692216L240.05827968597416,112.18906425391793L241.37728122271022,126.49700417751957L242.69628275944635,82.95557404008798L244.01528429618247,119.07475134090195L245.3342858329186,113.15017613451644L246.65328736965472,118.45165736475626L247.97228890639084,115.23019464622348L249.29129044312697,104.35046699431189L250.61029197986312,123.93427559045325L251.92929351659924,110.28852419321963L253.24829505333537,137.754574864137L254.56729659007144,125.31342148645872L255.88629812680756,115.3775590721949L257.2052996635437,142.02729382555097L258.5243012002798,123.08069359030424L259.84330273701596,109.83889780350617L261.16230427375206,114.9492201570813L262.4813058104882,119.28723154229988L263.8003073472243,90.97787989650836L265.11930888396046,132.7370005309505L266.43831042069655,111.71540595081153L267.75731195743265,99.24425552646981L269.0763134941688,131.83853639237907L270.3953150309049,115.14418661331712L271.71431656764105,125.00198949917008L273.03331810437714,112.86357726917893L274.3523196411133,109.58431565808337L275.6713211778494,107.44892034574465L276.99032271458555,119.53486342590199L278.30932425132164,105.21759084119248L279.62832578805774,111.34185930505303L280.9473273247939,108.26549092391191L282.26632886153,105.76921395958826L283.58533039826614,100.35757341089011L284.90433193500223,110.32372698688346L286.2233334717384,122.11206597131932L287.5423350084745,106.84762226871855L288.86133654521063,137.35256799018728L290.18033808194673,100.08068290671275L291.4993396186829,135.97967652279746L292.818341155419,97.98556589048542L294.1373426921551,128.23927637044645L295.4563442288912,132.7779524671332L296.7753457656273,119.04974931855442L298.0943473023635,128.6258188894278L299.41334883909957,119.20522768874596L300.7323503758357,111.85853103988153L302.0513519125718,104.40945589559887L303.37035344930797,106.89296261689326L304.6893549860441,117.15709958944024L306.00835652278016,111.83103744596235L307.3273580595163,107.77252896577671L308.6463595962524,116.70236182958827L309.96536113298856,106.14895372262804L311.28436266972466,109.62725107757751L312.6033642064608,121.98013563695203L313.92236574319696,94.98274252841195L315.24136727993306,114.42462300758345L316.5603688166692,102.3026478054948L317.8793703534053,117.00879655083033L319.1983718901414,112.08649846190083L320.5173734268775,114.62638258031888L321.83637496361365,103.49803993381259L323.15537650034975,126.62022135305422L324.4743780370859,106.05044983452851L325.79337957382205,109.11363739966515L327.11238111055815,116.28938504652373L328.4313826472943,130.99683108140763L329.7503841840304,115.29741428589932L331.06938572076655,105.08250145994161L332.3883872575026,116.44404608170694L333.70738879423874,111.09785106701929L335.02639033097483,128.27303504120198L336.345391867711,110.3353584307239L337.66439340444714,124.35218171512456L338.98339494118324,118.6734725810793L340.3023964779194,118.02477624710814L341.6213980146555,103.55765472630726L342.94039955139164,127.44462767666339L344.2594010881277,102.04755051036021L345.5784026248638,110.14457616481457L346.8974041616,114.5621099198036L348.2164056983361,132.39645653227353L349.5354072350722,101.73625840706642L350.8544087718083,128.32591836479097L352.1734103085445,109.91263841357625L353.49241184528057,115.78017816279508L354.8114133820167,115.32449058165119L356.1304149187528,115.76917754196982L357.4494164554889,107.62031276208029L358.76841799222507,103.03261001527784L360.08741952896116,124.47111449497096L361.4064210656973,110.79493003445538L362.7254226024334,132.0413054164427L364.04442413916956,99.92978304727554L365.36342567590566,123.01959028863365L366.6824272126418,117.16055275138989L368.0014287493779,114.73946702106362L369.32043028611406,109.60681837488842L370.63943182285016,120.45027280673334L371.95843335958625,106.97887246199552L373.2774348963224,115.73895856396844L374.5964364330585,114.13489612932159L375.91543796979465,119.40869344270695L377.23443950653075,117.6680774404113L378.5534410432669,109.92877573609674L379.872442580003,115.77227225118268L381.19144411673915,110.53893828877686L382.51044565347524,113.86352263645048L383.82944719021134,103.04771479664412L385.1484487269475,118.13570649674959L386.4674502636836,116.27436971021187L387.78645180041974,113.6434537283323L389.10545333715584,110.7009170054403L390.424454873892,118.30668912471573L391.7434564106281,107.09204220059289L393.06245794736424,121.87090955097852L394.38145948410033,107.27788839970339L395.7004610208365,113.20331039183415L397.0194625575726,110.59263491225894L398.3384640943087,111.45169334838877L399.65746563104483,105.47245589302791L400.9764671677809,118.76234330407239L402.2954687045171,110.78425356788742L403.6144702412532,119.52949761933054L404.9334717779893,110.52477167170292L406.2524733147254,110.99985571552604L407.5714748514616,108.33906990519951L408.8904763881977,113.9305951065068L410.20947792493376,118.10361701866331L411.5284794616699,106.8099867489136L412.847480998406,126.30676642799399L414.16648253514217,100.942898260082L415.48548407187826,110.29091387813153L416.8044856086144,111.00201651973481L418.12348714535057,122.23092163563017L419.44248868208666,112.95975795369226L420.7614902188228,119.94946434284894L422.0804917555589,121.33750946133402L423.399493292295,117.03787359121998L424.7184948290311,108.44125337004802L426.03749636576725,114.47717287373277L427.35649790250335,117.8084788266971L428.6754994392395,118.65935864467649L429.9945009759756,103.05939690359806L431.31350251271175,124.03247953498693L432.63250404944785,111.41816501546127L433.951505586184,117.21850731813807L435.2705071229201,112.66611501010482L436.58950865965625,116.48618546263428L437.90851019639234,112.66206577196562L439.2275117331285,110.89573752500847L440.5465132698646,135.73669623037003L441.8655148066007,106.7541568945102L443.18451634333684,125.3763952882142L444.50351788007293,111.6315786735171L445.8225194168091,116.8168263918302L447.1415209535452,117.54961094054768L448.46052249028133,111.4259060477817L449.77952402701743,122.08364620636699L451.0985255637536,114.84773812976461L452.4175271004897,110.77692535027293L453.73652863722583,108.49616680494677L455.0555301739619,109.56078309020087L456.374531710698,113.37505237804874L457.6935332474342,111.4065578943988L459.01253478417027,115.70666464004353L460.3315363209064,113.27463410798615L461.6505378576425,114.07429486323831L462.96953939437867,112.01728715659644L464.28854093111477,120.65035534074212L465.6075424678509,108.12988863467997L466.926544004587,117.86434185871467L468.2455455413231,112.36395959862443L469.56454707805926,109.52159875866457L470.88354861479536,117.75969249011095L472.2025501515315,117.84467291367055L473.5215516882676,105.41934570629344L474.84055322500376,126.11354000311708L476.15955476173986,120.738539645799L477.478556298476,112.86951294120442L478.7975578352121,105.33602237005738L480.1165593719483,115.72228389860236L481.43556090868435,116.19998079162723L482.75456244542045,105.3576622447212L484.0735639821566,109.387156789236L485.3925655188927,120.77730723960066L486.71156705562885,114.9477450982895L488.03056859236494,120.36609402606727L489.34957012910115,115.0311105790625L490.6685716658372,112.72063722797172L491.9875732025734,116.45890449687074L493.30657473930944,108.83222599721213L494.62557627604554,118.02574736484158L495.9445778127817,110.7508024625821L497.2635793495178,121.424322723903L498.58258088625394,118.98306321078196L499.90158242299003,114.32828687305783L501.22058395972624,109.62998643736128L502.5395854964623,121.69050223885982L503.8585870331985,115.46389865706975L505.1775885699345,108.71594518476793L506.49659010667074,120.13678829082808L507.8155916434068,112.46198210308067L509.1345931801429,115.89519822590114L510.453594716879,111.89582800230951L511.7725962536151,114.0134056468483L513.0915977903513,113.39435474408239L514.4105993270874,114.3098951540724L515.7296008638235,108.86698806662301L517.0486024005596,108.97421049370882L518.3676039372958,114.682862872881L519.6866054740319,119.03672531161145L521.005607010768,113.43299921082607L522.3246085475041,127.99967660789441L523.6436100842402,106.06353571323842L524.9626116209764,121.54932611044872L526.2816131577125,112.26580598094469L527.6006146944486,120.2100673285498L528.9196162311847,105.15246497797789L530.2386177679209,132.85147406011518L531.557619304657,110.72434376363438L532.8766208413931,134.79657714887264L534.1956223781292,117.06163369476717L535.5146239148653,125.29262270914852L536.8336254516015,109.92599374831468L538.1526269883376,105.96730583674737L539.4716285250737,121.8243425277721L540.7906300618098,111.18446862649934L542.109631598546,117.45669703208823L543.4286331352821,115.61774840991748L544.7476346720182,111.81958948777859L546.0666362087543,119.88393003630324L547.3856377454904,114.14807548820114L548.7046392822266,130.202471122537L550.0236408189627,100.50668078247035L551.3426423556988,116.84159392914795L552.6616438924349,115.3297191943046L553.9806454291711,111.38675534220569L555.2996469659072,118.09682950649044L556.6186485026433,107.05293834718826L557.9376500393794,109.15908310918215L559.2566515761155,119.62906005266028L560.5756531128517,112.50207500806424L561.8946546495878,149.27160973726652L563.2136561863239,101.12178029864157L564.53265772306,118.22166700496537L565.8516592597962,106.53798994282509L567.1706607965323,126.00161038993555L568.4896623332684,126.7178406542248L569.8086638700045,111.10708643701537L571.1276654067407,140.76603516619977L572.4466669434768,104.29841669784604L573.7656684802129,126.00833109853397L575.084670016949,119.02914736519851L576.4036715536851,99.95025811867458L577.7226730904213,124.14562237281604L579.0416746271574,114.76678452703734L580.3606761638935,123.93009341768435L581.6796777006296,116.99711399553026L582.9986792373658,87.39618069608218L584.3176807741019,119.52292755503427L585.636682310838,107.80791961647209L586.955683847574,101.62759275376455L588.2746853843101,119.19882754763574L589.5936869210464,119.2579043247656L590.9126884577825,112.43137925672082L592.2316899945185,121.54647821578449L593.5506915312546,104.17415308242688L594.8696930679909,113.26252172884851L596.188694604727,109.79095323679282L597.5076961414632,115.86888860204411L598.8266976781991,133.76539358673222L600.1456992149352,121.05066477621592L601.4647007516714,117.6216408859308L602.7837022884075,119.181148362749L604.1027038251436,111.21442364071237L605.4217053618797,131.8788821645841L606.7407068986159,111.31439205146944L608.059708435352,111.65111210594127L609.3787099720882,120.83049723194755L610.6977115088242,106.02241788898493L612.0167130455603,112.05471823056274L613.3357145822965,113.51618574544696L614.6547161190326,110.43759816301264L615.9737176557688,109.73108714628815L617.2927191925048,122.90825876919934L618.611720729241,108.19318345226976L619.9307222659771,115.74324071792596L621.2497238027133,113.31209247502355L622.5687253394493,110.48354579603037L623.8877268761854,120.47188129716754L625.2067284129216,108.01172163003606L626.5257299496577,107.47349554256948L627.8447314863939,121.09737706357085L629.1637330231299,107.9598031473346L630.4827345598661,121.72315887480981L631.8017360966022,113.83581305177965L633.1207376333384,112.9722588667903L634.4397391700744,113.64289946042005L635.7587407068106,111.93410420874464L637.0777422435467,124.9569441627537L638.3967437802828,117.30286678229744L639.715745317019,111.23287129087846L641.034746853755,115.86711897984013L642.3537483904912,108.9104803320197L643.6727499272273,111.00704640296286L644.9917514639635,115.26555996536209L646.3107530006995,110.71372984135259L647.6297545374357,122.88267255183483L648.9487560741718,105.09830745466662L650.2677576109079,114.43150422409903L651.5867591476441,115.60828135705496L652.9057606843801,116.24166442870597L654.2247622211163,109.90447044364659L655.5437637578524,125.48592355948422L656.8627652945886,115.3601944021235L658.1817668313246,101.98193505316367L659.5007683680608,126.92264427305957L660.8197699047969,106.51027542634678L662.1387714415331,120.13592208609077L663.4577729782692,113.17766675814245L664.7767745150052,112.31528764634659L666.0957760517414,109.02204319806091L667.4147775884775,117.9994585890799L668.7337791252137,111.39955080470516L670.0527806619497,110.93740950508766L671.3717821986859,122.4017899353313L672.690783735422,118.3293615405338L674.0097852721582,107.54386167543704L675.3287868088943,122.02717701037174L676.6477883456303,108.73464704719389L677.9667898823665,125.4609587498661L679.2857914191026,118.61866316248438L680.6047929558388,110.25877732370081L681.9237944925749,117.85200471805409L683.242796029311,115.51366799256199L684.5617975660471,118.642689135291L685.8807991027833,93.86271110893146L687.1998006395194,124.89253924012792L688.5188021762553,102.9801499304425L689.8378037129916,117.40796808380763L691.1568052497277,107.45886824983947L692.4758067864639,115.25597791171529L693.7948083232,103.00972732512139L695.113809859936,120.74679190480249L696.4328113966722,108.14856269964541L697.7518129334084,116.66957203483547L699.0708144701445,113.36061809833086L700.3898160068806,119.72849022387952L701.7088175436166,110.51144704867491L703.0278190803527,111.56272111331508L704.346820617089,117.86249870774418L705.665822153825,105.1620703456238L706.9848236905611,112.1750809543709L708.3038252272972,115.83372571118649L709.6228267640334,122.5206563599494L710.9418283007695,192.6420612818472L712.2608298375056,118.75229766051964L713.5798313742417,112.31942801083815L714.8988329109778,111.30991531528834L716.217834447714,114.896218245939L717.5368359844501,111.23123807798675L718.8558375211862,115.57216886907852L720.1748390579223,112.70916278233881L721.4938405946585,110.92911779162408L722.8128421313946,111.1562082485988L724.1318436681307,112.51182435086349L725.4508452048668,108.54265267750235L726.769846741603,114.72361641589792L728.0888482783391,112.68878420343502L729.4078498150752,114.99997719911403L730.7268513518113,111.38533509372922L732.0458528885474,112.58300484844624L733.3648544252836,109.81930373226693L734.6838559620197,116.46436961211157L736.0028574987558,112.13162881595348L737.3218590354919,113.09386792280613L738.6408605722281,113.75769148347203L739.9598621089642,115.0165039102548L741.2788636457003,111.22025012293989L742.5978651824364,113.00641065304336L743.9168667191725,113.11743784352619L745.2358682559087,110.65617945864719L746.5548697926448,111.78034362073495L747.8738713293809,111.06788977596031L749.192872866117,110.4760902481129L750.5118744028532,112.47226534206457L751.8308759395893,112.7833412129201L753.1498774763254,114.76463515565503L754.4688790130615,110.07637061198275L755.7878805497976,118.41203925833211L757.1068820865338,108.65778034368138L758.4258836232699,111.12952840291888L759.744885160006,115.16997099967432L761.0638866967421,110.53175690452237L762.3828882334783,113.96484269872504L763.7018897702144,112.00479421565315L765.0208913069505,113.67861712357931L766.3398928436866,112.09544873979686L767.6588943804227,114.11496490178712L768.9778959171589,111.31724835262378L770.296897453895,114.3353865462288L771.6158989906311,114.96642678513928L772.9349005273672,115.47208299163346L774.2539020641034,113.92102314064812L775.5729036008395,112.88378403693916" fill="none"></path></g></g></g></g></g></g><g transform="translate(41, 376)" clip-path="url(#clip_1)"><clipPath id="clip_1"><rect width="857" height="23"></rect></clipPath><g><g><line x1="0" y1="0" x2="0" y2="5" style="visibility: inherit;" fill="rgb(0, 0, 0)" stroke="rgb(204, 204, 204)" stroke-width="1px"></line><line x1="65.95007683680608" y1="0" x2="65.95007683680608" y2="5" style="visibility: inherit;" fill="rgb(0, 0, 0)" stroke="rgb(204, 204, 204)" stroke-width="1px"></line><line x1="131.90015367361215" y1="0" x2="131.90015367361215" y2="5" style="visibility: inherit;" fill="rgb(0, 0, 0)" stroke="rgb(204, 204, 204)" stroke-width="1px"></line><line x1="197.85023051041824" y1="0" x2="197.85023051041824" y2="5" style="visibility: inherit;" fill="rgb(0, 0, 0)" stroke="rgb(204, 204, 204)" stroke-width="1px"></line><line x1="263.8003073472243" y1="0" x2="263.8003073472243" y2="5" style="visibility: inherit;" fill="rgb(0, 0, 0)" stroke="rgb(204, 204, 204)" stroke-width="1px"></line><line x1="329.7503841840304" y1="0" x2="329.7503841840304" y2="5" style="visibility: inherit;" fill="rgb(0, 0, 0)" stroke="rgb(204, 204, 204)" stroke-width="1px"></line><line x1="395.7004610208365" y1="0" x2="395.7004610208365" y2="5" style="visibility: inherit;" fill="rgb(0, 0, 0)" stroke="rgb(204, 204, 204)" stroke-width="1px"></line><line x1="461.6505378576425" y1="0" x2="461.6505378576425" y2="5" style="visibility: inherit;" fill="rgb(0, 0, 0)" stroke="rgb(204, 204, 204)" stroke-width="1px"></line><line x1="527.6006146944486" y1="0" x2="527.6006146944486" y2="5" style="visibility: inherit;" fill="rgb(0, 0, 0)" stroke="rgb(204, 204, 204)" stroke-width="1px"></line><line x1="593.5506915312546" y1="0" x2="593.5506915312546" y2="5" style="visibility: inherit;" fill="rgb(0, 0, 0)" stroke="rgb(204, 204, 204)" stroke-width="1px"></line><line x1="659.5007683680608" y1="0" x2="659.5007683680608" y2="5" style="visibility: inherit;" fill="rgb(0, 0, 0)" stroke="rgb(204, 204, 204)" stroke-width="1px"></line><line x1="725.4508452048668" y1="0" x2="725.4508452048668" y2="5" style="visibility: inherit;" fill="rgb(0, 0, 0)" stroke="rgb(204, 204, 204)" stroke-width="1px"></line><line x1="791.400922041673" y1="0" x2="791.400922041673" y2="5" style="visibility: inherit;" fill="rgb(0, 0, 0)" stroke="rgb(204, 204, 204)" stroke-width="1px"></line><line x1="857.350998878479" y1="0" x2="857.350998878479" y2="5" style="visibility: inherit;" fill="rgb(0, 0, 0)" stroke="rgb(204, 204, 204)" stroke-width="1px"></line></g><g transform="translate(0, 8)"><text style="text-anchor: middle; visibility: hidden; font-family: Roboto, sans-serif; font-size: 12px; font-weight: 200;" x="0" y="0" dx="0em" dy="0.95em" fill="rgb(50, 49, 63)" stroke="none" stroke-width="1px">-100</text><text style="text-anchor: middle; visibility: inherit; font-family: Roboto, sans-serif; font-size: 12px; font-weight: 200;" x="65.95007683680608" y="0" dx="0em" dy="0.95em" fill="rgb(50, 49, 63)" stroke="none" stroke-width="1px">0</text><text style="text-anchor: middle; visibility: inherit; font-family: Roboto, sans-serif; font-size: 12px; font-weight: 200;" x="131.90015367361215" y="0" dx="0em" dy="0.95em" fill="rgb(50, 49, 63)" stroke="none" stroke-width="1px">100</text><text style="text-anchor: middle; visibility: inherit; font-family: Roboto, sans-serif; font-size: 12px; font-weight: 200;" x="197.85023051041824" y="0" dx="0em" dy="0.95em" fill="rgb(50, 49, 63)" stroke="none" stroke-width="1px">200</text><text style="text-anchor: middle; visibility: inherit; font-family: Roboto, sans-serif; font-size: 12px; font-weight: 200;" x="263.8003073472243" y="0" dx="0em" dy="0.95em" fill="rgb(50, 49, 63)" stroke="none" stroke-width="1px">300</text><text style="text-anchor: middle; visibility: inherit; font-family: Roboto, sans-serif; font-size: 12px; font-weight: 200;" x="329.7503841840304" y="0" dx="0em" dy="0.95em" fill="rgb(50, 49, 63)" stroke="none" stroke-width="1px">400</text><text style="text-anchor: middle; visibility: inherit; font-family: Roboto, sans-serif; font-size: 12px; font-weight: 200;" x="395.7004610208365" y="0" dx="0em" dy="0.95em" fill="rgb(50, 49, 63)" stroke="none" stroke-width="1px">500</text><text style="text-anchor: middle; visibility: inherit; font-family: Roboto, sans-serif; font-size: 12px; font-weight: 200;" x="461.6505378576425" y="0" dx="0em" dy="0.95em" fill="rgb(50, 49, 63)" stroke="none" stroke-width="1px">600</text><text style="text-anchor: middle; visibility: inherit; font-family: Roboto, sans-serif; font-size: 12px; font-weight: 200;" x="527.6006146944486" y="0" dx="0em" dy="0.95em" fill="rgb(50, 49, 63)" stroke="none" stroke-width="1px">700</text><text style="text-anchor: middle; visibility: inherit; font-family: Roboto, sans-serif; font-size: 12px; font-weight: 200;" x="593.5506915312546" y="0" dx="0em" dy="0.95em" fill="rgb(50, 49, 63)" stroke="none" stroke-width="1px">800</text><text style="text-anchor: middle; visibility: inherit; font-family: Roboto, sans-serif; font-size: 12px; font-weight: 200;" x="659.5007683680608" y="0" dx="0em" dy="0.95em" fill="rgb(50, 49, 63)" stroke="none" stroke-width="1px">900</text><text style="text-anchor: middle; visibility: inherit; font-family: Roboto, sans-serif; font-size: 12px; font-weight: 200;" x="725.4508452048668" y="0" dx="0em" dy="0.95em" fill="rgb(50, 49, 63)" stroke="none" stroke-width="1px">1k</text><text style="text-anchor: middle; visibility: inherit; font-family: Roboto, sans-serif; font-size: 12px; font-weight: 200;" x="791.400922041673" y="0" dx="0em" dy="0.95em" fill="rgb(50, 49, 63)" stroke="none" stroke-width="1px">1.1k</text><text style="text-anchor: middle; visibility: hidden; font-family: Roboto, sans-serif; font-size: 12px; font-weight: 200;" x="857.350998878479" y="0" dx="0em" dy="0.95em" fill="rgb(50, 49, 63)" stroke="none" stroke-width="1px">1.2k</text></g><line x1="0" y1="0" x2="857.350998878479" y2="0" fill="rgb(0, 0, 0)" stroke="rgb(204, 204, 204)" stroke-width="1px"></line></g></g></g></g></svg>